SplineFontDB: 3.2
FontName: JovusDisplay-Bold
FullName: Jovus Display Bold
FamilyName: Jovus Display
Weight: Bold
Copyright: Copyright (c) 2024 Jovan Lanik\nCopyright (URW)++,Copyright 2014 by (URW)++ Design & Development
Version: 1.00
ItalicAngle: 0
UnderlinePosition: -154
UnderlineWidth: 69
Ascent: 729
Descent: 271
InvalidEm: 0
sfntRevision: 0x00010000
LayerCount: 2
Layer: 0 0 "Back" 1
Layer: 1 0 "Fore" 0
XUID: [1021 818 -1159209567 12974311]
StyleMap: 0x0020
FSType: 4
OS2Version: 3
OS2_WeightWidthSlopeOnly: 0
OS2_UseTypoMetrics: 0
CreationTime: 1495029637
ModificationTime: 1725725947
PfmFamily: 81
TTFWeight: 700
TTFWidth: 5
LineGap: 200
VLineGap: 0
Panose: 0 0 8 0 0 0 0 0 0 0
OS2TypoAscent: 729
OS2TypoAOffset: 0
OS2TypoDescent: -271
OS2TypoDOffset: 0
OS2TypoLinegap: 200
OS2WinAscent: 1070
OS2WinAOffset: 0
OS2WinDescent: 307
OS2WinDOffset: 0
HheadAscent: 729
HheadAOffset: 0
HheadDescent: -271
HheadDOffset: 0
OS2SubXSize: 650
OS2SubYSize: 600
OS2SubXOff: 0
OS2SubYOff: 75
OS2SupXSize: 650
OS2SupYSize: 600
OS2SupXOff: 0
OS2SupYOff: 350
OS2StrikeYSize: 69
OS2StrikeYPos: 315
OS2CapHeight: 718
OS2XHeight: 526
OS2Vendor: 'UKWN'
OS2CodePages: 6000009f.00000000
OS2UnicodeRanges: 00000287.00000800.00000000.00000000
Lookup: 1 0 0 "'aalt' Access All Alternates lookup 0" { "'aalt' Access All Alternates lookup 0 subtable"  } ['aalt' ('DFLT' <'dflt' > 'cyrl' <'dflt' > 'grek' <'dflt' > 'latn' <'AZE ' 'CRT ' 'DEU ' 'MOL ' 'ROM ' 'SRB ' 'TRK ' 'dflt' > ) ]
Lookup: 3 0 0 "'aalt' Access All Alternates lookup 1" { "'aalt' Access All Alternates lookup 1 subtable"  } ['aalt' ('DFLT' <'dflt' > 'cyrl' <'dflt' > 'grek' <'dflt' > 'latn' <'AZE ' 'CRT ' 'DEU ' 'MOL ' 'ROM ' 'SRB ' 'TRK ' 'dflt' > ) ]
Lookup: 1 0 0 "'sups' Superscript lookup 2" { "'sups' Superscript lookup 2 subtable" ("superior") } ['sups' ('DFLT' <'dflt' > 'cyrl' <'dflt' > 'grek' <'dflt' > 'latn' <'AZE ' 'CRT ' 'DEU ' 'MOL ' 'ROM ' 'SRB ' 'TRK ' 'dflt' > ) ]

StartChar: exclam
Encoding: 33 33 2
Width: 378
GlyphClass: 1
Flags: W
HStem: -10 166<123.2 293.2>
VStem: 123.2 170<-10 156 196.846 726> 134.708 145.939<187 498.562>
LayerCount: 2
Fore
SplineSet
123.200195312 726 m 1xc0
 293.200195312 726 l 1
 293.200195312 716 293.200195312 520 293.200195312 530 c 2xc0
 293.200195312 474.095703125 289.98046875 351.098632812 280.647460938 187 c 1
 134.708007812 187 l 1xa0
 129.305664062 290.614257812 123.200195312 440.333007812 123.200195312 530 c 2
 123.200195312 520 123.200195312 716 123.200195312 726 c 1xc0
123.200195312 156 m 1
 293.200195312 156 l 1
 293.200195312 -10 l 1
 123.200195312 -10 l 1
 123.200195312 156 l 1
EndSplineSet
EndChar

StartChar: quotedbl
Encoding: 34 34 3
Width: 558
GlyphClass: 1
Flags: W
HStem: 450 279<63.5764 206.65 328.399 471.903>
VStem: 55 164.555<453.36 729> 317.844 164.556<453.354 729>
LayerCount: 2
Fore
SplineSet
55 729 m 1
 219.554847915 729 l 1
 219.554847915 719 219.554847915 579 219.554847915 589 c 2
 219.554847915 567.581054688 217.021819265 522.102539062 203.002156165 450 c 1
 66.228515625 450 l 1
 61.876953125 483.072265625 55 543.139648438 55 589 c 2
 55 579 55 719 55 729 c 1
317.844449473 729 m 1
 482.400390625 729 l 1
 482.400390625 719 482.400390625 579 482.400390625 589 c 2
 482.400390625 567.413085938 480.307617188 521.956054688 468.946289062 450 c 1
 331.660770611 450 l 1
 326.309378621 483.03125 317.844449473 543.083984375 317.844449473 589 c 2
 317.844449473 579 317.844449473 719 317.844449473 729 c 1
EndSplineSet
EndChar

StartChar: numbersign
Encoding: 35 35 4
Width: 658
GlyphClass: 1
Flags: W
HStem: 162 119<3.2998 78.1475 242.126 313.496 483.602 584.3> 414 119<31.2998 129.097 300.164 370.381 536.444 624.3>
VStem: 38.1475 130.93<-32 59.6923>
LayerCount: 2
Fore
SplineSet
169.077851779 -32 m 1
 38.1474609375 -32 l 1
 38.1474609375 -22.490234375 78.1474609375 162 78.1474609375 162 c 1
 3.2998046875 162 l 1
 3.2998046875 281 l 1
 102.10546875 281 l 1
 129.097299169 414 l 1
 31.2998046875 414 l 1
 31.2998046875 533 l 1
 156.670698256 533 l 1
 196.143132683 707 l 1
 339.636532094 707 l 1
 300.164097667 533 l 1
 398.1463924 533 l 1
 437.618826827 707 l 1
 570.444335938 707 l 1
 536.444335938 533 l 1
 624.299804688 533 l 1
 624.299804688 414 l 1
 513.375 414 l 1
 483.601976389 281 l 1
 584.299804688 281 l 1
 584.299804688 162 l 1
 456.992249719 162 l 1
 456.992249719 162 410.554576588 -22.490234375 410.554576588 -32 c 1
 410.554576588 -22 267.05808518 -22 267.05808518 -32 c 1
 267.05808518 -22.490234375 313.49575831 162 313.49575831 162 c 1
 215.515524909 162 l 1
 215.515524909 162 169.077851779 -22.490234375 169.077851779 -32 c 1
370.381289495 414 m 1
 272.40208676 414 l 1
 242.126282245 281 l 1
 340.105484981 281 l 1
 370.381289495 414 l 1
EndSplineSet
EndChar

StartChar: dollar
Encoding: 36 36 5
Width: 637
GlyphClass: 1
Flags: W
VStem: 24.2002 152.666<141.294 220.849> 41.2002 145.727<466.763 572.616> 252.085 93.9986<-126 -19.6027 105.334 268.478 441.091 590.505 709.377 763> 416.483 151.116<485.099 559.983> 423.418 154.181<128.141 236.192>
LayerCount: 2
Fore
SplineSet
346.083656624 590.504882812 m 1x70
 346.083656624 585.05078125 346.083656624 412.568359375 346.083656624 413.6171875 c 1
 506.771484375 373.243164062 577.599609375 316.171875 577.599609375 199.396484375 c 0
 577.599609375 122.592773438 544.270507812 56.744140625 486.958007812 20.5224609375 c 0
 453.632581001 0.0009765625 407.031732835 -13.5859375 346.083656624 -19.9873046875 c 1
 346.083656624 -9.9873046875 346.083656624 -116 346.083656624 -126 c 1
 252.085007971 -126 l 1
 252.085007971 -116 252.085007971 -9.9765625 252.085007971 -19.9765625 c 1
 192.33027398 -13.6083984375 152.391905494 -0.2705078125 114.301757812 25.7578125 c 0
 55.791015625 67.529296875 24.2001953125 128.295898438 24.2001953125 202.321289062 c 2
 24.2001953125 206.536132812 24.2001953125 224.6015625 24.2001953125 220.848632812 c 1
 176.865852301 220.848632812 l 1xa8
 178.398212196 188.193359375 181.431638047 123.5859375 252.085007971 105.333984375 c 1
 252.085007971 111.963867188 252.085007971 295.052734375 252.085007971 293.099609375 c 1
 112.555664062 324.888671875 41.2001953125 397.046875 41.2001953125 508.500976562 c 0
 41.2001953125 620.631835938 117.935546875 694.799804688 252.085007971 709.374023438 c 1
 252.085007971 700.958007812 252.085007971 753.249023438 252.085007971 763 c 1
 346.083656624 763 l 1
 346.083656624 753.249023438 346.083656624 701.3046875 346.083656624 709.728515625 c 1
 486.296875 699.520507812 565.564453125 618.9765625 567.598632812 495.0078125 c 2
 567.598632812 491.932617188 567.760742188 482.26953125 567.760742188 485.098632812 c 1
 415.976583823 485.098632812 l 1
 416.482502508 497.916015625 416.482502508 497.916015625 416.482502508 500.57421875 c 0
 416.482502508 548.840820312 391.059306209 581.047851562 346.083656624 590.504882812 c 1x70
252.085007971 441.090820312 m 1
 252.085007971 595.364257812 l 1
 204.247006071 582.979492188 186.926853791 556.451171875 186.926853791 516 c 0x60
 186.926853791 480.5703125 204.825943948 457.981445312 252.085007971 441.090820312 c 1
346.083656624 98.89453125 m 1
 399.709994167 113.430664062 423.418282592 141.626953125 423.418282592 183 c 0x28
 423.418282592 222.361328125 399.692260934 251.428710938 346.083656624 268.477539062 c 1
 346.083656624 98.89453125 l 1
EndSplineSet
EndChar

StartChar: percent
Encoding: 37 37 6
Width: 995
GlyphClass: 1
Flags: W
HStem: -20 21G<207.281 310.136> -13 118<656.489 779.472> 243 119<656.494 780.261> 327 118<165.558 275.81> 582 119<165.547 276.37> 689 20G<628.17 738.02>
VStem: 24.2002 119<466.799 560.748> 297.871 122.73<465.989 560.269> 508.266 122.73<130.908 217.908> 803.2 119<129.916 220.188>
LayerCount: 2
Fore
SplineSet
24.2001953125 514 m 0x1bc0
 24.2001953125 616.883789062 111.758789062 701 220.519944529 701 c 0
 332.383932945 701 420.601449231 617.69140625 420.601449231 512.051757812 c 0
 420.601449231 410.048828125 330.195340052 327 220.519944529 327 c 0
 111.758789062 327 24.2001953125 411.116210938 24.2001953125 514 c 0x1bc0
297.871041707 513.034179688 m 0
 297.871041707 551.692382812 264.482158601 582 220.519944529 582 c 0
 177.509511535 582 143.200195312 551.5078125 143.200195312 513.965820312 c 0
 143.200195312 475.405273438 177.566920553 445 220.519944529 445 c 0
 263.530377523 445 297.871041707 475.4921875 297.871041707 513.034179688 c 0
628.170298418 709 m 1x87c0
 738.019935345 709 l 1
 738.019935345 699.266601562 310.136427924 -10.2666015625 310.136427924 -20 c 1
 310.136427924 -10 207.280619367 -10 207.280619367 -20 c 1
 207.280619367 -10.2666015625 628.170298418 699.266601562 628.170298418 709 c 1x87c0
508.266026034 174.987304688 m 0
 508.266026034 278.032226562 597.885530956 362 717.113988416 362 c 0
 836.342773438 362 922.200195312 278.845703125 922.200195312 172.064453125 c 0
 922.200195312 70.837890625 834.243164062 -13 717.113988416 -13 c 0x63c0
 597.859344387 -13 508.266026034 71.0087890625 508.266026034 174.987304688 c 0
803.200195312 173.067382812 m 0
 803.200195312 212.01171875 766.804010947 243 717.113988416 243 c 0
 668.578189288 243 630.996433557 210.909179688 630.996433557 174 c 0
 630.996433557 137.090820312 668.578189288 105 717.113988416 105 c 0
 764.600310418 105 803.200195312 137.279296875 803.200195312 173.067382812 c 0
EndSplineSet
Ligature2: "'frac' Diagonal Fractions lookup 5 subtable" zerosuperior fraction zerosuperior
Ligature2: "'frac' Diagonal Fractions lookup 5 subtable" zerosuperior slash zerosuperior
Ligature2: "'frac' Diagonal Fractions lookup 5 subtable" zero fraction zero
Ligature2: "'frac' Diagonal Fractions lookup 5 subtable" zero slash zero
EndChar

StartChar: ampersand
Encoding: 38 38 7
Width: 838
GlyphClass: 1
Flags: W
HStem: -23 136<265.013 402.001> -0.600586 21G<595.708 784.783> 594 129<306.641 402.461>
VStem: 60.5 154.422<161.678 272.609> 135.5 164.328<509.844 586.828> 410.916 158.548<497.023 586.143>
LayerCount: 2
Fore
SplineSet
354.797785327 723 m 0xac
 480.933723958 723 569.463878949 659.81640625 569.463878949 563.282226562 c 0
 569.463878949 487.734375 534.521812851 444.825195312 440.733489618 388.78515625 c 1
 440.733489618 387.772460938 555.929341671 269.5625 555.929341671 267.405273438 c 1
 575.192654267 301.030273438 581.875885928 325.537109375 581.875885928 362.66015625 c 2
 581.875885928 362.330078125 581.875885928 381.298828125 581.875885928 382.138671875 c 1
 719 382.138671875 l 1
 719 381.298828125 719 356.385742188 719 356.556640625 c 1
 717.038085938 283.940429688 692.969726562 206.9296875 653.423440972 158.999023438 c 1
 653.423440972 163.986328125 784.783203125 8.5537109375 784.783203125 -0.6005859375 c 1
 784.783203125 8.798828125 595.707863177 8.798828125 595.707863177 -0.6005859375 c 1x6c
 595.707863177 8.5537109375 545.877500484 58.7001953125 545.877500484 50.890625 c 1
 455.874406462 -5.1416015625 402.959632022 -23 323.819208696 -23 c 0
 161.416015625 -23 60.5 64.51171875 60.5 197.099609375 c 0xb4
 60.5 291.92578125 102.940429688 345.389648438 215.609121424 402.677734375 c 1
 211.968537678 406.533203125 210.619871511 407.6484375 210.56995864 407.69921875 c 0
 198.930073227 419.555664062 189.200119131 430.416992188 179.813476562 441.161132812 c 0
 150.576171875 474.74609375 135.5 512.05078125 135.5 550.62109375 c 0
 135.5 649.830078125 228.043538264 723 354.797785327 723 c 0xac
259.076102287 291.356445312 m 1
 230.933391674 274.947265625 214.92154615 249.201171875 214.92154615 220 c 0
 214.92154615 165.794921875 270.226026652 113 326.113163535 113 c 0xb4
 356.071072871 113 399.120415419 128.676757812 448.193935996 159.916015625 c 1
 448.193935996 169.916015625 305.478774911 326.309570312 305.478774911 316.309570312 c 1
 305.478774911 326.309570312 259.076102287 301.356445312 259.076102287 291.356445312 c 1
354.872145319 472.515625 m 1
 395.010243227 493.67578125 410.916151227 516.5 410.916151227 546 c 0
 410.916151227 566.540039062 402.255758668 594 355.945781376 594 c 0
 318.726058519 594 299.828434106 577.5390625 299.828434106 556 c 0x2c
 299.828434106 535.4375 302.099979085 529.735351562 354.872145319 472.515625 c 1
EndSplineSet
EndChar

StartChar: quotesingle
Encoding: 39 39 8
Width: 276
GlyphClass: 1
Flags: W
HStem: 450 279<63.5764 202.503>
VStem: 55 158<453.354 729>
LayerCount: 2
Fore
SplineSet
55 729 m 1
 213 729 l 1
 213 719 213 579 213 589 c 2
 213 567.413085938 210.907226562 521.956054688 199.545898438 450 c 1
 66.228515625 450 l 1
 61.876953125 483.072265625 55 543.139648438 55 589 c 2
 55 579 55 719 55 729 c 1
EndSplineSet
EndChar

StartChar: parenleft
Encoding: 40 40 9
Width: 373
GlyphClass: 1
Flags: W
HStem: 709 20G<159.728 333.466>
VStem: 44 143<97.1341 432.835>
LayerCount: 2
Fore
SplineSet
44 264.989257812 m 0
 44 437.521484375 107.833007812 575.26953125 211.623046875 729 c 1
 333.465820312 729 l 1
 232.916015625 539.567382812 187 426.935546875 187 264.989257812 c 0
 187 102.819335938 231.060546875 -7.005859375 333.463867188 -200 c 1
 211.623046875 -200 l 1
 107.623046875 -45.9599609375 44 91.6572265625 44 264.989257812 c 0
EndSplineSet
EndChar

StartChar: parenright
Encoding: 41 41 10
Width: 374
GlyphClass: 1
Flags: W
HStem: 709 20G<24.2031 198.043>
VStem: 170.666 143<96.1653 431.866>
LayerCount: 2
Fore
SplineSet
146.04296875 -200 m 1
 24.2001953125 -200 l 1
 124.75 -10.5673828125 170.666015625 102.064453125 170.666015625 264.010742188 c 0
 170.666015625 426.180664062 126.60546875 536.005859375 24.203125 729 c 1
 146.04296875 729 l 1
 250.04296875 574.959960938 313.666015625 437.342773438 313.666015625 264.010742188 c 0
 313.666015625 91.478515625 249.833984375 -46.26953125 146.04296875 -200 c 1
EndSplineSet
EndChar

StartChar: asterisk
Encoding: 42 42 11
Width: 463
GlyphClass: 1
Flags: W
HStem: 403.09 325.91
VStem: 162.226 114.779<628.035 729>
LayerCount: 2
Fore
SplineSet
162.226292189 628.001953125 m 1
 162.226292189 629.08984375 162.226292189 719.999023438 162.226292189 729 c 1
 277.005504497 729 l 1
 277.005504497 719.998046875 277.005504497 629.114257812 277.005504497 628.03515625 c 1
 277.005504497 629.114257812 384.626953125 657.34765625 384.626953125 659.400390625 c 1
 384.626953125 657.34765625 412.641601562 585.12109375 412.641601562 579.162109375 c 1
 412.641601562 585.12109375 308.190429688 557.693359375 308.190429688 548.69140625 c 1
 308.190429688 558.69140625 372.965820312 467.8125 372.965820312 457.8125 c 1
 372.965820312 467.8125 299.154296875 413.08984375 299.154296875 403.08984375 c 1
 299.154296875 413.08984375 219.54584212 504.578125 219.54584212 494.578125 c 1
 219.54584212 504.578125 138.743164062 413.1328125 138.743164062 403.1328125 c 1
 138.743164062 413.1328125 64.9892578125 467.8125 64.9892578125 457.8125 c 1
 64.9892578125 467.8125 129.833984375 558.788085938 129.833984375 548.788085938 c 1
 129.833984375 557.7890625 25.2998046875 586.020507812 25.2998046875 580.15234375 c 1
 25.2998046875 586.020507812 53.359375 657.321289062 53.359375 659.366210938 c 1
 53.359375 657.321289062 162.226292189 629.08984375 162.226292189 628.001953125 c 1
EndSplineSet
EndChar

StartChar: plus
Encoding: 43 43 12
Width: 673
GlyphClass: 1
Flags: W
HStem: -20 21G<248.153 397.247> 162 139<55 248.153 397.247 590.4>
VStem: 248.153 149.094<-20 162 301 483>
LayerCount: 2
Fore
SplineSet
397.24739222 301 m 1
 590.400390625 301 l 1
 590.400390625 162 l 1
 397.24739222 162 l 1
 397.24739222 -20 l 1
 248.152998405 -20 l 1
 248.152998405 162 l 1
 55 162 l 1
 55 301 l 1
 248.152998405 301 l 1
 248.152998405 483 l 1
 397.24739222 483 l 1
 397.24739222 301 l 1
EndSplineSet
EndChar

StartChar: comma
Encoding: 44 44 13
Width: 319
GlyphClass: 1
Flags: W
HStem: -175.607 75.9424<70.4004 130.387> -20 166<70.4004 156.474>
VStem: 70.4004 170.234<-20.3411 146> 156.474 84.1611<-73.9443 -20>
LayerCount: 2
Fore
SplineSet
70.400390625 -20 m 1xe0
 70.400390625 -30 70.400390625 136 70.400390625 146 c 1
 240.400390625 146 l 1
 240.400390625 136 240.400390625 -10.81640625 240.400390625 -0.81640625 c 2
 240.556640625 -5.1689453125 240.634765625 -9.4482421875 240.634765625 -13.654296875 c 0
 240.634765625 -149.935546875 132.719726562 -167.313476562 70.400390625 -175.607421875 c 1
 70.400390625 -165.607421875 70.400390625 -89.6650390625 70.400390625 -99.6650390625 c 1xe0
 101.08203125 -95.1689453125 155.096679688 -87.25390625 156.473632812 -20 c 1xd0
 70.400390625 -20 l 1xe0
EndSplineSet
EndChar

StartChar: hyphen
Encoding: 45 45 14
Width: 373
GlyphClass: 1
Flags: W
HStem: 197 155<28.5996 320.6>
VStem: 28.5996 292<197 352>
LayerCount: 2
Fore
SplineSet
28.599609375 352 m 1
 320.599609375 352 l 1
 320.599609375 197 l 1
 28.599609375 197 l 1
 28.599609375 352 l 1
EndSplineSet
AlternateSubs2: "'aalt' Access All Alternates lookup 1 subtable" endash emdash minus
EndChar

StartChar: period
Encoding: 46 46 15
Width: 319
GlyphClass: 1
Flags: W
HStem: -20 166<70.4004 240.4>
VStem: 70.4004 170<-20.3411 146>
LayerCount: 2
Fore
SplineSet
70.400390625 146 m 1
 240.400390625 146 l 1
 240.400390625 136 240.400390625 -30 240.400390625 -20 c 1
 70.400390625 -20 l 1
 70.400390625 -30 70.400390625 136 70.400390625 146 c 1
EndSplineSet
Substitution2: "'aalt' Access All Alternates lookup 0 subtable" ellipsis
EndChar

StartChar: slash
Encoding: 47 47 16
Width: 331
GlyphClass: 1
Flags: W
HStem: -14 21G<-14.5 106.46> 694 20G<216.988 337.948>
VStem: 216.988 120.96<644.036 714>
LayerCount: 2
Fore
SplineSet
-14.5 -14 m 1
 -14.5 -4.267578125 216.98828125 704.267578125 216.98828125 714 c 1
 337.948242188 714 l 1
 337.948242188 704.267578125 106.459960938 -4.267578125 106.459960938 -14 c 1
 106.459960938 -4 -14.5 -4 -14.5 -14 c 1
EndSplineSet
Substitution2: "'dnom' Denominators lookup 4 subtable" fraction
Substitution2: "'numr' Numerators lookup 3 subtable" fraction
Substitution2: "'aalt' Access All Alternates lookup 0 subtable" fraction
EndChar

StartChar: zero
Encoding: 48 48 17
Width: 651
GlyphClass: 1
Flags: W
HStem: -23 140<242.206 369.766> 591 133<243.166 369.626>
VStem: 31.9004 162.77<171.317 534.322> 417.93 162.77<171.423 533.613>
LayerCount: 2
Fore
SplineSet
93.8134765625 631.361328125 m 0
 138.903320312 691.614257812 214.126896337 724 306.299770873 724 c 0
 406.913889719 724 485.224609375 686.469726562 529.212890625 617.109375 c 0
 564.942382812 560.819335938 580.700195312 473.389648438 580.700195312 346.1171875 c 0
 580.700195312 215.786132812 560.845703125 124.98828125 518.721679688 68.578125 c 0
 472.682617188 8.455078125 399.581576811 -23 306.299770873 -23 c 0
 205.685652027 -23 127.418945312 14.4619140625 83.431640625 83.822265625 c 0
 47.6376953125 139.190429688 31.900390625 226.61328125 31.900390625 350.012695312 c 0
 31.900390625 485.08984375 50.5693359375 574.862304688 93.8134765625 631.361328125 c 0
393.227671365 541.530273438 m 0
 374.870784308 574.123046875 344.686339815 591 306.299770873 591 c 0
 242.167615623 591 221.867488132 547.340820312 215.021768476 532.619140625 c 0
 203.531484905 507.908203125 194.670475601 431.015625 194.670475601 351.12109375 c 0
 194.670475601 260.551757812 204.818973059 189.9921875 219.371870381 164.55078125 c 0
 237.683857203 132.916992188 266.49832241 117 306.299770873 117 c 0
 349.105358361 117 380.207647206 136.263671875 397.58508261 173.475585938 c 0
 409.103559353 198.248046875 417.930110337 273.166992188 417.930110337 349.202148438 c 0
 417.930110337 442.66015625 407.728359111 516.182617188 393.227671365 541.530273438 c 0
EndSplineSet
Substitution2: "'sups' Superscript lookup 2 subtable" zerosuperior
Substitution2: "'aalt' Access All Alternates lookup 0 subtable" zerosuperior
EndChar

StartChar: one
Encoding: 49 49 18
Width: 643
GlyphClass: 1
Flags: W
HStem: -10 21G<255.911 424.8> 479 113<74.7998 224.801> 689 20G<309.06 424.8>
VStem: 255.911 168.889<-10 479> 314.08 110.72<663.999 709>
LayerCount: 2
Fore
SplineSet
255.910915799 -10 m 1xf0
 255.910915799 479 l 1xf0
 74.7998046875 479 l 1
 74.7998046875 592 l 1
 84.7998046875 592 l 2
 274.561740451 592 304.039496528 674.170898438 314.080078125 709 c 1
 424.799804688 709 l 1xe8
 424.799804688 699.13671875 424.799804688 -10 424.799804688 -10 c 1
 255.910915799 -10 l 1xf0
EndSplineSet
Substitution2: "'sups' Superscript lookup 2 subtable" onesuperior
Substitution2: "'aalt' Access All Alternates lookup 0 subtable" onesuperior
EndChar

StartChar: two
Encoding: 50 50 19
Width: 655
GlyphClass: 1
Flags: W
HStem: -20 145<254.925 579.965> 590 134<241.986 379.972>
VStem: 42.4648 160.633<441.564 551.574> 418.068 164.897<411.588 553.536>
LayerCount: 2
Fore
SplineSet
395.334499277 556.5625 m 0
 377.428142887 577.75 349.162970286 590 311.170552955 590 c 0
 274.328535248 590 203.097711372 576.83203125 203.097711372 475 c 2
 203.097711372 465 203.097711372 432 203.097711372 442 c 1
 42.46484375 442 l 1
 42.46484375 432 42.46484375 467 42.46484375 477 c 2
 42.46484375 562.416992188 69.85546875 629.7265625 123.696289062 672.392578125 c 0
 167.586691415 706.427734375 230.306437132 724 307.643147939 724 c 0
 482.094726562 724 582.96484375 631.962890625 582.96484375 489 c 0
 582.96484375 385.833007812 543.5625 328.426757812 412.42972998 240.731445312 c 0
 309.1223823 174.454101562 275.22108668 152.772460938 254.925197859 125 c 1
 579.96484375 125 l 1
 579.96484375 115 579.96484375 -30 579.96484375 -20 c 1
 33 -20 l 1
 34.880859375 21.3681640625 37.7275390625 81.8125 65.8642578125 136.955078125 c 0
 91.8427734375 187.865234375 135.752929688 228.493164062 208.969760267 274.412109375 c 0
 397.240696838 387.909179688 418.067940839 414.030273438 418.067940839 486 c 0
 418.067940839 515.818359375 409.743724325 539.513671875 395.334499277 556.5625 c 0
EndSplineSet
Substitution2: "'sups' Superscript lookup 2 subtable" twosuperior
Substitution2: "'aalt' Access All Alternates lookup 0 subtable" twosuperior
EndChar

StartChar: three
Encoding: 51 51 20
Width: 655
GlyphClass: 1
Flags: W
HStem: -23 140<229.156 381.089> 579 145<65.9707 384.694>
VStem: 418.921 162.55<154.659 267.153>
LayerCount: 2
Fore
SplineSet
460.336906554 392.569335938 m 0
 541.0859375 347.8125 581.470703125 297.36328125 581.470703125 212.689453125 c 0
 581.470703125 72.6875 480.87890625 -23 302.606593648 -23 c 0
 225.809102121 -23 162.278909701 -5.001953125 117.53515625 28.6259765625 c 0
 62.298828125 70.7705078125 32.5439453125 136.631835938 31.9716796875 217.928710938 c 2
 31.9716796875 227.928710938 31.900390625 238 31.900390625 228 c 1
 191.547774233 228 l 1
 193.834159585 192.5234375 198.701341552 117 306.134308763 117 c 0
 372.946873577 117 418.920967336 155.305664062 418.920967336 209.975585938 c 0
 418.920967336 255.40234375 387.339617163 290.807617188 336.421084581 302.287109375 c 0
 309.024132805 308.540039062 306.895393202 308.702148438 252.102533661 308.702148438 c 0
 249.10726445 308.702148438 245.955393502 308.701171875 242.632304656 308.701171875 c 2
 231.941626118 308.701171875 l 1
 231.941626118 310.33203125 231.941626118 409.16015625 231.941626118 411.80859375 c 1
 231.941626118 409.16015625 384.69409183 569.415039062 384.69409183 579 c 1
 65.970703125 579 l 1
 65.970703125 569 65.970703125 714 65.970703125 724 c 1
 560.470703125 724 l 1
 560.470703125 714.260742188 560.470703125 582.994140625 560.470703125 589.21875 c 1
 560.470703125 582.994140625 418.740353333 411.020507812 418.740353333 412.640625 c 1
 432.604827062 405.94921875 446.478696894 399.266601562 460.336906554 392.569335938 c 0
EndSplineSet
Substitution2: "'sups' Superscript lookup 2 subtable" threesuperior
Substitution2: "'aalt' Access All Alternates lookup 0 subtable" threesuperior
EndChar

StartChar: four
Encoding: 52 52 21
Width: 645
GlyphClass: 1
Flags: W
HStem: -10 21G<339.055 506.8> 147 136<154.574 339.055 506.8 580.8> 689 20G<314.467 506.8>
VStem: 339.055 167.745<-10 147 283 542.892>
LayerCount: 2
Fore
SplineSet
506.799804688 283 m 1
 580.799804688 283 l 1
 580.799804688 147 l 1
 506.799804688 147 l 1
 506.799804688 -10 l 1
 339.055224056 -10 l 1
 339.055224056 147 l 1
 26.400390625 147 l 1
 26.400390625 147 26.400390625 273.345703125 26.400390625 275.59375 c 1
 26.400390625 273.345703125 314.466648317 699.174804688 314.466648317 709 c 1
 506.799804688 709 l 1
 506.799804688 699.229492188 506.799804688 283 506.799804688 283 c 1
154.573638624 283 m 1
 339.055224056 283 l 1
 339.055224056 542.891601562 l 1
 154.573638624 283 l 1
EndSplineSet
Substitution2: "'sups' Superscript lookup 2 subtable" foursuperior
Substitution2: "'aalt' Access All Alternates lookup 0 subtable" foursuperior
EndChar

StartChar: five
Encoding: 53 53 22
Width: 653
GlyphClass: 1
Flags: W
HStem: -23 140<221.296 374.08> 358 131<226.871 372.632> 564 145<227.145 554.863>
VStem: 420.134 162.729<162.274 312.018>
LayerCount: 2
Fore
SplineSet
114.330078125 709 m 1
 554.86328125 709 l 1
 554.86328125 699 554.86328125 554 554.86328125 564 c 1
 227.145204579 564 l 1
 227.145204579 554.8515625 205.706710184 456.595703125 205.706710184 456.595703125 c 1
 247.251551764 479.500976562 286.598402604 489 335.637485035 489 c 0
 488.643554688 489 582.86328125 386.553710938 582.86328125 238.884765625 c 0
 582.86328125 83.5224609375 473.774414062 -23 294.51096063 -23 c 0
 131.877929688 -23 31.9638671875 64.6572265625 29.8642578125 194.8359375 c 2
 29.8642578125 204.8359375 29.7001953125 215 29.7001953125 205 c 1
 191.788536264 205 l 1
 193.171799539 182.631835938 195.013021018 152.868164062 226.421234208 133.256835938 c 0
 243.01204803 122.896484375 266.432593876 117 296.861256376 117 c 0
 340.585311366 117 373.197360016 131.025390625 393.926488629 155.4296875 c 0
 410.605973175 175.067382812 420.134424725 202.250976562 420.134424725 236.059570312 c 0
 420.134424725 271.209960938 410.563202591 299.130859375 393.87015664 319.143554688 c 0
 373.137898472 343.997070312 340.582181811 358 296.861256376 358 c 0
 249.164753006 358 216.279389893 340.533203125 200.774531628 309.745117188 c 2
 197.881779696 304 l 1
 48.140625 304 l 1
 48.140625 304 114.330078125 699.241210938 114.330078125 709 c 1
EndSplineSet
Substitution2: "'sups' Superscript lookup 2 subtable" fivesuperior
Substitution2: "'aalt' Access All Alternates lookup 0 subtable" fivesuperior
EndChar

StartChar: six
Encoding: 54 54 23
Width: 652
GlyphClass: 1
Flags: W
HStem: -23 140<240.223 382.917> 346 131<245.369 386.374> 591 133<251.03 394.09>
VStem: 35.2002 160.633<160.693 413.033 427.447 524.262> 428.513 155.287<164.645 303.474>
LayerCount: 2
Fore
SplineSet
573.4375 528 m 1
 421.641810367 528 l 1
 404.519432657 564.389648438 387.660203035 591 326.288221408 591 c 0
 272.755337755 591 237.186487994 569.872070312 216.220268585 525.020507812 c 0
 205.584700068 501.618164062 202.03428937 484.00390625 199.686841356 427.447265625 c 1
 245.925719502 462.87109375 291.5547624 477 353.341306687 477 c 0
 495.689453125 477 583.799804688 379.43359375 583.799804688 241.706054688 c 0
 583.799804688 85.18359375 483.444335938 -23 316.878588821 -23 c 0
 215.112331599 -23 130.875976562 16.181640625 87.7392578125 83.810546875 c 0
 50.1728515625 141.739257812 35.2001953125 217.875976562 35.2001953125 337.3515625 c 0
 35.2001953125 463.752929688 52.376953125 542.942382812 95.640625 612.1640625 c 0
 140.677734375 684.58984375 224.55329134 724 330.992515583 724 c 0
 382.478691893 724 481.6953125 713.576171875 535.963867188 638.7734375 c 0
 561.83984375 601.3984375 566.943359375 570.676757812 573.4375 528 c 1
428.512899305 231.979492188 m 0
 428.512899305 303.428710938 383.64615047 346 312.173250408 346 c 0
 243.399706715 346 195.83360151 299.6171875 195.83360151 230.0625 c 0
 195.83360151 161.6640625 243.135514389 117 312.173250408 117 c 0
 378.585770987 117 428.512899305 164.534179688 428.512899305 231.979492188 c 0
EndSplineSet
Substitution2: "'sups' Superscript lookup 2 subtable" sixsuperior
Substitution2: "'aalt' Access All Alternates lookup 0 subtable" sixsuperior
EndChar

StartChar: seven
Encoding: 55 55 24
Width: 655
GlyphClass: 1
Flags: W
HStem: -20 21G<134.562 318.813> 564 145<31.9004 410.712>
VStem: 134.562 170.651<-20 95.8309>
LayerCount: 2
Fore
SplineSet
31.900390625 709 m 1
 596.799804688 709 l 1
 596.799804688 699 596.799804688 575.323242188 596.799804688 585.323242188 c 1
 400.858441661 360.62890625 332.412668175 193.345703125 305.21396988 -20 c 1
 134.5625 -20 l 1
 151.397460938 113.794921875 173.388163555 216.108398438 243.311618167 341.534179688 c 0
 273.62385303 398.7421875 356.439555152 507.845703125 410.712077279 564 c 1
 31.900390625 564 l 1
 31.900390625 554 31.900390625 699 31.900390625 709 c 1
EndSplineSet
Substitution2: "'sups' Superscript lookup 2 subtable" sevensuperior
Substitution2: "'aalt' Access All Alternates lookup 0 subtable" sevensuperior
EndChar

StartChar: eight
Encoding: 56 56 25
Width: 652
GlyphClass: 1
Flags: W
HStem: -23 140<228.661 385.086> 320 115<227.36 386.445> 591 133<229.556 388.865>
VStem: 24.2002 162.62<156.616 281.554> 48.2002 146.825<464.4 560.035> 421.019 144.481<465.979 560.333> 426.88 162.62<156.471 281.342>
LayerCount: 2
Fore
SplineSet
48.2001953125 526.29296875 m 0xe8
 48.2001953125 642.11328125 151.051087635 724 307.436439975 724 c 0
 462.658472506 724 565.5 642.133789062 565.5 527.267578125 c 0xec
 565.5 480.147460938 547.67578125 435.60546875 516.22265625 407.084960938 c 0
 507.232421875 399.124023438 498.14453125 392.959960938 483.780273438 384.908203125 c 1
 557.1015625 341.41015625 589.5 287.620117188 589.5 207.8203125 c 0
 589.5 71.201171875 480.59375 -23 307.436439975 -23 c 0
 133.13671875 -23 24.2001953125 71.18359375 24.2001953125 207.8203125 c 0xf2
 24.2001953125 287.69140625 56.6572265625 341.506835938 130.1171875 385.025390625 c 1
 74.3017578125 418.396484375 48.2001953125 462.295898438 48.2001953125 526.29296875 c 0xe8
421.019323347 513 m 0
 421.019323347 558.081054688 377.611262136 591 308.608084075 591 c 0
 238.305275923 591 195.025200702 557.965820312 195.025200702 513.939453125 c 0
 195.025200702 467.879882812 238.417653865 435 308.608084075 435 c 0
 376.370942627 435 421.019323347 468.932617188 421.019323347 513 c 0
426.87962492 215.1640625 m 0xf2
 426.87962492 280.658203125 381.974231685 320 306.263755338 320 c 0
 231.71347719 320 186.820570392 280.579101562 186.820570392 217.0703125 c 0
 186.820570392 155.665039062 231.503288817 117 306.263755338 117 c 0
 381.204234674 117 426.87962492 155.908203125 426.87962492 215.1640625 c 0xf2
EndSplineSet
Substitution2: "'sups' Superscript lookup 2 subtable" eightsuperior
Substitution2: "'aalt' Access All Alternates lookup 0 subtable" eightsuperior
EndChar

StartChar: nine
Encoding: 57 57 26
Width: 655
GlyphClass: 1
Flags: W
HStem: -24 140<221.526 364.754> 218 136<228.22 371.664> 590 134<227.827 370.576>
VStem: 30.7998 156.643<395.85 548.409> 200.738 0.773061<176.261 185> 415.206 168.394<188.358 272.979 292.794 540.986>
LayerCount: 2
Fore
SplineSet
40.8037109375 174.720703125 m 2
 40.8037109375 184.720703125 40.5205078125 195 40.5205078125 185 c 1
 200.73789649 185 l 1
 200.73789649 195 201.510957807 185.79296875 201.510957807 175.79296875 c 2
 204.476967688 140.458984375 236.411389943 116 291.923660711 116 c 0
 350.012802533 116 411.731472451 139.30859375 418.183039495 272.979492188 c 1
 404.13648408 259.79296875 395.467973315 252.659179688 383.488131082 245.58984375 c 0
 355.250006052 228.150390625 313.595459257 218 269.595646823 218 c 0
 120.669921875 218 30.7998046875 321.760742188 30.7998046875 469.0390625 c 0
 30.7998046875 619.141601562 132.551757812 724 301.324545354 724 c 0
 404.4098202 724 486.3125 683.33203125 533.17578125 606.291015625 c 0
 567.66796875 551.280273438 583.599609375 471.654296875 583.599609375 369.479492188 c 0
 583.599609375 257.248046875 561.72265625 151.790039062 523.244140625 87.9775390625 c 0
 479.196289062 14.4345703125 396.931677805 -24 287.222696755 -24 c 0
 141.809570312 -24 43.9794921875 59.3310546875 40.8037109375 174.720703125 c 2
415.205553669 469.122070312 m 0
 415.205553669 545.774414062 370.122829432 590 296.623581399 590 c 0
 229.577986945 590 187.442493772 546.256835938 187.442493772 471.041015625 c 0
 187.442493772 396.134765625 230.359394402 354 298.974063377 354 c 0
 369.031571487 354 415.205553669 398.532226562 415.205553669 469.122070312 c 0
EndSplineSet
Substitution2: "'sups' Superscript lookup 2 subtable" ninesuperior
Substitution2: "'aalt' Access All Alternates lookup 0 subtable" ninesuperior
EndChar

StartChar: colon
Encoding: 58 58 27
Width: 378
GlyphClass: 1
Flags: W
HStem: -10 166<124.3 294.3> 364 166<124.3 294.3>
VStem: 124.3 170<-10 156 364 530>
LayerCount: 2
Fore
SplineSet
124.299804688 156 m 1
 294.299804688 156 l 1
 294.299804688 -10 l 1
 124.299804688 -10 l 1
 124.299804688 156 l 1
124.299804688 530 m 1
 294.299804688 530 l 1
 294.299804688 364 l 1
 124.299804688 364 l 1
 124.299804688 530 l 1
EndSplineSet
EndChar

StartChar: semicolon
Encoding: 59 59 28
Width: 376
GlyphClass: 1
Flags: W
HStem: -175.607 75.9424<124.3 180.735> -10 166<124.3 210.373> 364 166<124.3 294.3>
VStem: 124.3 170.234<-10 156 364 530> 210.373 84.1611<-69.6972 -10>
LayerCount: 2
Fore
SplineSet
124.299804688 -10 m 1xf0
 124.299804688 156 l 1
 294.299804688 156 l 1
 294.299804688 156 294.299804688 17.6533203125 294.299804688 13.4814453125 c 2
 294.456054688 9.2568359375 294.534179688 5.1025390625 294.534179688 1.01953125 c 0
 294.534179688 -147.610351562 186.619140625 -166.561523438 124.299804688 -175.607421875 c 1
 124.299804688 -165.607421875 124.299804688 -89.6650390625 124.299804688 -99.6650390625 c 1xf0
 154.981445312 -94.6044921875 208.99609375 -85.6953125 210.373046875 -10 c 1xe8
 124.299804688 -10 l 1xf0
124.299804688 530 m 1
 294.299804688 530 l 1
 294.299804688 364 l 1
 124.299804688 364 l 1
 124.299804688 530 l 1
EndSplineSet
EndChar

StartChar: less
Encoding: 60 60 29
Width: 686
GlyphClass: 1
Flags: W
HStem: -14.1523 21G<597.9 597.9>
LayerCount: 2
Fore
SplineSet
44 310.08203125 m 1
 44 320.08203125 597.900390625 508.125976562 597.900390625 498.125976562 c 1
 597.900390625 508.125976562 597.900390625 377.74609375 597.900390625 367.74609375 c 1
 597.900390625 377.74609375 195.415697301 252.072265625 195.415697301 242.072265625 c 1
 195.415697301 252.072265625 597.900390625 128.288085938 597.900390625 118.288085938 c 1
 597.900390625 128.288085938 597.900390625 -4.15234375 597.900390625 -14.15234375 c 1
 597.900390625 -4.15234375 44 184.930664062 44 174.930664062 c 1
 44 184.930664062 44 320.08203125 44 310.08203125 c 1
EndSplineSet
EndChar

StartChar: equal
Encoding: 61 61 30
Width: 685
GlyphClass: 1
Flags: W
HStem: 42 139<55 603.4> 282 139<55 603.4>
LayerCount: 2
Fore
SplineSet
55 421 m 1
 603.400390625 421 l 1
 603.400390625 282 l 1
 55 282 l 1
 55 421 l 1
55 181 m 1
 603.400390625 181 l 1
 603.400390625 42 l 1
 55 42 l 1
 55 181 l 1
EndSplineSet
EndChar

StartChar: greater
Encoding: 62 62 31
Width: 686
GlyphClass: 1
Flags: W
HStem: -14.126 21G<44 44>
LayerCount: 2
Fore
SplineSet
597.900390625 173.91796875 m 1
 597.900390625 183.91796875 44 -4.1259765625 44 -14.1259765625 c 1
 44 -4.1259765625 44 126.25390625 44 116.25390625 c 1
 44 126.25390625 446.484693324 251.927734375 446.484693324 241.927734375 c 1
 446.484693324 251.927734375 44 375.711914062 44 365.711914062 c 1
 44 375.711914062 44 508.15234375 44 498.15234375 c 1
 44 508.15234375 597.900390625 319.069335938 597.900390625 309.069335938 c 1
 597.900390625 319.069335938 597.900390625 183.91796875 597.900390625 173.91796875 c 1
EndSplineSet
EndChar

StartChar: question
Encoding: 63 63 32
Width: 715
GlyphClass: 1
Flags: W
HStem: -10 166<250.405 431.84> 606 138<277.454 417.506>
VStem: 70.4004 160.26<461 556.605> 250.405 181.435<-10 156> 461.724 165.999<443.115 563.07>
LayerCount: 2
Fore
SplineSet
429.065906412 191 m 2
 429.065906412 181 429.065906412 171 429.065906412 181 c 1
 262.550354948 181 l 1
 261.95105947 195.462890625 261.846834169 197.998046875 261.846834169 204.874023438 c 0
 261.846834169 284.508789062 293.670987447 332.478515625 383.809196396 396.99609375 c 0
 451.848514865 445.696289062 461.723862094 461.814453125 461.723862094 501 c 0
 461.723862094 561.62109375 413.808364661 606 350.300762261 606 c 0
 276.144460902 606 230.660539731 557.3671875 230.660539731 471 c 2
 230.660539731 461 230.660539731 451 230.660539731 461 c 1
 70.400390625 461 l 1
 71.2353515625 529.502929688 75.322265625 592.029296875 119.477539062 650.936523438 c 0
 164.838867188 713.134765625 242.479688816 744 345.60541247 744 c 0
 519.930664062 744 627.72265625 646.130859375 627.72265625 504 c 0
 627.72265625 414.581054688 598.404296875 366.3671875 502.996038869 301.693359375 c 0
 436.244945116 259.1640625 429.065906412 252.19921875 429.065906412 191 c 2
250.404980672 156 m 1
 431.840383913 156 l 1
 431.840383913 -10 l 1
 250.404980672 -10 l 1
 250.404980672 156 l 1
EndSplineSet
EndChar

StartChar: at
Encoding: 64 64 33
Width: 1135
GlyphClass: 1
Flags: W
HStem: -137 98<390.766 708.866> 46 101<429.346 551.308 731.842 836.491> 437 91<495.927 622.139> 648 97<417.375 714.43>
VStem: 29.7002 117<160.41 383.716> 277.357 120.064<180.51 329.853> 944.4 109<270.26 465.496>
LayerCount: 2
Fore
SplineSet
705.628680635 518 m 1
 828.857458873 518 l 1
 736.753051555 225.095703125 l 2
 728.638748273 199.0390625 728.153713965 197.481445312 728.153713965 189.626953125 c 0
 728.153713965 188.560546875 728.162733198 187.376953125 728.162733198 186 c 0
 728.162733198 161.8671875 743.775025508 147 773.211797721 147 c 0
 807.970919537 147 853.296573872 172.676757812 889.39054217 215.2734375 c 0
 925.159818081 259.484375 944.400390625 314.331054688 944.400390625 370 c 0
 944.400390625 445.518554688 910.618810223 508.423828125 837.897736742 565.114257812 c 0
 760.743209178 620.997070312 671.892740695 648 563.254075028 648 c 0
 425.367038903 648 329.99165642 600.5625 260.146716126 528.670898438 c 0
 227.663447436 495.236328125 146.700195312 402.0234375 146.700195312 267.088867188 c 0
 146.700195312 146.0546875 218.136130985 76.53125 275.623719941 37.830078125 c 0
 300.954736869 19.6474609375 387.554405651 -39 535.033897132 -39 c 0
 615.014451034 -39 700.989788466 -24.111328125 764.959199533 0.314453125 c 2
 764.959199533 10.314453125 774.265043707 13.8681640625 774.265043707 3.8681640625 c 1
 774.265043707 13.8681640625 813.816384653 -77.48046875 813.816384653 -87.48046875 c 1
 758.001362348 -109.377929688 680.818774947 -137 532.776082473 -137 c 0
 387.89212582 -137 285.474726643 -106.380859375 191.195682037 -40.0263671875 c 1
 88.27734375 33.9208984375 29.7001953125 146.920898438 29.7001953125 262.297851562 c 0
 29.7001953125 382.518554688 83.296875 510.73828125 181.170303497 601.8515625 c 0
 280.120308657 692.359375 405.625942157 745 567.768702209 745 c 0
 705.497400688 745 835.233054462 709.040039062 936.932617188 623.015625 c 0
 1016.23144531 552.232421875 1053.40039062 466.000976562 1053.40039062 355 c 0
 1053.40039062 264.1015625 1022.49609375 192.641601562 968.770507812 133.239257812 c 0
 939.5078125 100.884765625 869.751663398 46 773.211797721 46 c 0
 734.258732564 46 697.434206393 55.373046875 667.249839978 73.5576171875 c 0
 648.458769107 85.2099609375 637.207777018 95.8818359375 628.576371044 113.139648438 c 1
 583.495238137 70.8408203125 522.913050127 46 462.789840863 46 c 0
 356.846923723 46 277.35741695 126.671875 277.35741695 227 c 0
 277.35741695 297.672851562 307.009648618 374.638671875 355.650372146 433.372070312 c 0
 406.232235041 492.897460938 486.877205774 528 566.640295948 528 c 0
 623.78214764 528 663.565984369 509.8515625 691.859318267 470.732421875 c 1
 705.628680635 518 l 1
647.811388606 345 m 0
 647.811388606 403.76171875 615.942429896 437 563.254075028 437 c 0
 481.571892501 437 397.421446545 342.6484375 397.421446545 244 c 0
 397.421446545 187.614257812 436.35847751 147 487.623797839 147 c 0
 516.560503689 147 554.070491568 164.583007812 579.491700825 190.857421875 c 0
 619.437883749 231.983398438 647.811388606 297.348632812 647.811388606 345 c 0
EndSplineSet
EndChar

StartChar: A
Encoding: 65 65 34
Width: 840
GlyphClass: 1
Flags: W
HStem: -0 21G<28.5996 202.948 615.926 791.18> 137 145<315.85 505.389> 709 20G<310.821 517.428>
LayerCount: 2
Fore
SplineSet
202.948242188 -0 m 1
 28.599609375 -0 l 1
 28.599609375 9.7333984375 310.820817319 719.266601562 310.820817319 729 c 1
 310.820817319 719 517.428120247 719 517.428120247 729 c 1
 517.428120247 719.266601562 791.1796875 9.7333984375 791.1796875 -0 c 1
 791.1796875 10 615.92578125 10 615.92578125 -0 c 1
 615.92578125 9.3193359375 560.438810023 137 560.438810023 137 c 1
 259.591812016 137 l 1
 259.591812016 137 202.948242188 9.3193359375 202.948242188 -0 c 1
410.619780031 527.946289062 m 1
 315.849506889 282 l 1
 505.38902691 282 l 1
 410.619780031 527.946289062 l 1
EndSplineSet
EndChar

StartChar: B
Encoding: 66 66 35
Width: 835
GlyphClass: 1
Flags: W
HStem: 0 145<262.745 548.034> 304 145<262.745 529.452> 584 145<262.745 531.156>
VStem: 90.2002 172.545<145 304 449 584> 552.685 167.415<471.069 562.479> 576.961 166.239<171.769 276.816>
LayerCount: 2
Fore
SplineSet
457.99999006 0 m 2xf4
 90.2001953125 0 l 1
 90.2001953125 9.7333984375 90.2001953125 719.266601562 90.2001953125 729 c 1
 454.532256381 729 l 2
 545.929975747 729 604.505837011 712.920898438 650.692382812 674.998046875 c 0
 693.724609375 638.22265625 720.099609375 585.185546875 720.099609375 532.393554688 c 0xf8
 720.099609375 472.209960938 692.646484375 429.469726562 628.818359375 386.7890625 c 1
 704.50390625 340.583984375 743.200195312 284.381835938 743.200195312 214.125976562 c 0
 743.200195312 153.750976562 714.09765625 91.896484375 667.629882812 53.8662109375 c 0
 620.997840629 15.787109375 556.170001392 0 457.99999006 0 c 2xf4
440.660295404 449 m 2
 547.36776648 449 552.684821287 495.561523438 552.684821287 516.965820312 c 0
 552.684821287 536.211914062 548.854817708 584 440.660295404 584 c 2
 262.744724575 584 l 1
 262.744724575 574.689453125 262.744724575 449 262.744724575 449 c 1
 440.660295404 449 l 2
459.1555592 145 m 2
 569.927021211 145 576.961009562 198.231445312 576.961009562 224.029296875 c 0xf4
 576.961009562 252.234375 568.319897523 304 459.1555592 304 c 2
 262.744724575 304 l 1
 262.744724575 304 262.744724575 154.408203125 262.744724575 145 c 1
 459.1555592 145 l 2
EndSplineSet
EndChar

StartChar: C
Encoding: 67 67 36
Width: 842
GlyphClass: 1
Flags: W
HStem: -23 146<323.942 520.44> 593 148<328.58 523.738>
VStem: 48.4004 172.18<236.091 475.91> 595.829 1.08845<260.652 269> 766.485 0.568359<258.923 269>
LayerCount: 2
Fore
SplineSet
764.325195312 462 m 1
 598.020539039 462 l 1
 583.337696764 518.916992188 556.20801943 593 427.109686709 593 c 0
 354.874627726 593 299.976268259 566.129882812 264.736223824 517.1484375 c 0
 236.416183486 477.78515625 220.580686626 423.359375 220.580686626 356.08203125 c 0
 220.580686626 289.612304688 235.763929786 236.010742188 263.141259698 197.344726562 c 0
 297.189921985 149.255859375 350.407709027 123 421.369854149 123 c 0
 523.937767622 123 584.978522478 172.278320312 595.829374266 260.184570312 c 2
 595.829374266 270.184570312 596.917822628 279 596.917822628 269 c 1
 767.053710938 269 l 1
 767.053710938 279 766.485351562 268.454101562 766.485351562 258.454101562 c 2
 757.170898438 85.6181640625 629.733317763 -23 416.778599588 -23 c 0
 286.033326275 -23 184.58341641 22.095703125 122.702148438 103.192382812 c 0
 73.8466796875 167.924804688 48.400390625 254.703125 48.400390625 358.025390625 c 0
 48.400390625 461.786132812 74.0478515625 549.008789062 123.432617188 614.092773438 c 0
 186.035700039 695.626953125 288.681068639 741 421.369854149 741 c 0
 548.757040053 741 654.046875 699.239257812 712.481445312 622.022460938 c 0
 754.622070312 566.288085938 760.143554688 514.690429688 764.325195312 462 c 1
EndSplineSet
EndChar

StartChar: D
Encoding: 68 68 37
Width: 835
GlyphClass: 1
Flags: W
HStem: 0 145<257.113 500.34> 584 145<257.113 500.836>
VStem: 84.7002 172.413<145 584> 586.686 172.413<241.307 487.447>
LayerCount: 2
Fore
SplineSet
402.297698523 0 m 2
 84.7001953125 0 l 1
 84.7001953125 9.7333984375 84.7001953125 719.266601562 84.7001953125 729 c 1
 402.297698523 729 l 2
 532.629295223 729 615.027445872 704.201171875 668.8125 643.702148438 c 0
 727.666015625 574.361328125 759.099609375 476.715820312 759.099609375 364.986328125 c 0
 759.099609375 252.30859375 727.650390625 154.58984375 668.731445312 86.1767578125 c 0
 614.962953152 25.7001953125 531.565677197 0 402.297698523 0 c 2
402.297698523 145 m 2
 492.637666925 145 586.68647855 180.891601562 586.68647855 364.021484375 c 0
 586.68647855 547.176757812 493.766801365 584 402.297698523 584 c 2
 257.113326138 584 l 1
 257.113326138 574.435546875 257.113326138 154.564453125 257.113326138 145 c 1
 402.297698523 145 l 2
EndSplineSet
EndChar

StartChar: E
Encoding: 69 69 38
Width: 774
GlyphClass: 1
Flags: W
HStem: 0 145<259.737 699.4> 304 145<259.737 653.4> 584 145<259.737 681.4>
VStem: 86.9004 172.837<145 304 449 584>
LayerCount: 2
Fore
SplineSet
259.737270058 584 m 1
 259.737270058 574.689453125 259.737270058 449 259.737270058 449 c 1
 653.400390625 449 l 1
 653.400390625 304 l 1
 259.737270058 304 l 1
 259.737270058 304 259.737270058 154.408203125 259.737270058 145 c 1
 699.400390625 145 l 1
 699.400390625 155 699.400390625 10 699.400390625 0 c 1
 86.900390625 0 l 1
 86.900390625 9.7333984375 86.900390625 719.266601562 86.900390625 729 c 1
 681.400390625 729 l 1
 681.400390625 719 681.400390625 574 681.400390625 584 c 1
 259.737270058 584 l 1
EndSplineSet
EndChar

StartChar: F
Encoding: 70 70 39
Width: 710
GlyphClass: 1
Flags: W
HStem: 0 21G<81.4004 254.563> 304 145<254.563 614.6> 584 145<254.563 657.6>
VStem: 81.4004 173.163<0 304 449 584>
LayerCount: 2
Fore
SplineSet
254.562953784 584 m 1
 254.562953784 574.689453125 254.562953784 449 254.562953784 449 c 1
 614.599609375 449 l 1
 614.599609375 304 l 1
 254.562953784 304 l 1
 254.562953784 304 254.562953784 9.681640625 254.562953784 0 c 1
 81.400390625 0 l 1
 81.400390625 9.7333984375 81.400390625 719.266601562 81.400390625 729 c 1
 657.599609375 729 l 1
 657.599609375 719 657.599609375 574 657.599609375 584 c 1
 254.562953784 584 l 1
EndSplineSet
EndChar

StartChar: G
Encoding: 71 71 40
Width: 867
GlyphClass: 1
Flags: HW
LayerCount: 2
Fore
SplineSet
798.099609375 270.103515625 m 6
 798.099609375 84.658203125 656.761705094 -23.02734375 435.631672248 -23.02734375 c 4
 193.357246062 -23.02734375 46.2001953125 143.424804688 46.2001953125 359 c 4
 46.2001953125 585 197.331473396 741 443.29966495 741 c 4
 648.124289514 741 779.306640625 644.254882812 798.029296875 487.194335938 c 6
 798.029296875 477.194335938 799.36328125 466 799.36328125 476 c 5
 636.401792322 476 l 5
 621.901095813 513.033203125 613.65795285 530.180664062 585.611756378 551.18359375 c 4
 550.065234684 578.474609375 502.153998545 593 444.443868473 593 c 4
 365.722462877 593 306.295011353 566.1015625 268.51393944 518.041015625 c 4
 238.174255091 479.446289062 221.349585707 426.340820312 221.349585707 360.91796875 c 4
 221.349585707 221.223632812 315.843928319 125 449.022714896 125 c 4
 511.46513254 125 572.844639985 148.2890625 611.952825398 187.104492188 c 4
 633.424424363 207.713867188 643.881794214 226.470703125 648.966691574 257 c 5
 460.365165803 257 l 5
 460.365165803 402 l 5
 798.099609375 402 l 5
 798.099609375 402 798.099609375 273.134765625 798.099609375 270.103515625 c 6
EndSplineSet
EndChar

StartChar: H
Encoding: 72 72 41
Width: 836
GlyphClass: 1
Flags: W
HStem: 0 21G<74.7998 244.8 562.6 732.6> 321 145<244.8 561.6> 709 20G<74.7998 244.8 561.6 732.6>
VStem: 74.7998 170<0 321 466 729> 562.6 170<0 321 466 729>
LayerCount: 2
Fore
SplineSet
244.799804688 466 m 1
 561.599609375 466 l 1
 561.599609375 466 561.599609375 719.366210938 561.599609375 729 c 1
 732.599609375 729 l 1
 732.599609375 719.266601562 732.599609375 9.7333984375 732.599609375 0 c 1
 562.599609375 0 l 1
 562.599609375 9.6982421875 562.599609375 321 562.599609375 321 c 1
 244.799804688 321 l 1
 244.799804688 321 244.799804688 9.6982421875 244.799804688 0 c 1
 74.7998046875 0 l 1
 74.7998046875 9.7333984375 74.7998046875 719.266601562 74.7998046875 729 c 1
 244.799804688 729 l 1
 244.799804688 719.366210938 244.799804688 466 244.799804688 466 c 1
EndSplineSet
EndChar

StartChar: I
Encoding: 73 73 42
Width: 319
GlyphClass: 1
Flags: W
HStem: 0 21G<69.2998 239.3> 709 20G<69.2998 239.3>
VStem: 69.2998 170<0 729>
LayerCount: 2
Fore
SplineSet
69.2998046875 729 m 1
 239.299804688 729 l 1
 239.299804688 719.266601562 239.299804688 9.7333984375 239.299804688 0 c 1
 69.2998046875 0 l 1
 69.2998046875 9.7333984375 69.2998046875 719.266601562 69.2998046875 729 c 1
EndSplineSet
EndChar

StartChar: J
Encoding: 74 74 43
Width: 649
GlyphClass: 1
Flags: W
HStem: -23 148<219.034 347.007> 709 20G<52.4004 544.6>
VStem: 26.4004 173.873<143.292 290.402> 370.727 173.873<150.073 587.712>
LayerCount: 2
Fore
SplineSet
200.273369036 290 m 1
 200.273369036 300 200.273369036 220 200.273369036 210 c 2
 200.273369036 145.4453125 227.343488481 125 285.5 125 c 0
 341.043882507 125 370.726630964 160.447265625 370.726630964 197.595703125 c 2
 370.726630964 204.94921875 370.726630964 582.560546875 370.726630964 587.711914062 c 1
 370.726630964 582.560546875 52.400390625 583.497070312 52.400390625 588.6796875 c 1
 52.400390625 583.497070312 52.400390625 719.3203125 52.400390625 729 c 1
 544.599609375 729 l 1
 544.599609375 719.258789062 544.599609375 198.3359375 544.599609375 194.22265625 c 2
 544.599609375 118.342773438 517.227539062 58.9677734375 463.872070312 21.7255859375 c 0
 421.136797423 -7.9296875 358.838800689 -23 281.944593866 -23 c 0
 198.268915445 -23 134.881835938 -2.39453125 90.5927734375 37.677734375 c 0
 45.36328125 79.751953125 26.400390625 130.34765625 26.400390625 208 c 2
 26.400390625 218 26.400390625 300 26.400390625 290 c 1
 200.273369036 290 l 1
EndSplineSet
EndChar

StartChar: K
Encoding: 75 75 44
Width: 832
GlyphClass: 1
Flags: W
HStem: 0 21G<81.4004 251.4 602.057 806.772> 709 20G<81.4004 251.4 570.701 778.468>
VStem: 81.4004 170<0 274.949 423.254 729>
LayerCount: 2
Fore
SplineSet
251.400390625 249.6953125 m 1
 251.400390625 259.6953125 251.400390625 10 251.400390625 0 c 1
 81.400390625 0 l 1
 81.400390625 9.7333984375 81.400390625 719.266601562 81.400390625 729 c 1
 251.400390625 729 l 1
 251.400390625 719 251.400390625 413.494140625 251.400390625 423.494140625 c 1
 251.400390625 413.494140625 570.701171875 719 570.701171875 729 c 1
 570.701171875 719 778.467773438 719 778.467773438 729 c 1
 778.467773438 719.266601562 455.652084242 411.767578125 455.652084242 413.064453125 c 1
 455.652084242 411.767578125 806.772460938 9.7333984375 806.772460938 -0 c 1
 806.772460938 10 602.056640625 10 602.056640625 -0 c 1
 602.056640625 10 327.284154584 327.34765625 327.284154584 317.34765625 c 1
 327.284154584 327.34765625 251.400390625 259.6953125 251.400390625 249.6953125 c 1
EndSplineSet
EndChar

StartChar: L
Encoding: 76 76 45
Width: 710
GlyphClass: 1
Flags: W
HStem: 0 145<258 649.9> 709 20G<88 258>
VStem: 88 170<145 729>
LayerCount: 2
Fore
SplineSet
258 729 m 1
 258 719.331054688 258 154.668945312 258 145 c 1
 649.900390625 145 l 1
 649.900390625 155 649.900390625 10 649.900390625 0 c 1
 88 0 l 1
 88 9.7333984375 88 719.266601562 88 729 c 1
 258 729 l 1
EndSplineSet
EndChar

StartChar: M
Encoding: 77 77 46
Width: 985
GlyphClass: 1
Flags: W
HStem: 0 21G<72.5996 242.6 388.918 554.314 713.6 883.6> 709 20G<72.5996 321.905 612.233 863.6>
VStem: 72.5996 170<0 498.011> 713.6 170<0 329.43>
LayerCount: 2
Fore
SplineSet
554.314453125 -0 m 1
 388.91796875 -0 l 1
 388.91796875 10 242.599609375 507.91015625 242.599609375 497.91015625 c 1
 242.599609375 507.91015625 242.599609375 10 242.599609375 0 c 1
 72.599609375 0 l 1
 72.599609375 9.7333984375 72.599609375 719.266601562 72.599609375 729 c 1
 321.905273438 729 l 1
 321.905273438 719 472.060546875 170.783203125 472.060546875 180.783203125 c 1
 472.060546875 170.783203125 612.233398438 719 612.233398438 729 c 1
 863.599609375 729 l 1
 863.599609375 719.266601562 883.599609375 9.7333984375 883.599609375 0 c 1
 713.599609375 0 l 1
 713.599609375 10 693.599609375 514.233398438 693.599609375 504.233398438 c 1
 693.599609375 514.233398438 554.314453125 10 554.314453125 -0 c 1
EndSplineSet
EndChar

StartChar: N
Encoding: 78 78 47
Width: 836
GlyphClass: 1
Flags: W
HStem: 0 21G<74.7998 244.809 571.625 737.1> 709 20G<74.7998 244.668 567.1 737.1>
VStem: 74.7998 170.009<0 479.915 694.084 729> 567.1 170<257.014 729>
LayerCount: 2
Fore
SplineSet
567.099609375 257.133789062 m 1
 567.099609375 247.133789062 567.099609375 719 567.099609375 729 c 1
 737.099609375 729 l 1
 737.099609375 719.266601562 737.099609375 9.7333984375 737.099609375 0 c 1
 737.099609375 10 571.625 10 571.625 0 c 1
 571.625 10 244.808523083 489.801757812 244.808523083 479.801757812 c 1
 244.808523083 489.801757812 244.808523083 10 244.808523083 0 c 1
 74.7998046875 0 l 1
 74.7998046875 9.7333984375 74.7998046875 719.266601562 74.7998046875 729 c 1
 244.66796875 729 l 1
 244.66796875 719 567.099609375 247.133789062 567.099609375 257.133789062 c 1
EndSplineSet
EndChar

StartChar: O
Encoding: 79 79 48
Width: 904
GlyphClass: 1
Flags: W
HStem: -23 148<334.454 535.265> 593 148<334.389 535.911>
VStem: 44 171.915<245.834 472.06> 654.285 171.915<249.359 470.87>
LayerCount: 2
Fore
SplineSet
148.736328125 639.526367188 m 0
 216.376328165 707.194335938 315.392988205 741 433.957866823 741 c 0
 556.937546193 741 651.633704165 709.038085938 721.479492188 639.510742188 c 0
 788.604492188 570.072265625 826.200195312 467.28125 826.200195312 354.127929688 c 0
 826.200195312 251.413085938 786.571289062 145.948242188 721.455078125 78.46484375 c 0
 652.712562227 9.8671875 555.871869668 -23 435.099590674 -23 c 0
 314.328325644 -23 217.462283977 9.892578125 148.720703125 78.4892578125 c 0
 81.6142578125 147.908203125 44 250.633789062 44 359 c 0
 44 467.385742188 81.7197265625 569.196289062 148.736328125 639.526367188 c 0
654.285220923 355.1640625 m 0
 654.285220923 503.009765625 568.997638095 593 435.099590674 593 c 0
 302.267219778 593 215.914974389 502.861328125 215.914974389 359 c 0
 215.914974389 215.138671875 302.267219778 125 435.099590674 125 c 0
 565.736728767 125 654.285220923 215.331054688 654.285220923 355.1640625 c 0
EndSplineSet
EndChar

StartChar: P
Encoding: 80 80 49
Width: 772
GlyphClass: 1
Flags: W
HStem: 0 21G<83.5996 256.357> 250 145<256.357 497.578> 584 145<256.357 502.027>
VStem: 83.5996 172.757<0 250 395 584> 533.543 172.757<425.901 550.957>
LayerCount: 2
Fore
SplineSet
83.599609375 729 m 1
 445.438352903 729 l 2
 494.731205566 729 706.299804688 727.638671875 706.299804688 497.826171875 c 0
 706.299804688 348.495117188 615.9921875 250 462.848195258 250 c 2
 256.356707422 250 l 1
 256.356707422 250 256.356707422 9.615234375 256.356707422 0 c 1
 83.599609375 0 l 1
 83.599609375 9.7333984375 83.599609375 719.266601562 83.599609375 729 c 1
408.297149796 395 m 2
 506.885946358 395 533.542706641 433.602539062 533.542706641 489.974609375 c 0
 533.542706641 544.6875 507.7772528 584 408.297149796 584 c 2
 256.356707422 584 l 1
 256.356707422 574.502929688 256.356707422 395 256.356707422 395 c 1
 408.297149796 395 l 2
EndSplineSet
EndChar

StartChar: Q
Encoding: 81 81 50
Width: 904
GlyphClass: 1
Flags: W
HStem: -23 148<337.751 516.413> 593 148<337.708 538.943>
VStem: 47.2998 171.9<248.399 472.17> 657.444 172.056<241.947 469.784>
LayerCount: 2
Fore
SplineSet
151.967773438 78.544921875 m 0
 85.94921875 147.905273438 47.2998046875 250.565429688 47.2998046875 359 c 0
 47.2998046875 467.366210938 84.9384765625 570.116210938 152.044921875 639.53515625 c 0
 220.772105545 708.1328125 317.585038722 741 438.322698347 741 c 0
 559.059344298 741 655.952357697 708.015625 724.83203125 639.341796875 c 0
 790.84375 569.91015625 829.5 467.163085938 829.5 360.522460938 c 0
 829.5 266.6953125 800.583984375 171.146484375 752.984375 109.778320312 c 1
 752.984375 115.435546875 833.58984375 42.5537109375 833.58984375 35.0732421875 c 1
 833.58984375 42.5537109375 743.984375 -48.33984375 743.984375 -58.095703125 c 1
 743.984375 -48.095703125 652.506880822 34.7998046875 652.506880822 24.7998046875 c 1
 587.194871257 -8.517578125 523.527040419 -23 438.322698347 -23 c 0
 317.585038722 -23 220.692025324 9.947265625 151.967773438 78.544921875 c 0
626.969399533 221.729492188 m 1
 647.153670062 260.235351562 657.44448537 306.60546875 657.44448537 358.041015625 c 0
 657.44448537 502.888671875 571.098746723 593 438.322698347 593 c 0
 305.527390172 593 219.199897651 502.861328125 219.199897651 359 c 0
 219.199897651 216.106445312 306.738730232 125 437.180288098 125 c 0
 465.71216147 125 494.358579969 129.330078125 517.873782246 136.727539062 c 1
 517.873782246 145.836914062 434.364302585 209.609375 434.364302585 203.225585938 c 1
 434.364302585 209.609375 536.118895004 296.96484375 536.118895004 294.314453125 c 1
 536.118895004 296.96484375 626.969399533 227.35546875 626.969399533 221.729492188 c 1
EndSplineSet
EndChar

StartChar: R
Encoding: 82 82 51
Width: 834
GlyphClass: 1
Flags: W
HStem: 0 21G<88 258 565.315 753.7> 279 145<258 530.421> 584 145<258 552.09>
VStem: 88 170<0 279 424 584> 547.675 174.026<48.7859 258.38> 573.495 170.205<444.872 563.03>
LayerCount: 2
Fore
SplineSet
743.700195312 527.52734375 m 0xf4
 743.700195312 445.107421875 706.973632812 386.5390625 635.500976562 352.307617188 c 1
 716.139648438 316.0703125 718.076171875 284.1328125 721.700195312 94.41015625 c 0
 721.700195312 59.294921875 734.341796875 52.3408203125 753.700195312 41.69140625 c 1
 753.700195312 50.310546875 753.700195312 9.7333984375 753.700195312 0 c 1
 576.767578125 0 l 1
 553.861674192 36.6357421875 546.50144378 54.6142578125 546.50144378 130.329101562 c 0
 546.50144378 140.9140625 547.67466284 158.4296875 547.67466284 176.950195312 c 2
 547.67466284 180.481445312 547.67466284 208.168945312 547.67466284 205.629882812 c 2xf8
 547.67466284 251.44140625 527.788287182 279 449.196155278 279 c 2
 258 279 l 1
 258 279 258 9.654296875 258 0 c 1
 88 0 l 1
 88 9.7333984375 88 719.266601562 88 729 c 1
 530.176402712 729 l 2
 601.243164062 729 650.470703125 712.8828125 685.869140625 677.384765625 c 0
 722.986328125 640.2265625 743.700195312 586.184570312 743.700195312 527.52734375 c 0xf4
546.090921302 440.009765625 m 0
 563.292229891 451.504882812 573.494859591 474.448242188 573.494859591 505.8828125 c 0xf4
 573.494859591 584 508.528114593 584 459.75825263 584 c 2
 258 584 l 1
 258 574.587890625 258 424 258 424 c 1
 459.75825263 424 l 2
 509.779478795 424 528.757286939 428.5625 546.090921302 440.009765625 c 0
EndSplineSet
EndChar

StartChar: S
Encoding: 83 83 52
Width: 781
GlyphClass: 1
Flags: W
HStem: -23 140<270.035 495.716> 601 140<249.764 458.908>
VStem: 35.2002 0.610352<227.885 238> 48.7939 165.725<480.487 568.189> 206.05 0.685807<229.18 238> 515.265 0.719585<487 495.782> 544.375 166.119<156.786 250.258>
LayerCount: 2
Fore
SplineSet
364.969088742 440.978515625 m 0xf6
 364.998772923 440.973632812 496.48024564 419.649414062 496.48024564 419.649414062 c 2
 639.534179688 395.087890625 709.171875 338.193359375 710.494140625 215.360351562 c 0
 710.494140625 74.732421875 607.168945312 -23 376.145694612 -23 c 0
 294.059722349 -23 49.765625 -14.474609375 35.810546875 227.416015625 c 2
 35.810546875 237.416015625 35.2001953125 248 35.2001953125 238 c 1
 206.050220627 238 l 1
 206.050220627 248 206.736027563 238.711914062 206.736027563 228.711914062 c 2xee
 211.978868049 157.788085938 270.043172892 117 385.369286103 117 c 0
 489.215810082 117 544.375159576 151.859375 544.375159576 202.266601562 c 0
 544.375159576 246.939453125 519.32375816 275.637695312 391.276438084 295.436523438 c 1
 391.276438084 299.583984375 273.641100324 318.366210938 273.641100324 314.8203125 c 2
 118.52734375 341.154296875 48.7939453125 393.221679688 48.7939453125 514.266601562 c 0
 48.7939453125 593.408203125 81.57421875 655.516601562 144.615234375 694.28515625 c 0
 196.703798043 725.146484375 268.349127401 741 357.383245157 741 c 0
 429.995869373 741 681.7109375 736.01953125 683.293945312 497.067382812 c 2
 683.293945312 487.067382812 683.360351562 477 683.360351562 487 c 1
 515.984799615 487 l 1
 515.984799615 477 515.265214129 486.25 515.265214129 496.25 c 2
 510.041821899 563.296875 456.500772056 601 349.312218755 601 c 0
 261.100045729 601 214.519424489 568.583984375 214.519424489 523.484375 c 0
 214.519424489 483.330078125 234.000435838 462.580078125 364.969088742 440.978515625 c 0xf6
EndSplineSet
EndChar

StartChar: T
Encoding: 84 84 53
Width: 704
GlyphClass: 1
Flags: W
HStem: 0 21G<266.5 436.5> 584 145<15.4004 252.296 431.164 658.8>
VStem: 252.296 178.868<251.732 584> 266.5 170<0 332.268>
LayerCount: 2
Fore
SplineSet
266.5 0 m 1xd0
 266.5 9.6689453125 252.295502304 574.331054688 252.295502304 584 c 1
 15.400390625 584 l 1
 15.400390625 574 15.400390625 719 15.400390625 729 c 1
 658.799804688 729 l 1
 658.799804688 719 658.799804688 574 658.799804688 584 c 1
 431.163538809 584 l 1xe0
 431.163538809 574.331054688 436.5 9.6689453125 436.5 0 c 1
 266.5 0 l 1xd0
EndSplineSet
EndChar

StartChar: U
Encoding: 85 85 54
Width: 835
GlyphClass: 1
Flags: W
HStem: -23 148<301.237 511.767> 709 20G<83.5996 253.6 559.4 729.4>
VStem: 83.5996 170<170.923 729> 559.4 170<170.929 729>
LayerCount: 2
Fore
SplineSet
253.599609375 241.154296875 m 2
 253.599609375 174.9375 285.467005762 125 406.5 125 c 0
 527.529859535 125 559.400390625 174.934570312 559.400390625 241.154296875 c 2
 559.400390625 247.110351562 559.400390625 719.3203125 559.400390625 729 c 1
 729.400390625 729 l 1
 729.400390625 719.258789062 729.400390625 241.03515625 729.400390625 238.056640625 c 2
 729.400390625 156.404296875 706.563476562 96.609375 655.109375 51.6025390625 c 0
 599.608398438 2.6396484375 511.888733673 -23 406.5 -23 c 0
 301.111266327 -23 213.423828125 2.611328125 157.922851562 51.5751953125 c 0
 106.46875 96.5810546875 83.599609375 156.404296875 83.599609375 238.056640625 c 2
 83.599609375 241.03515625 83.599609375 719.258789062 83.599609375 729 c 1
 253.599609375 729 l 1
 253.599609375 719.3203125 253.599609375 247.110351562 253.599609375 241.154296875 c 2
EndSplineSet
EndChar

StartChar: V
Encoding: 86 86 55
Width: 784
GlyphClass: 1
Flags: W
HStem: -0 21G<297.417 446.722> 709 20G<26.4004 202.015 560.532 736.335>
LayerCount: 2
Fore
SplineSet
446.722375774 -0 m 1
 297.416759092 -0 l 1
 297.416759092 9.7333984375 26.400390625 719.266601562 26.400390625 729 c 1
 202.014648438 729 l 1
 202.014648438 719 376.146616068 192.671875 376.146616068 202.671875 c 1
 376.146616068 192.671875 560.532226562 719 560.532226562 729 c 1
 560.532226562 719 736.334960938 719 736.334960938 729 c 1
 736.334960938 719.266601562 446.722375774 9.7333984375 446.722375774 -0 c 1
EndSplineSet
EndChar

StartChar: W
Encoding: 87 87 56
Width: 1080
GlyphClass: 1
Flags: W
HStem: -0 21G<225.951 376.481 645.702 796.228> 709 20G<14.2998 194.663 428.84 607.724 843.414 1023.77>
LayerCount: 2
Fore
SplineSet
796.227539062 -0 m 1
 645.702148438 -0 l 1
 645.702148438 10 519.541015625 544.915039062 519.541015625 534.915039062 c 1
 519.541015625 544.915039062 376.481445312 10 376.481445312 -0 c 1
 376.481445312 10 225.951171875 10 225.951171875 -0 c 1
 225.951171875 9.7333984375 14.2998046875 719.266601562 14.2998046875 729 c 1
 194.663085938 729 l 1
 194.663085938 719 299.706054688 211.447265625 299.706054688 221.447265625 c 1
 299.706054688 211.447265625 428.83984375 719 428.83984375 729 c 1
 428.83984375 719 607.723632812 719 607.723632812 729 c 1
 607.723632812 719 722.033203125 210.235351562 722.033203125 220.235351562 c 1
 722.033203125 210.235351562 843.4140625 719 843.4140625 729 c 1
 1023.76953125 729 l 1
 1023.76953125 719.266601562 796.227539062 9.7333984375 796.227539062 -0 c 1
EndSplineSet
EndChar

StartChar: X
Encoding: 88 88 57
Width: 772
GlyphClass: 1
Flags: W
HStem: 0 21G<24.2002 222.144 537.782 739.737> 709 20G<32.4033 235.43 532.309 730.766>
LayerCount: 2
Fore
SplineSet
532.30859375 729 m 1
 730.765625 729 l 1
 730.765625 719.266601562 490.912413251 371.59765625 490.912413251 371.791992188 c 1
 490.912413251 371.59765625 739.737304688 9.7333984375 739.737304688 0 c 1
 739.737304688 10 537.782226562 10 537.782226562 0 c 1
 537.782226562 10 379.396744111 253.716796875 379.396744111 243.716796875 c 1
 379.396744111 253.716796875 222.143554688 10 222.143554688 0 c 1
 222.143554688 10 24.2001953125 10 24.2001953125 0 c 1
 24.2001953125 9.7333984375 268.481502076 366.920898438 268.481502076 366.987304688 c 1
 268.481502076 366.920898438 32.4033203125 719.266601562 32.4033203125 729 c 1
 235.4296875 729 l 1
 235.4296875 719 380.470243425 488.427734375 380.470243425 498.427734375 c 1
 380.470243425 488.427734375 532.30859375 719 532.30859375 729 c 1
EndSplineSet
EndChar

StartChar: Y
Encoding: 89 89 58
Width: 784
GlyphClass: 1
Flags: W
HStem: 0 21G<295.231 476.403> 709 20G<29.7002 224.502 548.847 745.033>
VStem: 295.231 181.172<0 269.908 269.982 270.008>
LayerCount: 2
Fore
SplineSet
548.846679688 729 m 1
 745.033203125 729 l 1
 745.033203125 719.266601562 476.403040444 272.506835938 476.403040444 269.982421875 c 1
 476.403040444 272.506835938 476.403040444 9.7333984375 476.403040444 0 c 1
 295.2314981 0 l 1
 295.2314981 9.7333984375 295.2314981 272.530273438 295.2314981 270.0078125 c 1
 295.2314981 272.530273438 29.7001953125 719.266601562 29.7001953125 729 c 1
 224.501953125 729 l 1
 224.501953125 719 392.305225355 409.659179688 392.305225355 419.659179688 c 1
 392.305225355 409.659179688 548.846679688 719 548.846679688 729 c 1
EndSplineSet
EndChar

StartChar: Z
Encoding: 90 90 59
Width: 719
GlyphClass: 1
Flags: W
HStem: 0 145<251.058 651.8> 584 145<33 434.863>
LayerCount: 2
Fore
SplineSet
33 729 m 1
 651.799804688 729 l 1
 651.799804688 719.331054688 651.799804688 589.75390625 651.799804688 594.985351562 c 1
 651.799804688 589.75390625 251.058167621 154.668945312 251.058167621 145 c 1
 651.799804688 145 l 1
 651.799804688 155 651.799804688 10 651.799804688 0 c 1
 33 0 l 1
 33 9.6689453125 33 139.252929688 33 134.022460938 c 1
 33 139.252929688 434.863362294 574.331054688 434.863362294 584 c 1
 33 584 l 1
 33 574 33 719 33 729 c 1
EndSplineSet
EndChar

StartChar: bracketleft
Encoding: 91 91 60
Width: 372
GlyphClass: 1
Flags: W
HStem: -200 122<222.6 334.6> 607 122<222.6 334.6>
VStem: 72.5996 262<-200 -77.627 606.627 729> 72.5996 150<-78 607>
LayerCount: 2
Fore
SplineSet
72.599609375 729 m 1xe0
 334.599609375 729 l 1
 334.599609375 719 334.599609375 597 334.599609375 607 c 1xe0
 222.599609375 607 l 1
 222.599609375 597.283203125 222.599609375 -68.283203125 222.599609375 -78 c 1xd0
 334.599609375 -78 l 1
 334.599609375 -68 334.599609375 -190 334.599609375 -200 c 1
 72.599609375 -200 l 1
 72.599609375 -190.2109375 72.599609375 719.2109375 72.599609375 729 c 1xe0
EndSplineSet
EndChar

StartChar: backslash
Encoding: 92 92 61
Width: 340
GlyphClass: 1
Flags: W
HStem: -14 21G<237.119 358.379> 694 20G<-32.7998 88.458>
VStem: -32.7998 121.258<654.148 714> 237.119 121.26<-14 45.8522>
LayerCount: 2
Fore
SplineSet
358.37890625 -14 m 1
 237.119140625 -14 l 1
 237.119140625 -4.267578125 -32.7998046875 704.267578125 -32.7998046875 714 c 1
 88.4580078125 714 l 1
 88.4580078125 704.267578125 358.37890625 -4.267578125 358.37890625 -14 c 1
EndSplineSet
EndChar

StartChar: bracketright
Encoding: 93 93 62
Width: 378
GlyphClass: 1
Flags: W
HStem: -200 122<19.7998 131.8> 607 122<19.7998 131.8>
VStem: 19.7998 262<-200 -77.627 606.627 729> 131.8 150<-78 607>
LayerCount: 2
Fore
SplineSet
281.799804688 -200 m 1xe0
 19.7998046875 -200 l 1
 19.7998046875 -190 19.7998046875 -68 19.7998046875 -78 c 1xe0
 131.799804688 -78 l 1
 131.799804688 -68.283203125 131.799804688 597.283203125 131.799804688 607 c 1xd0
 19.7998046875 607 l 1
 19.7998046875 597 19.7998046875 719 19.7998046875 729 c 1
 281.799804688 729 l 1
 281.799804688 719.2109375 281.799804688 -190.2109375 281.799804688 -200 c 1xe0
EndSplineSet
EndChar

StartChar: asciicircum
Encoding: 94 94 63
Width: 684
GlyphClass: 1
Flags: W
LayerCount: 2
Fore
SplineSet
599.92578125 270 m 1
 464.375411187 270 l 1
 464.375411187 279.791015625 329.521335836 552.6796875 329.521335836 548.7265625 c 1
 329.521335836 552.6796875 201.492820598 279.791015625 201.492820598 270 c 1
 67.099609375 270 l 1
 67.099609375 279.55078125 248.789591878 685.44921875 248.789591878 695 c 1
 410.818033248 695 l 1
 410.818033248 685.44921875 599.92578125 279.55078125 599.92578125 270 c 1
EndSplineSet
EndChar

StartChar: underscore
Encoding: 95 95 64
Width: 660
GlyphClass: 1
Flags: W
HStem: -189 89<-24.2002 651.8>
LayerCount: 2
Fore
SplineSet
-24.2001953125 -100 m 1
 651.799804688 -100 l 1
 651.799804688 -90 651.799804688 -179 651.799804688 -189 c 1
 -24.2001953125 -189 l 1
 -24.2001953125 -179 -24.2001953125 -90 -24.2001953125 -100 c 1
EndSplineSet
EndChar

StartChar: grave
Encoding: 96 96 65
Width: 383
GlyphClass: 1
Flags: W
VStem: 18.7002 233.161
LayerCount: 2
Fore
SplineSet
161.5 587 m 1
 161.5 577 18.7001953125 747 18.7001953125 757 c 1
 18.7001953125 747 172.52734375 747 172.52734375 757 c 1
 172.52734375 747 251.861328125 577 251.861328125 587 c 1
 251.861328125 577 161.5 577 161.5 587 c 1
EndSplineSet
EndChar

StartChar: a
Encoding: 97 97 66
Width: 649
GlyphClass: 1
Flags: W
HStem: -23 133<206.231 320.567> 0 21G<411.779 587.2> 416 133<219.512 384.734>
VStem: 30.7998 162.699<126.107 208.04> 391.729 163.471<150.169 250.455 342.607 400.411>
LayerCount: 2
Fore
SplineSet
126.787109375 510.631835938 m 0xb8
 169.120992063 536.64453125 228.417006808 549 303.768949175 549 c 0
 389.421412308 549 553.5 536.462890625 553.5 379.2421875 c 0
 553.5 379.186523438 555.200195312 89.7314453125 555.200195312 89.7314453125 c 2
 555.200195312 62.3486328125 564.03515625 51.5859375 587.200195312 30.166015625 c 1
 587.200195312 38.75390625 587.200195312 9.6484375 587.200195312 0 c 1
 417.592778888 0 l 1x78
 405.965209955 12.1865234375 396.841623502 21.916015625 394.024903827 42.609375 c 1
 338.280541167 -1.3310546875 277.575124128 -23 211.005884671 -23 c 0
 100.811523438 -23 30.7998046875 43.6533203125 30.7998046875 141.505859375 c 0
 30.7998046875 258.189453125 111.176757812 299.482421875 203.413668019 313.538085938 c 2
 203.413668019 313.538085938 269.169790767 323.102539062 269.349093426 323.126953125 c 0
 350.878637864 333.713867188 348.188055524 333.184570312 369.359321209 342.266601562 c 0
 383.937044354 349.46875 391.729412811 360.565429688 391.729412811 373.916992188 c 0
 391.729412811 384.466796875 391.729412811 416 307.292454912 416 c 0
 214.333408432 416 207.450062757 390.354492188 200.351970874 342 c 1
 42.0537109375 342 l 1
 44.833984375 380.61328125 50.7353515625 462.586914062 126.787109375 510.631835938 c 0xb8
193.498856461 165 m 0
 193.498856461 132.065429688 220.118004094 110 272.065737199 110 c 0xb8
 318.460300167 110 391.729412811 125.990234375 391.729412811 227 c 2
 391.729412811 237 391.729412811 260.010742188 391.729412811 250.010742188 c 1
 345.988470582 234.53125 254.109409884 233.725585938 215.622928136 208.798828125 c 0
 199.913096343 198.624023438 193.498856461 186.010742188 193.498856461 165 c 0
EndSplineSet
Substitution2: "Single Substitution lookup 20 subtable" ordfeminine
Substitution2: "'aalt' Access All Alternates lookup 0 subtable" ordfeminine
EndChar

StartChar: b
Encoding: 98 98 67
Width: 711
GlyphClass: 1
Flags: W
HStem: -23 137<283.49 425.334> 0 21G<64.9004 227.404> 412 137<284.951 424.383> 709 20G<64.9004 227.404>
VStem: 64.9004 162.503<0 37.2355 175.512 350.902 488.287 729> 481.997 162.503<176.266 349.804>
LayerCount: 2
Fore
SplineSet
64.900390625 0 m 1x7c
 64.900390625 9.7333984375 64.900390625 719.266601562 64.900390625 729 c 1
 227.403522596 729 l 1
 227.403522596 719 227.403522596 478.57421875 227.403522596 488.57421875 c 1
 267.506514326 529.634765625 320.812871563 549 390.933700248 549 c 0
 471.277694366 549 545.591796875 514.93359375 584.727539062 460.767578125 c 0
 622.118164062 408.583007812 644.5 335.430664062 644.5 263 c 0
 644.5 101.991210938 543.525390625 -23 390.933700248 -23 c 0xbc
 320.790042733 -23 267.506514326 -3.6416015625 227.403522596 36.80078125 c 1
 227.403522596 46.80078125 227.403522596 10 227.403522596 0 c 1
 64.900390625 0 l 1x7c
481.996868029 262.0625 m 0
 481.996868029 352.916015625 427.408983253 412 354.700195312 412 c 0
 280.632054274 412 227.403522596 354.705078125 227.403522596 264.874023438 c 0
 227.403522596 170.154296875 279.513441573 114 354.700195312 114 c 0
 428.682209399 114 481.996868029 172.176757812 481.996868029 262.0625 c 0
EndSplineSet
EndChar

StartChar: c
Encoding: 99 99 68
Width: 653
GlyphClass: 1
Flags: W
HStem: -23 133<251.919 392.421> 416 133<246.52 394.344>
VStem: 37.4004 162.741<164.246 362.18> 430.662 2.11618<200.051 207> 588.149 1.10938<196.457 207 318 328.295>
LayerCount: 2
Fore
SplineSet
588.987304688 318 m 1
 432.62419511 318 l 1
 415.949340053 380.95703125 396.950648812 416 323.448764244 416 c 0
 278.896222847 416 246.790344223 401.989257812 230.42331659 377.483398438 c 0
 211.766887706 349.436523438 200.141445891 306.754882812 200.141445891 259.245117188 c 0
 200.141445891 162.109375 246.756952774 110 322.273802618 110 c 0
 379.690399907 110 410.89992681 130.352539062 430.662447456 199.583984375 c 2
 430.662447456 209.583984375 432.778630564 217 432.778630564 207 c 1
 589.258789062 207 l 1
 589.258789062 217 588.149414062 205.987304688 588.149414062 195.987304688 c 2
 574.638671875 61.916015625 478.55859375 -23 322.273802618 -23 c 0
 218.179089478 -23 139.768554688 9.00390625 93.2177734375 68.9443359375 c 0
 56.0986328125 116.739257812 37.400390625 181.231445312 37.400390625 259.134765625 c 0
 37.400390625 339.5625 56.0634765625 405.829101562 93.3505859375 454.857421875 c 0
 140.126953125 516.361328125 219.200659134 549 324.624769354 549 c 0
 396.266124099 549 455.80829584 533.016601562 498.934570312 502.588867188 c 0
 551.900390625 464.454101562 582.4453125 404.34765625 588.170898438 328.764648438 c 2
 588.170898438 318.764648438 588.987304688 308 588.987304688 318 c 1
EndSplineSet
EndChar

StartChar: d
Encoding: 100 100 69
Width: 715
GlyphClass: 1
Flags: W
HStem: -23 137<251.754 392.581> 0 21G<448.997 611.5> 412 137<251.073 392.828> 709 20G<448.997 611.5>
VStem: 31.9004 162.503<175.285 349.078> 448.997 162.503<0 37.2999 174.887 349.872 487.904 729>
LayerCount: 2
Fore
SplineSet
448.996868029 488.190429688 m 1xbc
 448.996868029 478.190429688 448.996868029 719 448.996868029 729 c 1
 611.5 729 l 1
 611.5 719.266601562 611.5 9.7333984375 611.5 0 c 1
 448.996868029 0 l 1x7c
 448.996868029 10 448.996868029 46.865234375 448.996868029 36.865234375 c 1
 408.366737846 -4.224609375 355.78363947 -23 285.465652703 -23 c 0
 205.23372739 -23 130.857421875 10.0322265625 91.6728515625 64.2666015625 c 0
 54.2822265625 116.450195312 31.900390625 189.603515625 31.900390625 262.034179688 c 0
 31.900390625 423.008789062 132.828125 549 285.465652703 549 c 0
 355.874954793 549 408.418621552 529.440429688 448.996868029 488.190429688 c 1xbc
448.996868029 260.188476562 m 0
 448.996868029 354.962890625 396.799784426 412 321.700195312 412 c 0
 247.770064932 412 194.403522596 353.901367188 194.403522596 262.0625 c 0
 194.403522596 172.176757812 247.718181226 114 321.700195312 114 c 0xbc
 395.795315878 114 448.996868029 171.334960938 448.996868029 260.188476562 c 0
EndSplineSet
EndChar

StartChar: e
Encoding: 101 101 70
Width: 654
GlyphClass: 1
Flags: W
HStem: -23 127<229.539 386.704> 216 113<190.732 418.388> 422 127<229.461 376.307>
VStem: 418.388 173.112<133.762 171.846 329 381.318> 422.959 2.78752<166.446 172> 585.106 3.7041<159.687 172>
LayerCount: 2
Fore
SplineSet
208.179025172 143.387695312 m 0xf0
 229.389155043 118.458984375 263.30539253 104 307.371122332 104 c 0
 363.963018966 104 405.016560846 127.244140625 422.958633241 165.98046875 c 2
 422.958633241 175.98046875 425.746155213 182 425.746155213 172 c 1
 588.810546875 172 l 1
 588.810546875 182 585.106445312 169.215820312 585.106445312 159.215820312 c 2xec
 552.68359375 47.302734375 446.915720399 -23 301.51316571 -23 c 0
 202.049597194 -23 125.643554688 9.728515625 79.74609375 69.26953125 c 0
 43.1357421875 116.763671875 24.2001953125 180.408203125 24.2001953125 256.236328125 c 0
 24.2001953125 335.4453125 43.29296875 402.065429688 80.2568359375 451.8828125 c 0
 126.607421875 514.349609375 204.060149423 549 305.02773166 549 c 0
 435.434874306 549 532.03125 490.266601562 569.928710938 390.111328125 c 0
 573.868164062 378.931640625 591.5 328.353515625 591.5 249.008789062 c 0
 591.5 237.473632812 591.358398438 235.30078125 589.702148438 216 c 1
 187.346458912 216 l 1
 189.979002983 176.252929688 195.785993718 158.327148438 208.179025172 143.387695312 c 0xf0
190.732049964 329 m 1
 418.388345351 329 l 1xf0
 410.239004063 376.873046875 381.621138563 422 302.684340987 422 c 0
 251.671648778 422 204.918248537 403.984375 190.732049964 329 c 1
EndSplineSet
EndChar

StartChar: f
Encoding: 102 102 71
Width: 372
GlyphClass: 1
Flags: W
HStem: 0 21G<91.4004 251.4> 421.271 109.183<15.4004 91.4004 251.4 334.4> 604 125<186.995 329.4>
VStem: 91.4004 160<0 421.271 530.494 600.501>
LayerCount: 2
Fore
SplineSet
329.400390625 599.46875 m 1
 309.131835938 602.364257812 297.681640625 604 279.400390625 604 c 0
 263.810546875 604 251.400390625 599.322265625 251.400390625 572 c 2
 251.400390625 562.337890625 251.400390625 522.194335938 251.400390625 530.453125 c 1
 334.400390625 530.453125 l 1
 334.400390625 522.194335938 334.400390625 416.700195312 334.400390625 421.270507812 c 1
 251.400390625 421.270507812 l 1
 251.400390625 416.700195312 251.400390625 9.662109375 251.400390625 0 c 1
 91.400390625 0 l 1
 91.400390625 9.6689453125 91.400390625 417.272460938 91.400390625 421.5625 c 1
 15.400390625 421.5625 l 1
 15.400390625 417.272460938 15.400390625 522.913085938 15.400390625 530.821289062 c 1
 91.400390625 530.821289062 l 1
 91.400390625 522.913085938 91.400390625 574.331054688 91.400390625 584 c 2
 91.400390625 674.24609375 134.588867188 729 239.400390625 729 c 0
 261.711914062 729 286.328125 728.227539062 329.400390625 725.35546875 c 1
 329.400390625 715.35546875 329.400390625 589.46875 329.400390625 599.46875 c 1
EndSplineSet
EndChar

StartChar: g
Encoding: 103 103 72
Width: 716
GlyphClass: 1
Flags: W
HStem: -218 110<248.807 403.864> -23 137<260.053 388.667> 412 137<260.609 383.054> 520 20G<446 600.3>
VStem: 45.0996 163.066<169.437 351.801> 446 154.3<-67.445 40.5613 168.615 350.624 476.657 540>
LayerCount: 2
Fore
SplineSet
446 477.073242188 m 1xec
 446 467.073242188 446 530 446 540 c 1
 600.299804688 540 l 1xdc
 600.299804688 530.352539062 600.299804688 1.6474609375 600.299804688 -8 c 2
 600.299804688 -80.4228515625 569.532226562 -138.092773438 511.817382812 -174.232421875 c 0
 465.870117188 -203.002929688 400.454439175 -218 318.200531587 -218 c 0
 226.839194112 -218 158.317382812 -200.813476562 112.80859375 -163.771484375 c 0
 57.62109375 -119.024414062 56.6572265625 -78.55078125 55.8583984375 -45 c 1
 223.214937494 -45 l 1
 230.369874043 -67.5185546875 243.232988479 -108 324.122148434 -108 c 0
 397.66080708 -108 446 -66.8046875 446 -8 c 2
 446 2 446 50.134765625 446 40.134765625 c 1
 395.499080475 -6.1494140625 352.435930406 -23 288.592447354 -23 c 0
 136.046875 -23 45.099609375 93.6435546875 45.099609375 257.203125 c 0
 45.099609375 350.888671875 73.7119140625 428.868164062 129.844726562 485.11328125 c 0
 169.141281101 524.841796875 232.158345324 549 292.145207177 549 c 0
 353.962597249 549 403.131363268 525.345703125 446 477.073242188 c 1xec
448.200195312 259.251953125 m 0
 448.200195312 350.38671875 392.587688954 412 322.938245634 412 c 0xec
 257.426153574 412 208.165913715 352.997070312 208.165913715 259.251953125 c 0
 208.165913715 169.537109375 257.139114973 114 320.569388611 114 c 0
 395.655742569 114 448.200195312 170.349609375 448.200195312 259.251953125 c 0
EndSplineSet
EndChar

StartChar: h
Encoding: 104 104 73
Width: 710
GlyphClass: 1
Flags: W
HStem: 0 21G<73.7002 233.7 447.1 607.1> 410 139<302.093 422.651> 709 20G<73.7002 233.7>
VStem: 73.7002 160<0 372.588 480.186 729> 447.1 160<0 385.899>
LayerCount: 2
Fore
SplineSet
73.7001953125 0 m 1
 73.7001953125 9.7333984375 73.7001953125 719.266601562 73.7001953125 729 c 1
 233.700195312 729 l 1
 233.700195312 719 233.700195312 470.466796875 233.700195312 480.466796875 c 1
 280.183620077 527.267578125 339.012554544 549 414.439017678 549 c 0
 468.115234375 549 515.327148438 534.048828125 548.515625 507.19140625 c 0
 588.485351562 474.879882812 607.099609375 425.203125 607.099609375 358.924804688 c 2
 607.099609375 355.95703125 607.099609375 9.6484375 607.099609375 0 c 1
 447.099609375 0 l 1
 447.099609375 9.53515625 447.099609375 318.642578125 447.099609375 324.186523438 c 2
 447.099609375 356.1796875 444.05983606 366.9296875 430.093688618 382.120117188 c 0
 413.031735172 400.55078125 388.930136542 410 353.751306548 410 c 0
 282.062870223 410 233.700195312 371.625 233.700195312 318.46484375 c 2
 233.700195312 313.1875 233.700195312 9.53515625 233.700195312 0 c 1
 73.7001953125 0 l 1
EndSplineSet
EndChar

StartChar: i
Encoding: 105 105 74
Width: 320
GlyphClass: 1
Flags: W
HStem: 0 21G<73.7002 233.7> 520 20G<73.7002 233.7> 584 145<73.7002 233.7>
VStem: 73.7002 160<0 540 583.644 729>
LayerCount: 2
Fore
SplineSet
73.7001953125 540 m 1
 233.700195312 540 l 1
 233.700195312 530.357421875 233.700195312 9.642578125 233.700195312 0 c 1
 73.7001953125 0 l 1
 73.7001953125 9.642578125 73.7001953125 530.357421875 73.7001953125 540 c 1
73.7001953125 729 m 1
 233.700195312 729 l 1
 233.700195312 719 233.700195312 574 233.700195312 584 c 1
 73.7001953125 584 l 1
 73.7001953125 574 73.7001953125 719 73.7001953125 729 c 1
EndSplineSet
EndChar

StartChar: j
Encoding: 106 106 75
Width: 319
GlyphClass: 1
Flags: W
HStem: -218 133<5.75499 144.823> 520 20G<70.4004 230.4> 584 145<70.4004 230.4>
VStem: 70.4004 160<-84.5122 540 583.644 729>
LayerCount: 2
Fore
SplineSet
4.400390625 -77.1240234375 m 1
 26.5703125 -84.513671875 28.029296875 -85 39.400390625 -85 c 0
 62.7353515625 -85 70.400390625 -79.0810546875 70.400390625 -53 c 2
 70.400390625 -43.326171875 70.400390625 530.326171875 70.400390625 540 c 1
 230.400390625 540 l 1
 230.400390625 530.310546875 230.400390625 -74.310546875 230.400390625 -84 c 2
 230.400390625 -175.395507812 192.24609375 -218 97.400390625 -218 c 0
 71.0947265625 -218 40.431640625 -215.955078125 4.400390625 -211.951171875 c 1
 4.400390625 -201.951171875 4.400390625 -67.1240234375 4.400390625 -77.1240234375 c 1
70.400390625 729 m 1
 230.400390625 729 l 1
 230.400390625 719 230.400390625 574 230.400390625 584 c 1
 70.400390625 584 l 1
 70.400390625 574 70.400390625 719 70.400390625 729 c 1
EndSplineSet
EndChar

StartChar: k
Encoding: 107 107 76
Width: 645
GlyphClass: 1
Flags: W
HStem: 0 21G<64.9004 224.9 432.72 620.004> 520 20G<424.441 612.155> 709 20G<64.9004 224.9>
VStem: 64.9004 160<0 208.981 345.308 729>
LayerCount: 2
Fore
SplineSet
224.900390625 182.83203125 m 1
 224.900390625 192.83203125 224.900390625 10 224.900390625 0 c 1
 64.900390625 0 l 1
 64.900390625 9.7333984375 64.900390625 719.266601562 64.900390625 729 c 1
 224.900390625 729 l 1
 224.900390625 719 224.900390625 335.491210938 224.900390625 345.491210938 c 1
 224.900390625 335.491210938 424.440536683 530 424.440536683 540 c 1
 424.440536683 530 612.155273438 530 612.155273438 540 c 1
 612.155273438 530.357421875 412.562027893 330.184570312 412.562027893 332.413085938 c 1
 412.562027893 330.184570312 620.00390625 9.642578125 620.00390625 0 c 1
 620.00390625 10 432.719726562 10 432.719726562 0 c 1
 432.719726562 10 279.730843778 241.903320312 279.730843778 231.903320312 c 1
 279.730843778 241.903320312 224.900390625 192.83203125 224.900390625 182.83203125 c 1
EndSplineSet
EndChar

StartChar: l
Encoding: 108 108 77
Width: 320
GlyphClass: 1
Flags: W
HStem: 0 21G<73.7002 233.7> 709 20G<73.7002 233.7>
VStem: 73.7002 160<0 729>
LayerCount: 2
Fore
SplineSet
73.7001953125 729 m 1
 233.700195312 729 l 1
 233.700195312 719.266601562 233.700195312 9.7333984375 233.700195312 0 c 1
 73.7001953125 0 l 1
 73.7001953125 9.7333984375 73.7001953125 719.266601562 73.7001953125 729 c 1
EndSplineSet
EndChar

StartChar: m
Encoding: 109 109 78
Width: 1038
GlyphClass: 1
Flags: W
HStem: 0 21G<66 226 415.2 575.2 764.4 924.4> 410 139<285.577 400.058 619.567 749.579> 520 20G<66 225>
VStem: 66 160<0 378.927 487.387 540> 415.2 160<0 379.002> 764.4 160<0 394.35>
LayerCount: 2
Fore
SplineSet
415.200195312 352.791015625 m 2xdc
 415.200195312 387.618164062 386.636874607 410 332.899786564 410 c 0xdc
 266.770736012 410 226 378.354492188 226 318.46484375 c 2
 226 313.1875 226 9.53515625 226 0 c 1
 66 0 l 1
 66 9.642578125 66 530.357421875 66 540 c 1
 225 540 l 1xbc
 225 530 225 477.810546875 225 487.810546875 c 1
 275.724005365 531.8359375 325.559394249 549 395.631639781 549 c 0
 464.088867188 549 518.564453125 523.266601562 548.716796875 476.413085938 c 1
 595.110545369 526.724609375 654.499801014 549 736.22145226 549 c 0
 790.254882812 549 832.674804688 536.791992188 864.159179688 513.126953125 c 0
 903.668945312 483.4296875 924.400390625 436.6796875 924.400390625 378.221679688 c 2
 924.400390625 374.576171875 924.400390625 9.6484375 924.400390625 0 c 1
 764.400390625 0 l 1
 764.400390625 9.53515625 764.400390625 345.916992188 764.400390625 352.791015625 c 2
 764.400390625 387.618164062 735.837069919 410 682.099981877 410 c 0
 643.59841207 410 615.367057931 399.106445312 597.646158424 380.50390625 c 0
 583.389067965 365.5390625 575.200195312 344.744140625 575.200195312 318.46484375 c 2
 575.200195312 313.1875 575.200195312 9.53515625 575.200195312 0 c 1
 415.200195312 0 l 1
 415.200195312 9.53515625 415.200195312 345.916992188 415.200195312 352.791015625 c 2xdc
EndSplineSet
EndChar

StartChar: n
Encoding: 110 110 79
Width: 710
GlyphClass: 1
Flags: W
HStem: 0 21G<69.2998 229.3 452.6 612.6> 410 139<297.246 428.749> 520 20G<69.2998 229.3>
VStem: 69.2998 160<0 373.359 479.964 540> 452.6 160<0 385.404>
LayerCount: 2
Fore
SplineSet
452.599609375 0 m 1xd8
 452.599609375 9.53515625 452.599609375 321.370117188 452.599609375 327.046875 c 2
 452.599609375 375.564453125 429.151837359 410 354.844067269 410 c 0xd8
 275.71909937 410 229.299804688 373.3984375 229.299804688 318.46484375 c 2
 229.299804688 313.1875 229.299804688 9.53515625 229.299804688 0 c 1
 69.2998046875 0 l 1
 69.2998046875 9.642578125 69.2998046875 530.357421875 69.2998046875 540 c 1
 229.299804688 540 l 1xb8
 229.299804688 530 229.299804688 470.381835938 229.299804688 480.381835938 c 1
 276.307975254 527.920898438 334.721459629 549 414.047010025 549 c 0
 486.235351562 549 539.392578125 528.27734375 572.77734375 487.813476562 c 0
 599.383789062 455.565429688 612.599609375 411.899414062 612.599609375 358.924804688 c 2
 612.599609375 355.95703125 612.599609375 9.6484375 612.599609375 0 c 1
 452.599609375 0 l 1xd8
EndSplineSet
Substitution2: "'sups' Superscript lookup 2 subtable" nsuperior
Substitution2: "'aalt' Access All Alternates lookup 0 subtable" nsuperior
EndChar

StartChar: o
Encoding: 111 111 80
Width: 714
GlyphClass: 1
Flags: W
HStem: -23 133<262.082 413.899> 416 133<261.699 414.499>
VStem: 38.5 162.357<175.3 350.525> 475.543 162.357<175.749 352.699>
LayerCount: 2
Fore
SplineSet
98.3330078125 454.565429688 m 0
 147.764648438 515.537109375 230.14202627 549 337.034754651 549 c 0
 446.275944205 549 529.159179688 516.197265625 578.561523438 454.661132812 c 0
 617.975585938 405.567382812 637.900390625 339.2421875 637.900390625 259.134765625 c 0
 637.900390625 182.747070312 617.288085938 118.346679688 577.583007812 70.302734375 c 0
 527.848632812 10.125 445.120844632 -23 338.200195312 -23 c 0
 230.706649696 -23 148.018554688 10.1318359375 98.4423828125 71.021484375 c 0
 58.875 119.619140625 38.5 184.954101562 38.5 263 c 0
 38.5 340.627929688 58.8798828125 405.900390625 98.3330078125 454.565429688 c 0
475.543292572 261.123046875 m 0
 475.543292572 357.533203125 420.512156585 416 338.200195312 416 c 0
 256.991628171 416 200.857098053 357.395507812 200.857098053 263 c 0
 200.857098053 168.604492188 256.991628171 110 338.200195312 110 c 0
 418.24539001 110 475.543292572 169.666992188 475.543292572 261.123046875 c 0
EndSplineSet
Substitution2: "Single Substitution lookup 20 subtable" ordmasculine
Substitution2: "'aalt' Access All Alternates lookup 0 subtable" ordmasculine
EndChar

StartChar: p
Encoding: 112 112 81
Width: 711
GlyphClass: 1
Flags: W
HStem: -24 137<284.364 420.621> 412 137<285.678 423.36> 520 20G<63.7998 223.8>
VStem: 63.7998 160<-218 43.324 174.506 350.282 480.59 540> 480.539 162.861<174.806 350.934>
LayerCount: 2
Fore
SplineSet
223.799804688 43.0517578125 m 1xd8
 223.799804688 53.0517578125 223.799804688 -208 223.799804688 -218 c 1
 63.7998046875 -218 l 1
 63.7998046875 -208.256835938 63.7998046875 530.256835938 63.7998046875 540 c 1
 223.799804688 540 l 1xb8
 223.799804688 530 223.799804688 471.008789062 223.799804688 481.008789062 c 1
 264.324380731 526.50390625 318.905471093 549 389.887048978 549 c 0
 469.711893632 549 545.310546875 515.146484375 583.521484375 462.840820312 c 0
 621.123046875 412.377929688 643.400390625 337.251953125 643.400390625 262.016601562 c 0
 643.400390625 100.114257812 544.438476562 -24 389.887048978 -24 c 0
 318.995462921 -24 264.370423062 -2.27734375 223.799804688 43.0517578125 c 1xd8
480.539166292 260.157226562 m 0
 480.539166292 354.950195312 427.902317991 412 352.168962281 412 c 0xd8
 276.385378574 412 223.799804688 354.874023438 223.799804688 262.03125 c 0
 223.799804688 170.1640625 276.359218159 113 352.168962281 113 c 0
 426.861133465 113 480.539166292 170.307617188 480.539166292 260.157226562 c 0
EndSplineSet
EndChar

StartChar: q
Encoding: 113 113 82
Width: 715
GlyphClass: 1
Flags: W
HStem: -24 137<250.708 388.037> 412 137<253.608 388.63> 520 20G<450.4 610.4>
VStem: 30.7998 162.861<174.997 349.41> 450.4 160<-218 43.2908 173.899 349.674 480.631 540>
LayerCount: 2
Fore
SplineSet
450.400390625 481.049804688 m 1xd8
 450.400390625 471.049804688 450.400390625 530 450.400390625 540 c 1
 610.400390625 540 l 1xb8
 610.400390625 530.256835938 610.400390625 -208.256835938 610.400390625 -218 c 1
 450.400390625 -218 l 1
 450.400390625 -208 450.400390625 53.0185546875 450.400390625 43.0185546875 c 1
 410.039055573 -1.7470703125 353.852762132 -24 283.133834816 -24 c 0
 204.486208848 -24 128.896484375 9.9052734375 90.6796875 62.1572265625 c 0
 53.03125 111.71875 30.7998046875 186.830078125 30.7998046875 262.016601562 c 0
 30.7998046875 424.861328125 129.747070312 549 284.313146335 549 c 0
 354.148898032 549 410.119629652 525.970703125 450.400390625 481.049804688 c 1xd8
450.400390625 259.219726562 m 0
 450.400390625 355.051757812 398.908322095 412 322.030186614 412 c 0xd8
 247.47718884 412 193.66102902 353.888671875 193.66102902 262.03125 c 0
 193.66102902 170.228515625 247.390336262 113 322.030186614 113 c 0
 396.749564629 113 450.400390625 170.346679688 450.400390625 259.219726562 c 0
EndSplineSet
EndChar

StartChar: r
Encoding: 114 114 83
Width: 451
GlyphClass: 1
Flags: W
HStem: 0 21G<69.2998 229.3> 390 159<308.037 416.3> 520 20G<69.2998 229.3>
VStem: 69.2998 160<0 348.463 464.392 540>
LayerCount: 2
Fore
SplineSet
416.299804688 384.295898438 m 1xd0
 387.68359375 388.814453125 380.173828125 390 362.299804688 390 c 0xd0
 288.83803607 390 229.299804688 359.994140625 229.299804688 282.51171875 c 2
 229.299804688 278.243164062 229.299804688 9.51171875 229.299804688 0 c 1
 69.2998046875 0 l 1
 69.2998046875 9.642578125 69.2998046875 530.357421875 69.2998046875 540 c 1
 229.299804688 540 l 1xb0
 229.299804688 530 229.299804688 454.798828125 229.299804688 464.798828125 c 1
 277.25280502 518.043945312 332.51171875 549 389.299804688 549 c 0
 398.4296875 549 398.9296875 549 416.299804688 546.829101562 c 1
 416.299804688 536.829101562 416.299804688 374.295898438 416.299804688 384.295898438 c 1xd0
EndSplineSet
EndChar

StartChar: s
Encoding: 115 115 84
Width: 655
GlyphClass: 1
Flags: W
HStem: -23 130<217.825 412.821> 419 130<227.314 393.359>
LayerCount: 2
Fore
SplineSet
573.518554688 346 m 1
 412.002683826 346 l 1
 411.458525865 368.711914062 410.931047075 390.739257812 380.326852775 405.8359375 c 0
 363.239041857 414.264648438 337.825197153 419 303.845555577 419 c 0
 246.8851434 419 219.408293705 400.170898438 219.408293705 380.731445312 c 0
 219.408293705 368.666992188 219.757513852 362.153320312 269.073653368 349.783203125 c 2
 269.073653368 343.212890625 475.180664062 296.481445312 475.180664062 300.9375 c 1
 549.623046875 279.872070312 588.341796875 232.625 588.341796875 161.645507812 c 0
 588.341796875 108.059570312 563.045898438 57.515625 520.58203125 25.0146484375 c 0
 477.918945312 -7.6376953125 410.764255362 -23 321.458760389 -23 c 0
 215.015416984 -23 38.041015625 -5.697265625 32.248046875 166.658203125 c 2
 32.248046875 176.658203125 31.900390625 187 31.900390625 177 c 1
 191.420644392 177 l 1
 199.213987146 144.922851562 201.741924034 136.05078125 220.452826803 124.365234375 c 0
 238.667524227 113.162109375 269.533373025 107 312.064217198 107 c 0
 361.902623262 107 396.691204642 115.838867188 412.472827965 128.172851562 c 0
 420.183817311 134.19921875 423.508184626 140.590820312 423.508184626 148.138671875 c 0
 423.508184626 159.693359375 421.136614967 169.490234375 376.085131044 181.02734375 c 0
 376.060112287 181.033203125 179.99124231 230.776367188 179.99124231 230.776367188 c 2
 179.884912594 230.801757812 179.781710222 230.830078125 179.679550298 230.859375 c 0
 147.93359375 239.942382812 106.701171875 252.430664062 83.826171875 276.620117188 c 0
 62.80078125 298.8515625 51.2421875 330.865234375 51.2421875 367.225585938 c 0
 51.2421875 480.08984375 143.250976562 549 305.019352252 549 c 0
 476.084960938 549 571.216796875 477.193359375 573.33984375 356.178710938 c 2
 573.33984375 346.178710938 573.518554688 336 573.518554688 346 c 1
EndSplineSet
Substitution2: "'hist' Historical Forms lookup 17 subtable" longs
Substitution2: "'aalt' Access All Alternates lookup 0 subtable" longs
EndChar

StartChar: t
Encoding: 116 116 85
Width: 373
GlyphClass: 1
Flags: W
HStem: -23 126<203.86 321.184> 424.731 109.176<15.4004 71.9112 244.4 322.4>
VStem: 84.4004 160<112.603 420.153 536.559 674>
LayerCount: 2
Fore
SplineSet
322.400390625 -9.3876953125 m 1
 300.388671875 -16.16015625 278.161132812 -23 231.400390625 -23 c 0
 176.319335938 -23 84.400390625 -9.6484375 84.400390625 109.270507812 c 2
 84.400390625 114.358398438 84.400390625 414.508789062 84.400390625 420.153320312 c 1
 15.400390625 420.153320312 l 1
 15.400390625 414.508789062 15.400390625 519.807617188 15.400390625 529.217773438 c 1
 38.4375 529.296875 61.88671875 529.375976562 72.4140625 536.301757812 c 0
 80.3115234375 541.682617188 84.4072265625 553.544921875 84.4072265625 585.559570312 c 0
 84.4072265625 586.344726562 84.404296875 587.193359375 84.400390625 588 c 2
 84.400390625 578 84.400390625 664 84.400390625 674 c 1
 244.400390625 674 l 1
 244.400390625 664.338867188 244.400390625 528.986328125 244.400390625 533.907226562 c 1
 322.400390625 533.907226562 l 1
 322.400390625 528.986328125 322.400390625 423.504882812 322.400390625 424.731445312 c 1
 244.400390625 424.731445312 l 1
 244.400390625 423.504882812 244.400390625 158.401367188 244.400390625 150.341796875 c 2
 244.400390625 130.087890625 246.563476562 118.139648438 250.056640625 112.326171875 c 0
 253.7578125 106.166992188 260.311523438 103 280.400390625 103 c 0
 290.397460938 103 292.090820312 103.201171875 322.400390625 107.53125 c 1
 322.400390625 117.53125 322.400390625 0.6123046875 322.400390625 -9.3876953125 c 1
EndSplineSet
EndChar

StartChar: u
Encoding: 117 117 86
Width: 711
GlyphClass: 1
Flags: W
HStem: -23 139<247.985 379.154> 0 21G<447.1 607.1> 520 20G<63.7998 223.8 447.1 607.1>
VStem: 63.7998 160<138.414 540> 447.1 160<0 46.0465 152.697 540>
LayerCount: 2
Fore
SplineSet
223.799804688 540 m 1xb8
 223.799804688 530.450195312 223.799804688 204.888671875 223.799804688 199.081054688 c 2
 223.799804688 147.844726562 248.97988008 116 321.555346793 116 c 0xb8
 400.681387326 116 447.099609375 152.658203125 447.099609375 207.67578125 c 2
 447.099609375 213.095703125 447.099609375 530.450195312 447.099609375 540 c 1
 607.099609375 540 l 1
 607.099609375 530.357421875 607.099609375 9.642578125 607.099609375 0 c 1
 447.099609375 0 l 1x78
 447.099609375 10 447.099609375 55.6181640625 447.099609375 45.6181640625 c 1
 400.092511442 -1.9208984375 341.679027067 -23 262.353476671 -23 c 0
 190.165039062 -23 137.006835938 -2.2587890625 103.622070312 38.240234375 c 0
 77.015625 70.515625 63.7998046875 114.219726562 63.7998046875 167.2421875 c 2
 63.7998046875 170.372070312 63.7998046875 530.342773438 63.7998046875 540 c 1
 223.799804688 540 l 1xb8
EndSplineSet
EndChar

StartChar: v
Encoding: 118 118 87
Width: 657
GlyphClass: 1
Flags: W
HStem: -0 21G<221.18 395.821> 520 20G<15.4004 187.863 441.785 614.419>
LayerCount: 2
Fore
SplineSet
395.821073607 -0 m 1
 221.179820765 -0 l 1
 221.179820765 9.642578125 15.400390625 530.357421875 15.400390625 540 c 1
 187.86328125 540 l 1
 187.86328125 530 311.555002171 158.321289062 311.555002171 168.321289062 c 1
 311.555002171 158.321289062 441.78515625 530 441.78515625 540 c 1
 441.78515625 530 614.418945312 530 614.418945312 540 c 1
 614.418945312 530.357421875 395.821073607 9.642578125 395.821073607 -0 c 1
EndSplineSet
EndChar

StartChar: w
Encoding: 119 119 88
Width: 897
GlyphClass: 1
Flags: W
HStem: -0 21G<163.13 322.528 510.473 670.968> 520 20G<5.5 171.688 345.376 515.471 683.341 849.635>
LayerCount: 2
Fore
SplineSet
670.967773438 -0 m 1
 510.47265625 -0 l 1
 510.47265625 10 429.013671875 358.322265625 429.013671875 348.322265625 c 1
 429.013671875 358.322265625 322.528320312 10 322.528320312 -0 c 1
 322.528320312 10 163.129882812 10 163.129882812 -0 c 1
 163.129882812 9.642578125 5.5 530.357421875 5.5 540 c 1
 171.6875 540 l 1
 171.6875 530 249.573242188 187.666015625 249.573242188 197.666015625 c 1
 249.573242188 187.666015625 345.375976562 530 345.375976562 540 c 1
 515.470703125 540 l 1
 515.470703125 530 589.405273438 189.177734375 589.405273438 199.177734375 c 1
 589.405273438 189.177734375 683.340820312 530 683.340820312 540 c 1
 683.340820312 530 849.634765625 530 849.634765625 540 c 1
 849.634765625 530.357421875 670.967773438 9.642578125 670.967773438 -0 c 1
EndSplineSet
EndChar

StartChar: x
Encoding: 120 120 89
Width: 646
GlyphClass: 1
Flags: W
HStem: -0 21G<17.5996 209.927 419.896 612.254> 520 20G<21.6768 214.368 415.452 608.177>
LayerCount: 2
Fore
SplineSet
315.484898804 386.666992188 m 1
 315.484898804 376.666992188 415.452148438 530 415.452148438 540 c 1
 415.452148438 530 608.176757812 530 608.176757812 540 c 1
 608.176757812 530.357421875 424.377929688 271.87890625 424.377929688 271.948242188 c 1
 424.377929688 271.87890625 612.25390625 9.642578125 612.25390625 -0 c 1
 612.25390625 10 419.895507812 10 419.895507812 -0 c 1
 419.895507812 10 315.484281183 168.541992188 315.484281183 158.541992188 c 1
 315.484281183 168.541992188 209.926757812 10 209.926757812 -0 c 1
 209.926757812 10 17.599609375 10 17.599609375 0 c 1
 17.599609375 9.642578125 205.475585938 271.87890625 205.475585938 271.948242188 c 1
 205.475585938 271.87890625 21.6767578125 530.357421875 21.6767578125 540 c 1
 214.368164062 540 l 1
 214.368164062 530 315.484898804 376.666992188 315.484898804 386.666992188 c 1
EndSplineSet
EndChar

StartChar: y
Encoding: 121 121 90
Width: 657
GlyphClass: 1
Flags: W
HStem: -219 123<92.8798 199.798> 520 20G<9.90039 188.903 448.445 616.468>
LayerCount: 2
Fore
SplineSet
448.4453125 540 m 1
 616.467773438 540 l 1
 616.467773438 530.306640625 373.545707537 -82.9296875 373.545707537 -92.623046875 c 1
 345.839403329 -158.319335938 322.603564475 -184.321289062 272.985102397 -201.401367188 c 0
 241.418855559 -211.995117188 193.099738204 -219 151.9921875 -219 c 0
 136.68359375 -219 128.57421875 -219 91.29296875 -213.673828125 c 1
 91.29296875 -203.673828125 91.29296875 -77.3720703125 91.29296875 -87.3720703125 c 1
 122.569335938 -94.7314453125 127.9609375 -96 138.29296875 -96 c 0
 189.202762134 -96 225.419351037 -63.462890625 226.257364897 -13.7685546875 c 1
 226.257364897 -4.1171875 9.900390625 530.348632812 9.900390625 540 c 1
 9.900390625 530 188.903320312 530 188.903320312 540 c 1
 188.903320312 530 322.60673877 159.516601562 322.60673877 169.516601562 c 1
 322.60673877 159.516601562 448.4453125 530 448.4453125 540 c 1
EndSplineSet
EndChar

StartChar: z
Encoding: 122 122 91
Width: 591
GlyphClass: 1
Flags: W
HStem: 0 133<241.052 530.8> 407 133<41.0996 304.451>
LayerCount: 2
Fore
SplineSet
41.099609375 540 m 1
 521.799804688 540 l 1
 521.799804688 530.46875 521.799804688 415.256835938 521.799804688 419.126953125 c 1
 521.799804688 415.256835938 241.052477072 142.53125 241.052477072 133 c 1
 530.799804688 133 l 1
 530.799804688 143 530.799804688 10 530.799804688 0 c 1
 23.099609375 0 l 1
 23.099609375 9.53125 23.099609375 124.754882812 23.099609375 120.884765625 c 1
 23.099609375 124.754882812 304.451127676 397.46875 304.451127676 407 c 1
 41.099609375 407 l 1
 41.099609375 397 41.099609375 530 41.099609375 540 c 1
EndSplineSet
EndChar

StartChar: braceleft
Encoding: 123 123 92
Width: 436
GlyphClass: 1
Flags: W
HStem: -200 119<261.58 340.7> 213.041 111.959<40.7002 115.733> 610 119<261.337 340.7>
VStem: 121.646 136.996<-76.7675 -49.875 -49.7271 205.488 331.268 606.965>
LayerCount: 2
Fore
SplineSet
40.7001953125 325 m 1
 66.7001953125 325 l 2
 110.892578125 325 121.734375 345.9140625 121.734375 373.959960938 c 0
 121.734375 374.788085938 121.703125 375.629882812 121.703125 376.483398438 c 0
 121.703125 582.5625 121.703125 582.5625 121.703125 582.5625 c 2
 121.693359375 583.307617188 121.686523438 584.051757812 121.686523438 584.793945312 c 0
 121.686523438 665.344726562 177.01953125 729.01171875 252.981445312 729.01171875 c 0
 253.576171875 729.01171875 254.172851562 729.0078125 254.770507812 729 c 2
 340.700195312 729 l 1
 340.700195312 719 340.700195312 600 340.700195312 610 c 1
 293.700195312 610 l 2
 276.344726562 610 258.653320312 605.1015625 258.653320312 567.91796875 c 0
 258.653320312 566.86328125 258.697265625 565.786132812 258.697265625 564.685546875 c 0
 258.697265625 375.375976562 258.697265625 375.375976562 258.697265625 375.375976562 c 2
 258.697265625 323.31640625 244.9296875 286.407226562 197.1875 269.435546875 c 1
 244.672851562 252.064453125 258.700195312 215.526367188 258.700195312 163.049804688 c 2
 258.700195312 166.9765625 258.700195312 -16.5263671875 258.700195312 -26.220703125 c 2
 258.6640625 -27.8984375 258.642578125 -29.5322265625 258.642578125 -31.1220703125 c 0
 258.642578125 -75.8427734375 273.314453125 -81 293.700195312 -81 c 0
 340.700195312 -91 340.700195312 -91 340.700195312 -81 c 1
 340.700195312 -71 340.700195312 -190 340.700195312 -200 c 1
 254.770507812 -200 l 2
 254.172851562 -200.0078125 253.576171875 -200.01171875 252.981445312 -200.01171875 c 0
 177.763671875 -200.01171875 121.646484375 -135.993164062 121.646484375 -54.2939453125 c 0
 121.646484375 -52.826171875 121.6640625 -51.353515625 121.700195312 -49.875 c 2
 121.700195312 -49.875 121.737304688 154.236328125 121.737304688 156.298828125 c 0
 121.737304688 198.736328125 109.884765625 213.041015625 55.765625 213.041015625 c 0
 53.376953125 213.041015625 53.376953125 213.041015625 40.7001953125 212.83984375 c 1
 40.7001953125 325 l 1
EndSplineSet
EndChar

StartChar: bar
Encoding: 124 124 93
Width: 324
GlyphClass: 1
Flags: W
HStem: 709 20G<99 219>
VStem: 99 120<-200 729>
LayerCount: 2
Fore
SplineSet
99 729 m 1
 219 729 l 1
 219 719.2109375 219 -190.2109375 219 -200 c 1
 99 -200 l 1
 99 -190.2109375 99 719.2109375 99 729 c 1
EndSplineSet
EndChar

StartChar: braceright
Encoding: 125 125 94
Width: 432
GlyphClass: 1
Flags: W
HStem: -200 119<79.2002 158.564> 204 111.959<304.471 379.2> 610 119<79.2002 158.32>
VStem: 161.247 136.967<-78.6257 197.372 323.081 367.527 367.55 582.274 582.424 608.68>
LayerCount: 2
Fore
SplineSet
379.200195312 204 m 1
 353.200195312 204 l 2
 309.0078125 204 298.166015625 183.379882812 298.166015625 155.729492188 c 0
 298.166015625 154.912109375 298.197265625 154.083007812 298.197265625 153.241210938 c 0
 298.197265625 -49.9375 298.197265625 -49.9375 298.197265625 -49.9375 c 2
 298.20703125 -50.701171875 298.213867188 -51.462890625 298.213867188 -52.224609375 c 0
 298.213867188 -134.768554688 242.880859375 -200.01171875 166.918945312 -200.01171875 c 0
 166.32421875 -200.01171875 165.727539062 -200.0078125 165.129882812 -200 c 2
 79.2001953125 -200 l 1
 79.2001953125 -190 79.2001953125 -71 79.2001953125 -81 c 1
 126.200195312 -81 l 2
 143.555664062 -81 161.247070312 -75.9482421875 161.247070312 -37.5947265625 c 0
 161.247070312 -36.5068359375 161.203125 -35.396484375 161.203125 -34.2607421875 c 0
 161.203125 155.12109375 161.203125 155.12109375 161.203125 155.12109375 c 2
 161.203125 207.200195312 174.970703125 244.124023438 222.712890625 261.1015625 c 1
 175.227539062 278.478515625 161.200195312 315.030273438 161.200195312 367.52734375 c 2
 161.200195312 365.12890625 161.200195312 548.771484375 161.200195312 556.870117188 c 2
 161.236328125 558.497070312 161.2578125 560.08203125 161.2578125 561.624023438 c 0
 161.2578125 604.998046875 146.5859375 610 126.200195312 610 c 0
 79.2001953125 620 79.2001953125 620 79.2001953125 610 c 1
 79.2001953125 600 79.2001953125 719 79.2001953125 729 c 1
 165.129882812 729 l 2
 165.727539062 729.0078125 166.32421875 729.01171875 166.918945312 729.01171875 c 0
 242.13671875 729.01171875 298.25390625 666.505859375 298.25390625 586.73828125 c 0
 298.25390625 585.305664062 298.236328125 583.8671875 298.200195312 582.423828125 c 2
 298.200195312 582.423828125 298.163085938 375.556640625 298.163085938 373.467773438 c 0
 298.163085938 330.45703125 310.015625 315.958984375 364.134765625 315.958984375 c 0
 366.5234375 315.958984375 366.5234375 315.958984375 379.200195312 316.16015625 c 1
 379.200195312 204 l 1
EndSplineSet
EndChar

StartChar: asciitilde
Encoding: 126 126 95
Width: 688
GlyphClass: 1
Flags: W
HStem: 265 100<384.638 487.468> 357 100<169.786 280.084>
VStem: 66 98.1299<292 335.483> 493.992 98.2676<386.192 431>
LayerCount: 2
Fore
SplineSet
493.9921875 431 m 1xb0
 592.259765625 431 l 1
 589.240234375 381.6796875 582.096679688 265 452.552830724 265 c 0xb0
 411.821315567 265 380.246123228 272.857421875 348.676180471 292.52734375 c 0
 280.999605256 334.693359375 280.999605256 334.693359375 280.999605256 334.693359375 c 2
 254.656147419 351.157226562 237.185534912 357 214.844359219 357 c 0
 189.020610107 357 175.904296875 349.459960938 169.1484375 335.881835938 c 0
 165.565429688 327.2421875 165.552734375 326.923828125 164.129882812 292 c 1
 66 292 l 1
 68.447265625 339.471679688 74.5048828125 457 210.114484859 457 c 0x70
 250.776705519 457 284.275345101 448.986328125 314.244165017 430.314453125 c 0
 381.833597153 388.202148438 381.833597153 388.202148438 381.833597153 388.202148438 c 2
 411.851763149 368.677734375 425.057614358 365 447.821906448 365 c 0
 471.979437888 365 483.20703125 372.151367188 489.37109375 385.797851562 c 0
 492.567382812 394.314453125 492.708007812 396.322265625 493.9921875 431 c 1xb0
EndSplineSet
EndChar

StartChar: exclamdown
Encoding: 161 161 97
Width: 382
GlyphClass: 1
Flags: W
HStem: 374 166<72.5996 242.6>
VStem: 72.5996 170<-186 346.203 373.659 540>
LayerCount: 2
Fore
SplineSet
242.599609375 -186 m 1
 72.599609375 -186 l 1
 72.599609375 -176 72.599609375 44 72.599609375 34 c 2
 72.599609375 91.126953125 75.88671875 207.547851562 85.220703125 353 c 1
 231.029296875 353 l 1
 236.551757812 259.119140625 242.599609375 123.407226562 242.599609375 34 c 2
 242.599609375 44 242.599609375 -176 242.599609375 -186 c 1
242.599609375 374 m 1
 72.599609375 374 l 1
 72.599609375 364 72.599609375 530 72.599609375 540 c 1
 242.599609375 540 l 1
 242.599609375 530 242.599609375 364 242.599609375 374 c 1
EndSplineSet
EndChar

StartChar: cent
Encoding: 162 162 98
Width: 637
GlyphClass: 1
Flags: W
VStem: 40.7002 162.918<156.26 368.904> 278.94 68.6688<-122.775 -21.1072 113.229 419.57 568.664 654.398> 573.858 1.00098<196.546 207 338.469 348.652>
LayerCount: 2
Fore
SplineSet
278.939530182 -20.2734375 m 1
 123.653320312 -7.0205078125 40.7001953125 102.852539062 40.7001953125 269 c 0
 40.7001953125 336.475585938 49.201171875 539.684570312 278.939530182 566.954101562 c 1
 278.939530182 576.954101562 278.939530182 664 278.939530182 654 c 1
 347.608350688 654 l 1
 347.608350688 664 347.608350688 578.6640625 347.608350688 568.6640625 c 1
 477.837890625 562.279296875 565.780273438 474.181640625 573.879882812 348.65234375 c 2
 573.879882812 358.65234375 574.56640625 348 574.56640625 338 c 1
 419.365046774 338 l 1
 409.80803518 380.481445312 397.481680132 421.106445312 347.608350688 432.840820312 c 1
 347.608350688 442.840820312 347.608350688 123.228515625 347.608350688 113.228515625 c 1
 394.985813273 124.776367188 408.441700006 164.453125 419.666814051 207 c 1
 574.859375 207 l 1
 574.859375 217 573.858398438 206.077148438 573.858398438 196.077148438 c 2
 562.721679688 74.5908203125 474.016601562 -13.1416015625 347.608350688 -21.494140625 c 1
 347.608350688 -11.494140625 347.608350688 -114.229492188 347.608350688 -124.229492188 c 1
 347.608350688 -114.229492188 278.939530182 -112.775390625 278.939530182 -122.775390625 c 1
 278.939530182 -112.775390625 278.939530182 -10.2734375 278.939530182 -20.2734375 c 1
278.939530182 107.809570312 m 1
 278.939530182 419.5703125 l 1
 231.819827146 402.662109375 203.618208129 349.729492188 203.618208129 260 c 0
 203.618208129 176.294921875 231.405944942 125.8984375 278.939530182 107.809570312 c 1
EndSplineSet
EndChar

StartChar: sterling
Encoding: 163 163 99
Width: 655
GlyphClass: 1
Flags: W
HStem: -23 145<304.967 540.632> 9 132.918<192.441 361.304> 306 75<37.2305 90.0879 304.132 440.58> 584 131<240.018 392.464>
VStem: 44.2305 167.192<452.613 554.956> 147.23 168.248<191.778 304.793> 437.869 157.846<464 542.696>
LayerCount: 2
Fore
SplineSet
612.15234375 27.6533203125 m 1xb6
 564.698242188 -0.310546875 520.900390625 -23 449.826986352 -23 c 0xb6
 368.642057865 -23 296.192696189 9 219.500107669 9 c 0
 165.381319887 9 140.790039062 -2.12890625 98.150390625 -24.41796875 c 1
 98.150390625 -14.7109375 34.099609375 96.1005859375 34.099609375 89.748046875 c 1
 112.690429688 141.215820312 147.23046875 172.4765625 147.23046875 233.203125 c 0x76
 147.23046875 254.670898438 143.310546875 271.583984375 129.432617188 306 c 1
 37.23046875 306 l 1
 37.23046875 381 l 1
 90.087890625 381 l 1
 52.455078125 446.184570312 44.23046875 469.469726562 44.23046875 512.075195312 c 0
 44.23046875 592.767578125 98.052734375 647.72265625 122.206054688 665.462890625 c 0
 167.635793641 698.2421875 234.289123345 715 314.202536938 715 c 0
 437.912113321 715 527.37109375 675.216796875 565.719726562 599.583984375 c 0
 587.202148438 558.051757812 591.625976562 512.254882812 595.71484375 464 c 1
 437.868518525 464 l 1
 431.329299072 525.549804688 424.58144738 539.315429688 398.675758635 559.256835938 c 0
 377.536434292 575.529296875 349.743713648 584 315.37233064 584 c 0
 252.801342223 584 211.422614689 550.83203125 211.422614689 507.755859375 c 0x7a
 211.422614689 489.831054688 213.308608616 485.219726562 241.680517269 438.000976562 c 0
 253.544529704 418.659179688 262.405691048 403.755859375 274.203273317 381 c 1
 440.579699669 381 l 1
 440.579699669 306 l 1
 304.132138982 306 l 1
 312.647655869 288.591796875 315.478203717 275.819335938 315.478203717 259.525390625 c 0
 315.478203717 213.74609375 291.826988727 175.837890625 235.903168781 131.923828125 c 1
 261.613718914 139.676757812 279.16477633 141.91796875 300.173316285 141.91796875 c 0x76
 354.928380499 141.91796875 393.579319348 122 448.65719265 122 c 0
 498.46875 122 532.55859375 139.044921875 564.286132812 154.908203125 c 1
 564.286132812 164.908203125 612.15234375 37.6533203125 612.15234375 27.6533203125 c 1xb6
EndSplineSet
EndChar

StartChar: currency
Encoding: 164 164 100
Width: 651
GlyphClass: 1
Flags: W
HStem: 137 118<243.724 389.401> 440 118<243.754 389.689>
VStem: 82.791 119.199<293.638 401.625> 431.117 119.074<294.346 400.998>
LayerCount: 2
Fore
SplineSet
193.293876623 529.313476562 m 1
 230.231442104 547.120117188 276.33120252 558 318.893857069 558 c 0
 362.125497279 558 407.166722929 548.190429688 442.094215031 530.458984375 c 1
 442.094215031 520.458984375 519.19140625 595.139648438 519.19140625 605.139648438 c 1
 519.19140625 595.348632812 602.330078125 515.650390625 602.330078125 523.739257812 c 1
 602.330078125 515.650390625 525.372070312 441.876953125 525.372070312 448.389648438 c 1
 544.1484375 411.141601562 550.19140625 385.844726562 550.19140625 349.461914062 c 0
 550.19140625 312.153320312 541.790039062 278.83203125 523.606445312 245.4765625 c 1
 523.606445312 243.208007812 602.4296875 168.62890625 602.4296875 169.3046875 c 1
 602.4296875 168.620117188 519.139648438 87.912109375 519.139648438 87.912109375 c 1
 519.139648438 87.912109375 439.564742846 163.754882812 439.564742846 164.334960938 c 1
 389.38043022 142.341796875 367.366231231 137 324.744365218 137 c 0
 279.464216117 137 230.488025114 147.254882812 196.457015351 164.858398438 c 1
 196.457015351 164.271484375 112.680664062 85.8681640625 112.680664062 85.8681640625 c 1
 112.680664062 85.8681640625 30.658203125 167.768554688 30.658203125 168.4296875 c 1
 30.658203125 167.776367188 110.430664062 243.287109375 110.430664062 245.54296875 c 1
 90.66015625 282.155273438 82.791015625 309.9921875 82.791015625 347.53125 c 0
 82.791015625 383.6953125 91.7724609375 419.041015625 109.192382812 448.83984375 c 1
 109.192382812 442.358398438 28.599609375 519.634765625 28.599609375 527.756835938 c 1
 28.599609375 519.634765625 111.841796875 598.295898438 111.841796875 608.087890625 c 1
 111.841796875 598.087890625 193.293876623 519.313476562 193.293876623 529.313476562 c 1
431.117240667 347.974609375 m 0
 431.117240667 397.041015625 380.422878414 440 317.724170958 440 c 0
 252.409771116 440 201.989651431 398.904296875 201.989651431 347.025390625 c 0
 201.989651431 297.061523438 252.523000055 255 316.553446049 255 c 0
 380.537146151 255 431.117240667 296.9921875 431.117240667 347.974609375 c 0
EndSplineSet
EndChar

StartChar: yen
Encoding: 165 165 101
Width: 643
GlyphClass: 1
Flags: W
HStem: -10 21G<238.09 407.017> 170 79<78.1406 238.09 407.017 561.841> 282 79<78.1406 221.894 420.348 561.841>
VStem: 238.09 168.927<-10 170 249 282>
LayerCount: 2
Fore
SplineSet
420.347771367 361 m 1
 561.840820312 361 l 1
 561.840820312 282 l 1
 407.01735151 282 l 1
 407.01735151 249 l 1
 561.840820312 249 l 1
 561.840820312 170 l 1
 407.01735151 170 l 1
 407.01735151 -10 l 1
 238.090443836 -10 l 1
 238.090443836 170 l 1
 78.140625 170 l 1
 78.140625 249 l 1
 238.090443836 249 l 1
 238.090443836 282 l 1
 78.140625 282 l 1
 78.140625 361 l 1
 221.893710482 361 l 1
 221.893710482 361 5.5 694.283203125 5.5 704 c 1
 172.298238601 704 l 1
 172.298238601 694 320.252598491 450.369140625 320.252598491 460.369140625 c 1
 320.252598491 450.369140625 462.232035102 694 462.232035102 704 c 1
 462.232035102 694 623.966796875 694 623.966796875 704 c 1
 623.966796875 694.283203125 420.347771367 361 420.347771367 361 c 1
EndSplineSet
EndChar

StartChar: brokenbar
Encoding: 166 166 102
Width: 324
GlyphClass: 1
Flags: W
HStem: 709 20G<99 219>
VStem: 99 120<-200 209.165 319.835 729>
LayerCount: 2
Fore
SplineSet
99 729 m 1
 219 729 l 1
 219 719 219 310 219 320 c 1
 99 320 l 1
 99 310 99 719 99 729 c 1
99 209 m 1
 219 209 l 1
 219 219 219 -190 219 -200 c 1
 99 -200 l 1
 99 -190 99 219 99 209 c 1
EndSplineSet
EndChar

StartChar: section
Encoding: 167 167 103
Width: 655
GlyphClass: 1
Flags: W
HStem: -201 131<249.517 376.243> 601 122<243.498 363.767>
VStem: 36.2998 139.244<276.57 358.89> 67.2998 170.358<528.907 592.464> 391.498 170.301<-54.0011 19.5295> 444.418 141.382<194.763 271.313>
LayerCount: 2
Fore
SplineSet
120.240234375 145.928710938 m 0xc8
 66 175.7421875 36.2998046875 225.749023438 36.2998046875 282.86328125 c 0xe8
 36.2998046875 343.62890625 57.890625 377.008789062 123.228515625 426.95703125 c 1
 105.41796875 444.518554688 101.75 449.119140625 96.337890625 456.14453125 c 0
 77.64453125 479.733398438 67.2998046875 513.620117188 67.2998046875 545.77734375 c 0
 67.2998046875 650.147460938 162.421984631 723 308.109821959 723 c 0
 401.72989698 723 479.479492188 694.635742188 513.268554688 642.317382812 c 0
 537.390625 604.005859375 539.46484375 566.904296875 541.216796875 524 c 1
 384.705977102 524 l 1
 378.868816791 561.58203125 370.286906979 601 302.229856501 601 c 0
 258.936105152 601 237.657771346 583.581054688 237.657771346 561.973632812 c 0
 237.657771346 540.69140625 252.975749541 525.352539062 337.648504965 486.764648438 c 0
 386.715730921 463.947265625 436.313323079 442.03125 483.623046875 418.315429688 c 0
 553.51953125 381.80859375 585.799804688 330.337890625 585.799804688 260.491210938 c 0xd4
 585.799804688 196.234375 560.530273438 155.064453125 500.673828125 124.080078125 c 1
 541.359375 91.267578125 561.799804688 48.201171875 561.799804688 -4.890625 c 0
 561.799804688 -122.48828125 467.514648438 -201 311.637592428 -201 c 0
 76.369140625 -201 68.7568359375 -50.79296875 68.224609375 20 c 1
 228.248991391 20 l 1
 228.248991391 30 228.248991391 10.3505859375 228.248991391 0.3505859375 c 1
 230.980168529 -36.4169921875 236.508296565 -41.6015625 247.089519916 -50.599609375 c 0
 260.918714243 -62.359375 284.139984078 -70 312.814211936 -70 c 0
 362.905629318 -70 391.498422995 -47.197265625 391.498422995 -19 c 0
 391.498422995 -4.3876953125 384.680920431 8.5498046875 374.01304276 17.46484375 c 0
 361.790607459 26.669921875 363.166636307 25.0595703125 315.021287039 48.26953125 c 0
 248.880027863 80.15625 182.913121357 112.42578125 120.240234375 145.928710938 c 0xc8
400.282874231 178.49609375 m 1
 435.42798737 200.356445312 444.418112114 214.799804688 444.418112114 232 c 0xe4
 444.418112114 256.19140625 435.767296457 271.193359375 378.729961072 296.991210938 c 2
 215.567183789 370.73046875 l 1
 185.514839027 354.57421875 175.543328004 340.42578125 175.543328004 317 c 0
 175.543328004 293.138671875 182.978895118 279.203125 232.897003859 255.958007812 c 2
 400.282874231 178.49609375 l 1
EndSplineSet
EndChar

StartChar: dieresis
Encoding: 168 168 104
Width: 371
GlyphClass: 1
Flags: W
HStem: 601 142<19.7998 149.8 205.8 335.8>
VStem: 19.7998 130<600.641 743> 205.8 130<600.641 743>
LayerCount: 2
Fore
SplineSet
19.7998046875 743 m 1
 149.799804688 743 l 1
 149.799804688 733 149.799804688 591 149.799804688 601 c 1
 19.7998046875 601 l 1
 19.7998046875 591 19.7998046875 733 19.7998046875 743 c 1
205.799804688 743 m 1
 335.799804688 743 l 1
 335.799804688 733 335.799804688 591 335.799804688 601 c 1
 205.799804688 601 l 1
 205.799804688 591 205.799804688 733 205.799804688 743 c 1
EndSplineSet
EndChar

StartChar: copyright
Encoding: 169 169 105
Width: 868
GlyphClass: 1
Flags: W
HStem: -22 92<288.038 527.989> 118 103<335.984 477.346> 499 103<337.83 478.74> 651 92<290.203 530.136>
VStem: -15.4004 98<259.314 462.93> 173.742 115.754<270.232 448.098> 743.3 98<262.301 458.502>
LayerCount: 2
Fore
SplineSet
315.16796875 454.596679688 m 0
 298.856445312 431.537109375 289.49609375 399.307617188 289.49609375 359 c 0
 289.49609375 313.22265625 302.286132812 221 405.353515625 221 c 0
 449.6640625 221 497.890625 235.752929688 504.208007812 297.987304688 c 2
 505.123046875 307 l 1
 629.9765625 307 l 1
 629.40625 296.469726562 l 2
 623.38671875 185.28125 534.125 118 403.080078125 118 c 0
 323.0390625 118 260.482421875 146.68359375 221.166992188 198.497070312 c 0
 189.829101562 239.796875 173.7421875 294.868164062 173.7421875 360 c 0
 173.7421875 425.153320312 190.048828125 480.248046875 221.740234375 521.546875 c 0
 261.4921875 573.349609375 324.654296875 602 405.353515625 602 c 0
 483.802734375 602 549.583007812 576.202148438 590.764648438 528.2578125 c 0
 615.705078125 498.790039062 625.139648438 468.208007812 628.012695312 421 c 1
 506.215820312 421 l 1
 498.0546875 456.239257812 486.263671875 499 408.764648438 499 c 0
 366.791992188 499 335.404296875 483.203125 315.16796875 454.596679688 c 0
-15.400390625 360.987304688 m 0
 -15.400390625 571.489257812 173.172851562 743 408.764648438 743 c 0
 653.689453125 743 841.299804688 572.53125 841.299804688 360.987304688 c 0
 841.299804688 146.474609375 653.55078125 -22 403.080078125 -22 c 0
 173.004882812 -22 -15.400390625 151.547851562 -15.400390625 360.987304688 c 0
743.299804688 360.983398438 m 0
 743.299804688 520.295898438 593.6171875 651 407.626953125 651 c 0
 227.599609375 651 82.599609375 520.557617188 82.599609375 360.983398438 c 0
 82.599609375 202.323242188 228.782226562 70 404.216796875 70 c 0
 594.866210938 70 743.299804688 198.768554688 743.299804688 360.983398438 c 0
EndSplineSet
EndChar

StartChar: ordfeminine
Encoding: 170 170 106
Width: 413
GlyphClass: 1
Flags: W
HStem: 252 98<40 344> 366 98<138.355 214.311> 641 88<145.892 229.488>
VStem: 33 104<466.907 522.043> 42.7256 98.1367<597 636.194> 230 102<475.191 538.283 599.582 639.149>
LayerCount: 2
Fore
SplineSet
40 350 m 1xe4
 344 350 l 1
 344 252 l 1
 40 252 l 1
 40 350 l 1xe4
42.7255859375 597 m 1xec
 43.7451171875 634.698242188 46.2939453125 729 189 729 c 0
 252.776367188 729 332 710.5703125 332 619 c 2
 332 609 332 430 332 440 c 2
 332 423.462890625 336.0546875 419.224609375 352 404.342773438 c 1
 352 394.342773438 352 370 352 380 c 1
 245.1953125 380 l 1
 239.260742188 387.41796875 235.245117188 392.438476562 232.541015625 401.319335938 c 1
 205.545898438 378.517578125 175.033203125 366 142 366 c 0
 76.9111328125 366 33 409.7890625 33 474 c 0xf4
 33 554.586914062 88.6279296875 578.606445312 137.26171875 586.849609375 c 2
 137.26171875 586.849609375 170.202148438 592.838867188 170.346679688 592.86328125 c 0
 213.392578125 600.048828125 210.049804688 599.244140625 220.377929688 604.870117188 c 0
 227.079101562 608.220703125 230 611.9375 230 620 c 0
 230 631.680664062 221.690429688 641 191 641 c 0
 146.1953125 641 144.485351562 626.889648438 140.862304688 597 c 1
 42.7255859375 597 l 1xec
137 493 m 0
 137 482.453125 141.500976562 464 173 464 c 0
 192.974609375 464 230 471.84375 230 530 c 2
 230 538.283203125 l 1
 228.532226562 537.862304688 228.532226562 537.862304688 177.033203125 527.20703125 c 0
 140.5078125 519.90234375 137 508.21875 137 493 c 0
EndSplineSet
EndChar

StartChar: guillemotleft
Encoding: 171 171 107
Width: 648
GlyphClass: 1
Flags: W
LayerCount: 2
Fore
SplineSet
96.7998046875 213.37890625 m 1
 96.7998046875 336.560546875 l 1
 96.7998046875 336.560546875 296.74140176 488.153320312 296.74140176 495.36328125 c 1
 296.74140176 488.208007812 296.74140176 359.349609375 296.74140176 359.349609375 c 1
 188.323242188 275 l 1
 296.74140176 190.650390625 l 1
 296.74140176 190.650390625 296.74140176 65.1953125 296.74140176 57.9912109375 c 1
 296.74140176 65.2529296875 96.7998046875 213.37890625 96.7998046875 213.37890625 c 1
330.858207615 213.37890625 m 1
 330.858207615 336.560546875 l 1
 330.858207615 336.560546875 530.799804688 488.153320312 530.799804688 495.36328125 c 1
 530.799804688 488.208007812 530.799804688 359.485351562 530.799804688 359.485351562 c 1
 434.922851562 275 l 1
 530.799804688 190.514648438 l 1
 530.799804688 190.514648438 530.799804688 65.1953125 530.799804688 57.9912109375 c 1
 530.799804688 65.2529296875 330.858207615 213.37890625 330.858207615 213.37890625 c 1
EndSplineSet
EndChar

StartChar: logicalnot
Encoding: 172 172 108
Width: 690
GlyphClass: 1
Flags: W
HStem: 288 97<44 521.7>
VStem: 521.7 97<76 288>
LayerCount: 2
Fore
SplineSet
44 288 m 1
 44 385 l 1
 618.700195312 385 l 1
 618.700195312 76 l 1
 521.700195312 76 l 1
 521.700195312 288 l 1
 44 288 l 1
EndSplineSet
EndChar

StartChar: uni00AD
Encoding: 173 173 109
Width: 373
GlyphClass: 1
Flags: W
HStem: 197 155<28.5996 320.6>
VStem: 28.5996 292<197 352>
LayerCount: 2
Fore
SplineSet
28.599609375 352 m 1
 320.599609375 352 l 1
 320.599609375 197 l 1
 28.599609375 197 l 1
 28.599609375 352 l 1
EndSplineSet
EndChar

StartChar: registered
Encoding: 174 174 110
Width: 867
GlyphClass: 1
Flags: W
HStem: -22 92<288.446 529.655> 303 101<326.605 475.794> 492 101<326.605 491.282> 651 92<290.612 529.732>
VStem: -15.4004 98<263.875 458.365> 206.714 119.891<130 303 404 492> 478.741 130.947<167.484 295.785> 495.795 128.676<409.371 486.599> 742.9 98<254.263 458.507>
LayerCount: 2
Fore
SplineSet
742.900390625 361 m 0xfe80
 742.900390625 520.303710938 593.214785145 651 407.220964082 651 c 0
 230.591581728 651 82.599609375 520.485351562 82.599609375 360.983398438 c 0
 82.599609375 202.395507812 231.774500694 70 403.809474232 70 c 0
 488.365975332 70 564.764170971 95.1220703125 623.60732431 137.119140625 c 1
 499.249435409 137.119140625 l 1
 482.156660078 162.625 477.604642555 172.677734375 477.604642555 224.374023438 c 0
 477.604642555 224.703125 477.604642555 225.047851562 477.604642555 225.40625 c 0
 477.604642555 231.26953125 477.635931368 241.072265625 478.741132961 249.880859375 c 2
 478.741132961 252.06640625 478.741132961 267.143554688 478.741132961 265.604492188 c 2xfe80
 478.741132961 283.622070312 473.611786387 303 419.726395813 303 c 2
 326.604834691 303 l 1
 326.604834691 130 l 1
 206.714180724 130 l 1
 206.714180724 593 l 1
 476.571102435 593 l 2
 516.60059577 593 550.322870148 583.751953125 575.638547199 565.6015625 c 0
 607.470371727 542.778320312 624.470289938 506.678710938 624.470289938 462 c 0xfd80
 624.470289938 413.74609375 603.35538826 379.272460938 559.413784078 354.556640625 c 1
 606.047235429 331.887695312 606.765868794 304.924804688 609.68784013 195.26171875 c 2
 609.68784013 195 l 2
 609.68784013 177.93359375 613.740245973 175.896484375 631.292260323 167.075195312 c 1
 631.292260323 135.899414062 l 1
 700.633314826 190.783203125 742.900390625 270.904296875 742.900390625 361 c 0xfe80
-15.400390625 360.987304688 m 0
 -15.400390625 571.485351562 173.166518105 743 408.357454488 743 c 0
 653.28728601 743 840.900390625 572.53125 840.900390625 360.987304688 c 0
 840.900390625 146.474609375 653.149009646 -22 402.672983826 -22 c 0
 172.997962246 -22 -15.400390625 151.551757812 -15.400390625 360.987304688 c 0
432.231827543 404 m 2
 488.36092875 404 495.794544948 417.803710938 495.794544948 448 c 0xfd80
 495.794544948 478.196289062 488.36092875 492 432.231827543 492 c 2
 326.604834691 492 l 1
 326.604834691 404 l 1
 432.231827543 404 l 2
EndSplineSet
EndChar

StartChar: macron
Encoding: 175 175 111
Width: 371
GlyphClass: 1
Flags: W
HStem: 620 99<17.5996 336.6>
VStem: 17.5996 319<619.61 719>
LayerCount: 2
Fore
SplineSet
17.599609375 719 m 1
 336.599609375 719 l 1
 336.599609375 709 336.599609375 610 336.599609375 620 c 1
 17.599609375 620 l 1
 17.599609375 610 17.599609375 709 17.599609375 719 c 1
EndSplineSet
EndChar

StartChar: degree
Encoding: 176 176 112
Width: 466
GlyphClass: 1
Flags: W
HStem: 383 83<162.055 285.408> 613 83<159.378 289.592>
VStem: 52.7998 83<492.615 590.059> 312.8 83<492.099 590.304>
LayerCount: 2
Fore
SplineSet
52.7998046875 545 m 0
 52.7998046875 628.064453125 125.31640625 696 224.920286615 696 c 0
 323.334960938 696 395.799804688 628.036132812 395.799804688 545 c 0
 395.799804688 454.444335938 323.205078125 383 222.438358904 383 c 0
 125.124023438 383 52.7998046875 456.55859375 52.7998046875 545 c 0
312.799804688 545 m 0
 312.799804688 582.848632812 277.3359375 613 224.920286615 613 c 0
 171.328125 613 135.799804688 581.96875 135.799804688 544 c 0
 135.799804688 501.512695312 171.454101562 466 222.438358904 466 c 0
 277.45703125 466 312.799804688 500.599609375 312.799804688 545 c 0
EndSplineSet
EndChar

StartChar: plusminus
Encoding: 177 177 113
Width: 672
GlyphClass: 1
Flags: W
HStem: -16 139<61.5996 583.8> 303 139<61.5996 247.899 397.502 583.8>
VStem: 247.899 149.603<127 303 442 608>
LayerCount: 2
Fore
SplineSet
61.599609375 123 m 1
 583.799804688 123 l 1
 583.799804688 133 583.799804688 -6 583.799804688 -16 c 1
 61.599609375 -16 l 1
 61.599609375 -6 61.599609375 133 61.599609375 123 c 1
397.501525329 442 m 1
 583.799804688 442 l 1
 583.799804688 303 l 1
 397.501525329 303 l 1
 397.501525329 127 l 1
 247.898939786 127 l 1
 247.898939786 303 l 1
 61.599609375 303 l 1
 61.599609375 442 l 1
 247.898939786 442 l 1
 247.898939786 442 247.898939786 598.568359375 247.898939786 608 c 1
 397.501525329 608 l 1
 397.501525329 598.568359375 397.501525329 442 397.501525329 442 c 1
EndSplineSet
EndChar

StartChar: twosuperior
Encoding: 178 178 114
Width: 392
GlyphClass: 1
Flags: W
HStem: 284 101<170.426 358.077> 624 94<135.517 237.728>
VStem: 13.0771 111<537 613.136> 245.077 115<532.703 615.222>
LayerCount: 2
Fore
SplineSet
245.077148438 576.255859375 m 0
 245.077148438 603.959960938 227.110211387 624 184.117954408 624 c 0
 159.938745083 624 124.077148438 615.362304688 124.077148438 563 c 1
 124.077148438 553 124.088867188 552.850585938 124.088867188 562.850585938 c 2
 124.250976562 560.505859375 125.09765625 554.575195312 127.608398438 537 c 1
 15.2490234375 537 l 1
 13.48046875 551.146484375 13.0771484375 554.370117188 13.0771484375 564.62109375 c 0
 13.0771484375 564.75390625 13.0771484375 565 13.0771484375 565 c 2
 13.0771484375 618.372070312 31.404296875 660.375976562 66.9267578125 686.6953125 c 0
 95.171875 707.623046875 134.338696846 718 190.200475498 718 c 0
 243.619140625 718 280.403320312 708.901367188 307.791992188 690.533203125 c 0
 342.266601562 667.413085938 360.077148438 630.430664062 360.077148438 583.659179688 c 0
 360.077148438 522.012695312 333.311523438 490.814453125 253.859375 439.840820312 c 0
 253.27734375 439.4140625 189.368880818 399.727539062 185.921326872 397.38671875 c 0
 180.660896523 393.599609375 176.305716383 390.265625 170.426341993 385 c 1
 358.077148438 385 l 1
 358.077148438 395 358.077148438 294 358.077148438 284 c 1
 7.7001953125 284 l 1
 10.765625 366.775390625 22.3505859375 410.927734375 116.594726562 471.36328125 c 0
 236.022530375 531.000976562 245.077148438 542.532226562 245.077148438 576.255859375 c 0
EndSplineSet
EndChar

StartChar: threesuperior
Encoding: 179 179 115
Width: 392
GlyphClass: 1
Flags: W
HStem: 271 97<128.058 234.848> 471 82<125.71 225.457> 625 93<129.148 226.58>
VStem: 6.71094 111.564<379.849 434> 229.797 116.913<561.865 619.379> 245.71 115<378.99 457.033>
LayerCount: 2
Fore
SplineSet
125.709960938 553 m 1xf4
 149.771225452 553 l 2
 227.825789312 553 229.797312679 580.053710938 229.797312679 590.565429688 c 0
 229.797312679 612.467773438 210.109313266 625 177.659104334 625 c 0
 141.399651756 625 122.727539062 616.861328125 121.708007812 560.815429688 c 2
 121.708007812 550.815429688 121.530273438 541 121.530273438 551 c 1
 12.091796875 551 l 1
 14.87890625 597.44921875 17.6337890625 633.380859375 43.91015625 665.256835938 c 0
 71.416015625 700.37890625 117.721679688 718 181.296653754 718 c 0
 283.083984375 718 346.709960938 673.44140625 346.709960938 602.810546875 c 0xf8
 346.709960938 570.849609375 331.451171875 543.098632812 303.447265625 522.935546875 c 1
 341.012695312 499.276367188 360.709960938 464.227539062 360.709960938 419 c 0
 360.709960938 328.65625 291.610351562 271 180.084137281 271 c 0
 126.034179688 271 88.7578125 281.6328125 60.8828125 302.689453125 c 0
 25.86328125 329.142578125 7.291015625 371.076171875 6.7109375 423.887695312 c 2
 6.7109375 433.887695312 6.599609375 444 6.599609375 434 c 1
 118.275390625 434 l 1
 119.633789062 403.438476562 121.4296875 368 183.7216867 368 c 0
 221.289567699 368 245.709960938 388.594726562 245.709960938 418 c 0
 245.709960938 442.533203125 228.986205468 461.303710938 200.331031005 467.265625 c 0
 190.827459508 468.987304688 169.55040042 471 137.646060721 471 c 2
 125.709960938 471 l 1
 125.709960938 481 125.709960938 563 125.709960938 553 c 1xf4
EndSplineSet
EndChar

StartChar: acute
Encoding: 180 180 116
Width: 371
GlyphClass: 1
Flags: W
VStem: 133.1 233.161
LayerCount: 2
Fore
SplineSet
366.260742188 757 m 1
 366.260742188 747 223.4609375 577 223.4609375 587 c 1
 223.4609375 577 133.099609375 577 133.099609375 587 c 1
 133.099609375 577 212.432617188 747 212.432617188 757 c 1
 212.432617188 747 366.260742188 747 366.260742188 757 c 1
EndSplineSet
EndChar

StartChar: mu
Encoding: 181 181 117
Width: 706
GlyphClass: 1
Flags: W
HStem: -23 139<249.486 390.863> -23 120<534.656 636.27> 520 20G<63.7998 223.8 427.3 587.3>
VStem: 63.7998 160<-220 4.70503 141.238 540> 427.3 160<151.844 540>
LayerCount: 2
Fore
SplineSet
637.299804688 -2.0625 m 1x78
 617.819335938 -12.2265625 596.963867188 -23 557.299804688 -23 c 0x78
 512.012695312 -23 484.813476562 -10.4580078125 460.326171875 25.50390625 c 1
 420.66751373 -9.494140625 381.911281825 -23 327.3800744 -23 c 0
 283.255412338 -23 248.184628853 -14.8359375 217.799804688 4.40625 c 1
 217.799804688 14.40625 217.799804688 -210 217.799804688 -220 c 1
 63.7998046875 -220 l 1
 63.7998046875 -210.256835938 63.7998046875 530.256835938 63.7998046875 540 c 1
 223.799804688 540 l 1
 223.799804688 530.450195312 223.799804688 216.743164062 223.799804688 211.495117188 c 2
 223.799804688 169.266601562 230.180839684 159.37890625 243.616535571 143.602539062 c 0
 258.204543277 126.47265625 283.841315246 116 315.181164318 116 c 0xb8
 381.729337853 116 427.299804688 153.896484375 427.299804688 207.67578125 c 2
 427.299804688 213.095703125 427.299804688 530.450195312 427.299804688 540 c 1
 587.299804688 540 l 1
 587.299804688 530.431640625 587.299804688 164.243164062 587.299804688 157.278320312 c 2
 587.299804688 97.478515625 595.297851562 97 607.299804688 97 c 0
 612.4921875 97 612.4921875 97 637.299804688 104.442382812 c 1
 637.299804688 114.442382812 637.299804688 7.9375 637.299804688 -2.0625 c 1x78
EndSplineSet
EndChar

StartChar: paragraph
Encoding: 182 182 118
Width: 635
GlyphClass: 1
Flags: W
HStem: 637 92<360.884 413.523 534.3 577.3>
VStem: 22 338.884<386.66 592.874> 234.892 125.992<-191 257.896> 413.523 120.777<-191 637>
LayerCount: 2
Fore
SplineSet
244.501866813 729 m 0xd0
 577.299804688 739 577.299804688 739 577.299804688 729 c 1
 577.299804688 719 577.299804688 627 577.299804688 637 c 1
 534.299804688 637 l 1
 534.299804688 627.236328125 534.299804688 -181.236328125 534.299804688 -191 c 1
 413.522965736 -191 l 1
 413.522965736 -181.236328125 413.522965736 627.236328125 413.522965736 637 c 1
 360.884194757 637 l 1
 360.884194757 627.236328125 360.884194757 -181.236328125 360.884194757 -191 c 1
 234.892316799 -191 l 1
 234.892316799 -181.212890625 234.892316799 258.1328125 234.892316799 257.896484375 c 1xb0
 106.635742188 268.227539062 22 362.580078125 22 490.19140625 c 0
 22 546.108398438 40.5830078125 602.810546875 74.9306640625 647.672851562 c 0
 114.71484375 701.9296875 172.041313525 729 244.501866813 729 c 0xd0
EndSplineSet
EndChar

StartChar: periodcentered
Encoding: 183 183 119
Width: 322
GlyphClass: 1
Flags: W
HStem: 206 143<70.4004 214.4>
VStem: 70.4004 144<206 349>
LayerCount: 2
Fore
SplineSet
70.400390625 206 m 1
 70.400390625 349 l 1
 214.400390625 349 l 1
 214.400390625 206 l 1
 70.400390625 206 l 1
EndSplineSet
EndChar

StartChar: cedilla
Encoding: 184 184 120
Width: 373
GlyphClass: 1
Flags: W
HStem: -220 70<83.388 209.421> -20 20G<171.481 236.224>
VStem: 171.481 38.0264<-31.8562 -12.4797> 212.61 107<-144.299 -96.767>
LayerCount: 2
Fore
SplineSet
233.610351562 -36 m 0
 285.09375 -36 319.610351562 -67.3984375 319.610351562 -117 c 0
 319.610351562 -151.935546875 303.916015625 -220 181.610351562 -220 c 0
 127.783203125 -220 95.3369140625 -210.405273438 29.7001953125 -188.189453125 c 1
 29.7001953125 -178.189453125 55.8896484375 -106.512695312 55.8896484375 -116.512695312 c 1
 110.6484375 -140.850585938 133.524414062 -150 165.610351562 -150 c 0
 194.947265625 -150 212.610351562 -133.80859375 212.610351562 -119 c 0
 212.610351562 -106.059570312 200.353515625 -94 172.610351562 -94 c 0
 153.37890625 -94 147.504882812 -95.234375 128.073242188 -104.950195312 c 2
 128.073242188 -94.9501953125 100.908203125 -108.532226562 100.908203125 -118.532226562 c 1
 100.908203125 -109.9765625 171.481445312 -8.556640625 171.481445312 -0 c 1
 171.481445312 -10 177.610351562 -10 177.610351562 -0 c 1
 220.610351562 -0 l 1
 220.610351562 -10 236.223632812 -10 236.223632812 0 c 1
 236.223632812 -6.5537109375 209.5078125 -31.4833984375 209.5078125 -38.037109375 c 1
 217.322265625 -36.642578125 225.1171875 -36 233.610351562 -36 c 0
EndSplineSet
EndChar

StartChar: onesuperior
Encoding: 185 185 121
Width: 381
GlyphClass: 1
Flags: W
HStem: 563 81<34.0996 139.784> 689 20G<174.513 256.1>
VStem: 141.1 115<284 563>
LayerCount: 2
Fore
SplineSet
141.099609375 284 m 1
 141.099609375 293.654296875 141.099609375 563 141.099609375 563 c 1
 34.099609375 563 l 1
 34.099609375 644 l 1
 44.099609375 644 l 2
 120.38671875 644 160.15625 664.220703125 172.46875 701.698242188 c 2
 172.46875 691.698242188 174.512695312 699 174.512695312 709 c 1
 256.099609375 709 l 1
 256.099609375 699.44921875 256.099609375 293.55078125 256.099609375 284 c 1
 141.099609375 284 l 1
EndSplineSet
EndChar

StartChar: ordmasculine
Encoding: 186 186 122
Width: 427
GlyphClass: 1
Flags: W
HStem: 252 98<35.2998 376.3> 366 88<153.951 256.423> 641 88<152.745 256.478>
VStem: 25.2998 104<479.624 617.409> 281.3 104<479.05 615.846>
LayerCount: 2
Fore
SplineSet
35.2998046875 350 m 1
 376.299804688 350 l 1
 376.299804688 252 l 1
 35.2998046875 252 l 1
 35.2998046875 350 l 1
61.126953125 668.79296875 m 0
 90.708984375 707.803710938 137.298828125 729 205.299804688 729 c 0
 318.76953125 729 385.299804688 663.770507812 385.299804688 545 c 0
 385.299804688 436.40625 319.8203125 366 205.299804688 366 c 0
 90.7265625 366 25.2998046875 436.491210938 25.2998046875 547 c 0
 25.2998046875 596.203125 37.556640625 637.709960938 61.126953125 668.79296875 c 0
281.299804688 546 m 0
 281.299804688 607.485351562 251.251367187 641 205.299804688 641 c 0
 159.255664062 641 129.299804688 607.353515625 129.299804688 548 c 0
 129.299804688 488.55078125 159.415039062 454 205.299804688 454 c 0
 250.090039063 454 281.299804688 488.790039062 281.299804688 546 c 0
EndSplineSet
EndChar

StartChar: guillemotright
Encoding: 187 187 123
Width: 648
GlyphClass: 1
Flags: W
LayerCount: 2
Fore
SplineSet
297.066311589 339.62109375 m 1
 297.066311589 215.419921875 l 1
 297.066311589 215.419921875 96.7998046875 64.982421875 96.7998046875 57.7548828125 c 1
 96.7998046875 64.9287109375 96.7998046875 193.514648438 96.7998046875 193.514648438 c 1
 192.676757812 278 l 1
 96.7998046875 362.485351562 l 1
 96.7998046875 362.485351562 96.7998046875 487.8046875 96.7998046875 495.008789062 c 1
 96.7998046875 487.747070312 297.066311589 339.62109375 297.066311589 339.62109375 c 1
524.200195312 339.62109375 m 1
 524.200195312 215.419921875 l 1
 524.200195312 215.419921875 323.933688411 64.982421875 323.933688411 57.7548828125 c 1
 323.933688411 64.9296875 323.933688411 193.650390625 323.933688411 193.650390625 c 1
 432.676757812 278 l 1
 323.933688411 362.349609375 l 1
 323.933688411 362.349609375 323.933688411 487.8046875 323.933688411 495.008789062 c 1
 323.933688411 487.747070312 524.200195312 339.62109375 524.200195312 339.62109375 c 1
EndSplineSet
EndChar

StartChar: onequarter
Encoding: 188 188 124
Width: 966
GlyphClass: 1
Flags: W
HStem: -10 11G<147.35 263.06 729.949 846.3> 83 95<639.853 729.949 846.3 892.3> 553 81<25.2998 131.174> 689 20G<166.385 250.661 633.42 756.77>
VStem: 729.949 116.351<-10 83 178 300.679>
LayerCount: 2
Fore
SplineSet
132.299804688 264 m 1
 132.299804688 254 132.299804688 543 132.299804688 553 c 1
 25.2998046875 553 l 1
 25.2998046875 543 25.2998046875 624 25.2998046875 634 c 1
 35.2998046875 634 l 2
 111.586914062 634 151.556005135 657.724609375 164.274188826 701.698242188 c 2
 164.274188826 691.698242188 166.385479947 699 166.385479947 709 c 1
 250.660595462 709 l 1
 250.660595462 699 250.660595462 254 250.660595462 264 c 1
 132.299804688 264 l 1
147.349562719 -20 m 1
 147.349562719 -10.2646484375 633.419619414 705.264648438 633.419619414 715 c 1
 633.419619414 705 756.770264879 705 756.770264879 715 c 1
 756.770264879 705.264648438 263.060017568 -10.2646484375 263.060017568 -20 c 1
 263.060017568 -10 147.349562719 -10 147.349562719 -20 c 1
846.299804688 178 m 1
 892.299804688 178 l 1
 892.299804688 83 l 1
 846.299804688 83 l 1
 846.299804688 -10 l 1
 729.948898592 -10 l 1
 729.948898592 83 l 1
 526.561859684 83 l 1
 526.561859684 170.163085938 l 1
 719.01013083 435 l 1
 846.299804688 435 l 1
 846.299804688 178 l 1
639.853357959 178 m 1
 729.948898592 178 l 1
 729.948898592 300.678710938 l 1
 639.853357959 178 l 1
EndSplineSet
Ligature2: "'frac' Diagonal Fractions lookup 8 subtable" onesuperior fraction foursuperior
Ligature2: "'frac' Diagonal Fractions lookup 8 subtable" onesuperior slash foursuperior
Ligature2: "'frac' Diagonal Fractions lookup 8 subtable" one fraction four
Ligature2: "'frac' Diagonal Fractions lookup 8 subtable" one slash four
EndChar

StartChar: onehalf
Encoding: 189 189 125
Width: 961
GlyphClass: 1
Flags: W
HStem: -20 21G<141.396 256.186> -10 101<725.823 911.1> 350 94<692.34 789.313> 553 81<25.2998 131.168> 689 26G<166.363 250.549 621.105 739.729>
VStem: 132.3 118.249<263.861 553> 567.02 114.547<263 338.541> 798.1 115<245.564 340.34>
LayerCount: 2
Fore
SplineSet
132.299804688 264 m 1x3f
 132.299804688 254 132.299804688 543 132.299804688 553 c 1
 25.2998046875 553 l 1
 25.2998046875 543 25.2998046875 624 25.2998046875 634 c 1
 35.2998046875 634 l 2
 111.586914062 634 151.549393465 657.724609375 164.25413634 701.698242188 c 2
 164.25413634 691.698242188 166.363196209 699 166.363196209 709 c 1
 250.549248196 709 l 1
 250.549248196 699 250.549248196 254 250.549248196 264 c 1
 132.299804688 264 l 1x3f
621.104920484 715 m 1
 739.729209502 715 l 1
 739.729209502 705.264648438 256.186171708 -10.2646484375 256.186171708 -20 c 1
 256.186171708 -10 141.396484375 -10 141.396484375 -20 c 1xbf
 141.396484375 -10.2646484375 621.104920484 705.264648438 621.104920484 715 c 1
567.020080359 290.62109375 m 0
 567.020080359 290.75390625 567.020080359 290.879882812 567.020080359 291 c 0
 567.020080359 347.0234375 589.483129864 444 745.015462763 444 c 0
 793.442382812 444 831.5546875 434.299804688 859.737304688 414.640625 c 0
 895.245117188 389.87109375 913.099609375 350.141601562 913.099609375 300 c 0
 913.099609375 221.611328125 872.626953125 189.294921875 779.13426741 128.375 c 0
 738.700375232 102.723632812 736.893617302 101.577148438 725.823320251 91 c 1
 911.099609375 91 l 1
 911.099609375 -10 l 1
 560.915596513 -10 l 1x7f
 564.407183922 73.064453125 576.634289731 117.0859375 674.921719556 177.5234375 c 0
 790.093720416 246.194335938 798.099609375 258.224609375 798.099609375 296 c 0
 798.099609375 317.069335938 790.134027341 350 739.340247672 350 c 0
 716.247402458 350 681.536086008 341.291015625 681.567323875 288.918945312 c 0
 681.699329056 287.220703125 681.747697366 286.600585938 685.576855276 263 c 1
 569.260137736 263 l 1
 567.436249363 277.146484375 567.020080359 280.370117188 567.020080359 290.62109375 c 0
EndSplineSet
Ligature2: "'frac' Diagonal Fractions lookup 7 subtable" onesuperior fraction twosuperior
Ligature2: "'frac' Diagonal Fractions lookup 7 subtable" onesuperior slash twosuperior
Ligature2: "'frac' Diagonal Fractions lookup 7 subtable" one fraction two
Ligature2: "'frac' Diagonal Fractions lookup 7 subtable" one slash two
EndChar

StartChar: threequarters
Encoding: 190 190 126
Width: 975
GlyphClass: 1
Flags: W
HStem: 0 1G<184.931 308.38 747.311 862.311> 83 95<657.12 747.311 862.311 908.311> 261 97<141.043 241.157> 461 82<138.91 214.181> 625 93<142.621 231.977>
VStem: 19.9111 111.564<367.69 424> 236.389 128.462<552.632 618.673> 252.279 128.462<369.311 447.983> 747.311 115<0 83 178 300.679>
LayerCount: 2
Fore
SplineSet
149.200059062 461 m 2xfd80
 138.91015625 461 l 1
 138.91015625 543 l 1
 160.447313786 543 l 2
 184.597372376 543 202.721756064 546.47265625 214.748922556 552.280273438 c 0
 229.354634546 559.33203125 236.388955029 569.69921875 236.388955029 585.782226562 c 0
 236.388955029 610.033203125 218.273640082 625 186.552189986 625 c 0
 151.522664521 625 135.904296875 615.59765625 134.908203125 560.815429688 c 2
 134.908203125 550.815429688 134.73046875 541 134.73046875 551 c 1
 25.2919921875 551 l 1
 28.0791015625 597.44921875 30.833984375 633.380859375 57.1103515625 665.256835938 c 0
 84.6533203125 700.42578125 131.067382812 718 189.956998597 718 c 0
 292.521441942 718 364.850701158 670.665039062 364.850701158 593.719726562 c 0xfe80
 364.850701158 559.025390625 347.503206324 529.170898438 316.192872509 507.569335938 c 1
 358.296016336 484.583007812 380.741151525 450.388671875 380.741151525 405.831054688 c 0
 380.741151525 316.671875 302.49075147 261 188.92790427 261 c 0
 141.230700601 261 103.09765625 271.595703125 74.7353515625 292.637695312 c 0
 39.0869140625 319.0859375 20.4912109375 361.07421875 19.9111328125 413.887695312 c 2
 19.7998046875 424 l 1
 131.475585938 424 l 1
 132.911132812 391.700195312 134.833007812 358 192.227206883 358 c 0
 228.733929573 358 252.279405396 379.38671875 252.279405396 408 c 0
 252.279405396 431.916015625 235.983884575 451.060546875 208.215398131 457.221679688 c 0
 199.108366399 458.98828125 179.093653929 461 149.200059062 461 c 2xfd80
184.931089854 -20 m 1
 184.931089854 -10.2646484375 678.00442121 705.264648438 678.00442121 715 c 1
 678.00442121 705 798.428710938 705 798.428710938 715 c 1
 798.428710938 705.264648438 308.379943403 -10.2646484375 308.379943403 -20 c 1
 308.379943403 -10 184.931089854 -10 184.931089854 -20 c 1
862.310546875 178 m 1
 908.310546875 178 l 1
 908.310546875 83 l 1
 862.310546875 83 l 1
 862.310546875 83 862.310546875 8.9248046875 862.310546875 0 c 1
 747.310546875 0 l 1
 747.310546875 8.9248046875 747.310546875 83 747.310546875 83 c 1
 543.707286788 83 l 1
 543.707286788 170.163085938 l 1
 735.078041963 435 l 1
 862.310546875 435 l 1
 862.310546875 178 l 1
657.119672808 178 m 1
 747.310546875 178 l 1
 746.005875459 300.678710938 l 1
 657.119672808 178 l 1
EndSplineSet
Ligature2: "'frac' Diagonal Fractions lookup 10 subtable" threesuperior fraction foursuperior
Ligature2: "'frac' Diagonal Fractions lookup 10 subtable" threesuperior slash foursuperior
Ligature2: "'frac' Diagonal Fractions lookup 10 subtable" three fraction four
Ligature2: "'frac' Diagonal Fractions lookup 10 subtable" three slash four
EndChar

StartChar: questiondown
Encoding: 191 191 127
Width: 738
GlyphClass: 1
Flags: W
HStem: -204 138<272.785 421.893> 374 166<253.3 438.3>
VStem: 56.0996 168.878<-22.0509 96.2566> 253.3 185<373.659 540> 270.9 156.679<280.524 359> 471.743 162.78<-13.6354 79>
LayerCount: 2
Fore
SplineSet
270.900390625 349 m 2xec
 270.900390625 359 270.900390625 369 270.900390625 359 c 1
 426.918945312 359 l 1
 427.48046875 344.537109375 427.579101562 342.001953125 427.579101562 335.125976562 c 0
 438.606046514 255.251953125 404.122002218 207.809570312 309.034503751 143.018554688 c 0
 235.058487601 94.771484375 224.977292431 78.2021484375 224.977292431 39 c 0
 224.977292431 -21.578125 275.807424908 -66 344.618254386 -66 c 0
 423.41393014 -66 471.743421214 -17.3671875 471.743421214 69 c 2
 471.743421214 79 471.743421214 89 471.743421214 79 c 1
 634.5234375 79 l 1
 633.6875 10.4970703125 629.6015625 -52.029296875 585.446289062 -110.936523438 c 0
 540.084960938 -173.134765625 459.18484127 -204 349.607355149 -204 c 0
 163.921875 -204 56.099609375 -106.149414062 56.099609375 36 c 0
 56.099609375 125.494140625 85.65625 173.501953125 182.396618684 238.322265625 c 0
 264.274414062 280.607421875 270.900390625 288.713867188 270.900390625 349 c 2xec
438.299804688 374 m 1xf4
 253.299804688 374 l 1
 253.299804688 364 253.299804688 530 253.299804688 540 c 1
 438.299804688 540 l 1
 438.299804688 530 438.299804688 364 438.299804688 374 c 1xf4
EndSplineSet
EndChar

StartChar: Agrave
Encoding: 192 192 128
Width: 840
GlyphClass: 1
Flags: W
HStem: -0 21G<28.5996 202.948 615.926 791.18> 137 145<315.85 505.389> 709 20G<310.821 517.428>
LayerCount: 2
Fore
SplineSet
202.948242188 -0 m 1
 28.599609375 -0 l 1
 28.599609375 9.7333984375 310.820817319 719.266601562 310.820817319 729 c 1
 310.820817319 719 517.428120247 719 517.428120247 729 c 1
 517.428120247 719.266601562 791.1796875 9.7333984375 791.1796875 -0 c 1
 791.1796875 10 615.92578125 10 615.92578125 -0 c 1
 615.92578125 9.3193359375 560.438810023 137 560.438810023 137 c 1
 259.591812016 137 l 1
 259.591812016 137 202.948242188 9.3193359375 202.948242188 -0 c 1
410.619780031 527.946289062 m 1
 315.849506889 282 l 1
 505.38902691 282 l 1
 410.619780031 527.946289062 l 1
220.141229203 936 m 1
 396.230544017 936 l 1
 396.230544017 926 487.9394741 756 487.9394741 766 c 1
 385.216687594 766 l 1
 385.216687594 756 220.141229203 926 220.141229203 936 c 1
EndSplineSet
EndChar

StartChar: Aacute
Encoding: 193 193 129
Width: 840
GlyphClass: 1
Flags: W
HStem: -0 21G<28.5996 202.948 615.926 791.18> 137 145<315.85 505.389> 709 20G<310.821 517.428>
LayerCount: 2
Fore
SplineSet
202.948242188 -0 m 1
 28.599609375 -0 l 1
 28.599609375 9.7333984375 310.820817319 719.266601562 310.820817319 729 c 1
 310.820817319 719 517.428120247 719 517.428120247 729 c 1
 517.428120247 719.266601562 791.1796875 9.7333984375 791.1796875 -0 c 1
 791.1796875 10 615.92578125 10 615.92578125 -0 c 1
 615.92578125 9.3193359375 560.438810023 137 560.438810023 137 c 1
 259.591812016 137 l 1
 259.591812016 137 202.948242188 9.3193359375 202.948242188 -0 c 1
410.619780031 527.946289062 m 1
 315.849506889 282 l 1
 505.38902691 282 l 1
 410.619780031 527.946289062 l 1
602.252876934 936 m 1
 602.252876934 926 437.177418543 756 437.177418543 766 c 1
 334.4556583 766 l 1
 334.4556583 756 426.16356212 926 426.16356212 936 c 1
 602.252876934 936 l 1
EndSplineSet
EndChar

StartChar: Acircumflex
Encoding: 194 194 130
Width: 840
GlyphClass: 1
Flags: W
HStem: -0 21G<28.5996 202.948 615.926 791.18> 137 145<315.85 505.389> 709 20G<310.821 517.428>
LayerCount: 2
Fore
SplineSet
202.948242188 -0 m 1
 28.599609375 -0 l 1
 28.599609375 9.7333984375 310.820817319 719.266601562 310.820817319 729 c 1
 310.820817319 719 517.428120247 719 517.428120247 729 c 1
 517.428120247 719.266601562 791.1796875 9.7333984375 791.1796875 -0 c 1
 791.1796875 10 615.92578125 10 615.92578125 -0 c 1
 615.92578125 9.3193359375 560.438810023 137 560.438810023 137 c 1
 259.591812016 137 l 1
 259.591812016 137 202.948242188 9.3193359375 202.948242188 -0 c 1
410.619780031 527.946289062 m 1
 315.849506889 282 l 1
 505.38902691 282 l 1
 410.619780031 527.946289062 l 1
345.427437933 936 m 1
 479.428673567 936 l 1
 479.428673567 926 614.370992536 756 614.370992536 766 c 1
 614.370992536 756 499.583456114 756 499.583456114 766 c 1
 499.583456114 756 409.46318143 851.072265625 409.46318143 861.072265625 c 1
 409.46318143 851.072265625 319.343933009 756 319.343933009 766 c 1
 203.935507364 766 l 1
 203.935507364 756 345.427437933 926 345.427437933 936 c 1
EndSplineSet
EndChar

StartChar: Atilde
Encoding: 195 195 131
Width: 840
GlyphClass: 1
Flags: W
HStem: -0 21G<28.5996 202.948 615.926 791.18> 137 145<315.85 505.389> 709 20G<310.821 517.428> 781 99<430.755 532.216> 825 99<297.853 376.482>
VStem: 539.017 92.4141<883.705 928>
LayerCount: 2
Fore
SplineSet
202.948242188 -0 m 1xe4
 28.599609375 -0 l 1
 28.599609375 9.7333984375 310.820817319 719.266601562 310.820817319 729 c 1
 310.820817319 719 517.428120247 719 517.428120247 729 c 1
 517.428120247 719.266601562 791.1796875 9.7333984375 791.1796875 -0 c 1
 791.1796875 10 615.92578125 10 615.92578125 -0 c 1
 615.92578125 9.3193359375 560.438810023 137 560.438810023 137 c 1
 259.591812016 137 l 1
 259.591812016 137 202.948242188 9.3193359375 202.948242188 -0 c 1xe4
410.619780031 527.946289062 m 1
 315.849506889 282 l 1
 505.38902691 282 l 1
 410.619780031 527.946289062 l 1
539.016592452 928 m 1
 631.430664062 928 l 1
 628.6171875 884.510742188 621.918945312 781 511.190492653 781 c 0xf4
 491.083944476 781 469.19477716 785.306640625 444.234004152 793.528320312 c 2
 444.234004152 783.528320312 362.353596522 809.466796875 362.353596522 819.466796875 c 2
 348.968045896 823.3203125 339.864065247 825 329.700980998 825 c 0
 301.234492976 825 297.251565583 807.3046875 292.319344752 780 c 1
 200.9296875 780 l 1
 200.9296875 770 201.37109375 780.428710938 201.37109375 790.428710938 c 2
 204.895063436 871.493164062 248.740105175 924 320.453323504 924 c 0xec
 341.933011813 924 350.744507456 922.36328125 387.30821195 910.50390625 c 0
 415.223596646 902.104492188 443.186189448 893.75 471.071812512 885.321289062 c 0
 476.342700192 883.3671875 500.465016183 880 506.566150774 880 c 0xf4
 532.082132161 880 535.629923966 904.5546875 539.016592452 928 c 1
EndSplineSet
EndChar

StartChar: Adieresis
Encoding: 196 196 132
Width: 840
GlyphClass: 1
Flags: W
HStem: -0 21G<28.5996 202.948 615.926 791.18> 137 145<315.85 505.389> 709 20G<310.821 517.428> 780 142<227.869 376.045 442.882 591.058>
VStem: 227.869 148.176<779.641 922> 442.882 148.176<779.641 922>
LayerCount: 2
Fore
SplineSet
202.948242188 -0 m 1
 28.599609375 -0 l 1
 28.599609375 9.7333984375 310.820817319 719.266601562 310.820817319 729 c 1
 310.820817319 719 517.428120247 719 517.428120247 729 c 1
 517.428120247 719.266601562 791.1796875 9.7333984375 791.1796875 -0 c 1
 791.1796875 10 615.92578125 10 615.92578125 -0 c 1
 615.92578125 9.3193359375 560.438810023 137 560.438810023 137 c 1
 259.591812016 137 l 1
 259.591812016 137 202.948242188 9.3193359375 202.948242188 -0 c 1
410.619780031 527.946289062 m 1
 315.849506889 282 l 1
 505.38902691 282 l 1
 410.619780031 527.946289062 l 1
227.868990931 922 m 1
 376.044973575 922 l 1
 376.044973575 912 376.044973575 770 376.044973575 780 c 1
 227.868990931 780 l 1
 227.868990931 770 227.868990931 912 227.868990931 922 c 1
442.882415547 922 m 1
 591.058398192 922 l 1
 591.058398192 912 591.058398192 770 591.058398192 780 c 1
 442.882415547 780 l 1
 442.882415547 770 442.882415547 912 442.882415547 922 c 1
EndSplineSet
EndChar

StartChar: Aring
Encoding: 197 197 133
Width: 840
GlyphClass: 1
Flags: W
HStem: -0 21G<28.5996 202.948 615.926 791.18> 137 145<315.85 505.389> 709 20G<310.821 517.428> 749 68<375.784 446.54> 881 68<374.618 446.199>
VStem: 296.072 76.5048<820.797 877.474> 448.662 76.5048<820.29 877.338>
LayerCount: 2
Fore
SplineSet
202.948242188 -0 m 1
 28.599609375 -0 l 1
 28.599609375 9.7333984375 310.820817319 719.266601562 310.820817319 729 c 1
 310.820817319 719 517.428120247 719 517.428120247 729 c 1
 517.428120247 719.266601562 791.1796875 9.7333984375 791.1796875 -0 c 1
 791.1796875 10 615.92578125 10 615.92578125 -0 c 1
 615.92578125 9.3193359375 560.438810023 137 560.438810023 137 c 1
 259.591812016 137 l 1
 259.591812016 137 202.948242188 9.3193359375 202.948242188 -0 c 1
410.619780031 527.946289062 m 1
 315.849506889 282 l 1
 505.38902691 282 l 1
 410.619780031 527.946289062 l 1
296.072389192 849 m 0
 296.072389192 906.368164062 348.091617142 949 411.775352369 949 c 0
 474.559054789 949 525.16717087 906.083007812 525.16717087 848 c 0
 525.16717087 792.5078125 472.098075689 749 410.619780031 749 c 0
 347.90381098 749 296.072389192 792.696289062 296.072389192 849 c 0
448.662329764 849 m 0
 448.662329764 866.924804688 433.362798311 881 411.775352369 881 c 0
 388.600277291 881 372.577230298 866.5 372.577230298 849 c 0
 372.577230298 832.467773438 388.813740032 817 411.775352369 817 c 0
 432.041997602 817 448.662329764 832.2578125 448.662329764 849 c 0
EndSplineSet
EndChar

StartChar: AE
Encoding: 198 198 134
Width: 1124
GlyphClass: 1
Flags: W
HStem: 0 145<645.297 1038.14> 142 145<291.875 470.922> 304 145<645.297 991.144> 584 145<412.636 470.922 645.297 1018.14>
VStem: 470.922 174.376<287 304 449 584>
LayerCount: 2
Fore
SplineSet
645.29709506 304 m 1xb8
 645.29709506 304 645.29709506 154.408203125 645.29709506 145 c 1
 1038.14355469 145 l 1
 1038.14355469 155 1038.14355469 10 1038.14355469 0 c 1
 470.921538156 0 l 1xb8
 470.921538156 9.341796875 470.921538156 142 470.921538156 142 c 1
 236.619409033 142 l 1x78
 236.619409033 142 176.818049042 9.341796875 176.818049042 0 c 1
 176.818049042 10 1.099609375 10 1.099609375 0 c 1
 1.099609375 9.7333984375 286.774418995 719.266601562 286.774418995 729 c 1
 1018.14355469 729 l 1
 1018.14355469 719 1018.14355469 574 1018.14355469 584 c 1
 645.29709506 584 l 1
 645.29709506 574.689453125 645.29709506 449 645.29709506 449 c 1
 991.143554688 449 l 1
 991.143554688 304 l 1
 645.29709506 304 l 1xb8
291.875064306 287 m 1x78
 470.921538156 287 l 1
 470.921538156 287 470.921538156 574.326171875 470.921538156 584 c 1
 412.63574697 584 l 1
 412.63574697 574.326171875 291.875064306 287 291.875064306 287 c 1x78
EndSplineSet
EndChar

StartChar: Ccedilla
Encoding: 199 199 135
Width: 842
GlyphClass: 1
Flags: W
HStem: -220 70<275.494 421.359> -22.8496 145.85<428.924 520.335> 593 148<328.581 523.74>
VStem: 48.4004 172.181<235.568 475.921> 595.832 1.08845<260.652 269> 766.488 0.508789<258.978 269>
LayerCount: 2
Fore
SplineSet
162.481445312 56.751953125 m 0
 87.052734375 127.23046875 48.400390625 230.477539062 48.400390625 358.056640625 c 0
 48.400390625 461.80859375 74.0478515625 549.024414062 123.432617188 614.103515625 c 0
 186.035791049 695.630859375 288.681689368 741 421.371159641 741 c 0
 548.759002948 741 654.046875 699.239257812 712.481445312 622.022460938 c 0
 754.622070312 566.288085938 760.143554688 514.690429688 764.325195312 462 c 1
 598.022756167 462 l 1
 583.339838119 518.916992188 556.210020777 593 427.111021822 593 c 0
 354.875590058 593 299.976947279 566.129882812 264.736720981 517.1484375 c 0
 236.416534493 477.78515625 220.580955911 423.359375 220.580955911 356.08203125 c 0
 220.580955911 289.612304688 235.764277427 236.010742188 263.141748624 197.344726562 c 0
 297.190586625 149.255859375 350.408648307 123 421.371159641 123 c 0
 523.939602432 123 584.9806723 172.278320312 595.831580086 260.184570312 c 2
 595.831580086 270.184570312 596.920034065 279 596.920034065 269 c 1
 766.997070312 269 l 1
 766.997070312 279 766.48828125 268.508789062 766.48828125 258.508789062 c 2
 758.287109375 89.365234375 637.996941952 -16.8408203125 428.924092635 -22.849609375 c 1
 428.924092635 -12.849609375 420.649600261 -28.0244140625 420.649600261 -38.0244140625 c 1
 429.531507028 -36.6298828125 438.672278318 -36 448.922905772 -36 c 0
 506.75160959 -36 546.604516327 -66.6318359375 546.604516327 -117 c 0
 546.604516327 -185.046875 486.199397098 -220 389.228135255 -220 c 0
 327.112879531 -220 289.532681008 -210.1171875 215.742023802 -188.361328125 c 1
 215.742023802 -178.361328125 245.686738045 -106.97265625 245.686738045 -116.97265625 c 1
 307.911042997 -141.063476562 334.194964456 -150 370.860983935 -150 c 0
 405.639534528 -150 425.858484425 -133.052734375 425.858484425 -119 c 0
 425.858484425 -106.793945312 411.771770101 -94 378.895975667 -94 c 0
 353.98383235 -94 353.882936335 -94 298.144512584 -116.999023438 c 1
 298.144512584 -106.999023438 355.496253422 -10.56640625 355.496253422 -20.56640625 c 1
 287.432209425 -9.875 220.509615294 4.5673828125 162.481445312 56.751953125 c 0
EndSplineSet
EndChar

StartChar: Egrave
Encoding: 200 200 136
Width: 774
GlyphClass: 1
Flags: W
HStem: 0 145<259.737 699.4> 304 145<259.737 653.4> 584 145<259.737 681.4>
VStem: 86.9004 172.837<145 304 449 584>
LayerCount: 2
Fore
SplineSet
259.737270058 584 m 1
 259.737270058 574.689453125 259.737270058 449 259.737270058 449 c 1
 653.400390625 449 l 1
 653.400390625 304 l 1
 259.737270058 304 l 1
 259.737270058 304 259.737270058 154.408203125 259.737270058 145 c 1
 699.400390625 145 l 1
 699.400390625 155 699.400390625 10 699.400390625 0 c 1
 86.900390625 0 l 1
 86.900390625 9.7333984375 86.900390625 719.266601562 86.900390625 729 c 1
 681.400390625 729 l 1
 681.400390625 719 681.400390625 574 681.400390625 584 c 1
 259.737270058 584 l 1
366.554452017 766 m 1
 366.554452017 756 203.282226562 926 203.282226562 936 c 1
 203.282226562 926 377.678059896 926 377.678059896 936 c 1
 377.678059896 926 469.895958001 756 469.895958001 766 c 1
 469.895958001 756 366.554452017 756 366.554452017 766 c 1
EndSplineSet
EndChar

StartChar: Eacute
Encoding: 201 201 137
Width: 774
GlyphClass: 1
Flags: W
HStem: 0 145<259.737 699.4> 304 145<259.737 653.4> 584 145<259.737 681.4>
VStem: 86.9004 172.837<145 304 449 584>
LayerCount: 2
Fore
SplineSet
259.737270058 584 m 1
 259.737270058 574.689453125 259.737270058 449 259.737270058 449 c 1
 653.400390625 449 l 1
 653.400390625 304 l 1
 259.737270058 304 l 1
 259.737270058 304 259.737270058 154.408203125 259.737270058 145 c 1
 699.400390625 145 l 1
 699.400390625 155 699.400390625 10 699.400390625 0 c 1
 86.900390625 0 l 1
 86.900390625 9.7333984375 86.900390625 719.266601562 86.900390625 729 c 1
 681.400390625 729 l 1
 681.400390625 719 681.400390625 574 681.400390625 584 c 1
 259.737270058 584 l 1
565.083866633 936 m 1
 565.083866633 926 399.092475621 756 399.092475621 766 c 1
 295.79844027 766 l 1
 295.79844027 756 388.016338375 926 388.016338375 936 c 1
 388.016338375 926 565.083866633 926 565.083866633 936 c 1
EndSplineSet
EndChar

StartChar: Ecircumflex
Encoding: 202 202 138
Width: 774
GlyphClass: 1
Flags: W
HStem: 0 145<259.737 699.4> 304 145<259.737 653.4> 584 145<259.737 681.4>
VStem: 86.9004 172.837<145 304 449 584>
LayerCount: 2
Fore
SplineSet
259.737270058 584 m 1
 259.737270058 574.689453125 259.737270058 449 259.737270058 449 c 1
 653.400390625 449 l 1
 653.400390625 304 l 1
 259.737270058 304 l 1
 259.737270058 304 259.737270058 154.408203125 259.737270058 145 c 1
 699.400390625 145 l 1
 699.400390625 155 699.400390625 10 699.400390625 0 c 1
 86.900390625 0 l 1
 86.900390625 9.7333984375 86.900390625 719.266601562 86.900390625 729 c 1
 681.400390625 729 l 1
 681.400390625 719 681.400390625 574 681.400390625 584 c 1
 259.737270058 584 l 1
183.805664062 766 m 1
 183.805664062 756 318.306744515 926 318.306744515 936 c 1
 318.306744515 926 454.363772994 926 454.363772994 936 c 1
 454.363772994 926 589.484375 756 589.484375 766 c 1
 589.484375 756 473.467607214 756 473.467607214 766 c 1
 473.467607214 756 382.847199136 851.072265625 382.847199136 861.072265625 c 1
 382.847199136 851.072265625 292.225759087 756 292.225759087 766 c 1
 292.225759087 756 183.805664062 756 183.805664062 766 c 1
EndSplineSet
EndChar

StartChar: Edieresis
Encoding: 203 203 139
Width: 774
GlyphClass: 1
Flags: W
HStem: 0 145<259.737 699.4> 304 145<259.737 653.4> 584 145<259.737 681.4> 780 142<204.9 350.405 417.613 566.613>
VStem: 86.9004 172.837<145 304 449 584> 204.9 145.505<779.641 922> 417.613 149<779.641 922>
LayerCount: 2
Fore
SplineSet
259.737270058 584 m 1xfa
 259.737270058 574.689453125 259.737270058 449 259.737270058 449 c 1
 653.400390625 449 l 1
 653.400390625 304 l 1
 259.737270058 304 l 1
 259.737270058 304 259.737270058 154.408203125 259.737270058 145 c 1
 699.400390625 145 l 1
 699.400390625 155 699.400390625 10 699.400390625 0 c 1
 86.900390625 0 l 1
 86.900390625 9.7333984375 86.900390625 719.266601562 86.900390625 729 c 1
 681.400390625 729 l 1
 681.400390625 719 681.400390625 574 681.400390625 584 c 1
 259.737270058 584 l 1xfa
204.900390625 922 m 1xf6
 350.40514877 922 l 1
 350.40514877 912 350.40514877 770 350.40514877 780 c 1
 204.900390625 780 l 1
 204.900390625 770 204.900390625 912 204.900390625 922 c 1xf6
417.61324662 922 m 1
 566.61324662 922 l 1
 566.61324662 912 566.61324662 770 566.61324662 780 c 1
 417.61324662 780 l 1
 417.61324662 770 417.61324662 912 417.61324662 922 c 1
EndSplineSet
EndChar

StartChar: Igrave
Encoding: 204 204 140
Width: 319
GlyphClass: 1
Flags: W
HStem: 0 21G<73.458 243.458> 709 20G<73.458 243.458>
VStem: 73.458 170<0 729>
LayerCount: 2
Fore
SplineSet
73.4580078125 729 m 1
 243.458007812 729 l 1
 243.458007812 719.266601562 243.458007812 9.7333984375 243.458007812 0 c 1
 73.4580078125 0 l 1
 73.4580078125 9.7333984375 73.4580078125 719.266601562 73.4580078125 729 c 1
131.799804688 766 m 1
 131.799804688 756 -11 926 -11 936 c 1
 -11 926 142.827148438 926 142.827148438 936 c 1
 142.827148438 926 222.161132812 756 222.161132812 766 c 1
 131.799804688 766 l 1
EndSplineSet
EndChar

StartChar: Iacute
Encoding: 205 205 141
Width: 310
GlyphClass: 1
Flags: W
HStem: 0 21G<69.2998 239.3> 709 20G<69.2998 239.3>
VStem: 69.2998 170<0 729>
LayerCount: 2
Fore
SplineSet
69.2998046875 729 m 1
 239.299804688 729 l 1
 239.299804688 719.266601562 239.299804688 9.7333984375 239.299804688 0 c 1
 69.2998046875 0 l 1
 69.2998046875 9.7333984375 69.2998046875 719.266601562 69.2998046875 729 c 1
184.95703125 766 m 1
 94.5966796875 766 l 1
 94.5966796875 756 173.9296875 926 173.9296875 936 c 1
 173.9296875 926 327.7578125 926 327.7578125 936 c 1
 327.7578125 926 184.95703125 756 184.95703125 766 c 1
EndSplineSet
EndChar

StartChar: Icircumflex
Encoding: 206 206 142
Width: 309
GlyphClass: 1
Flags: W
HStem: 0 21G<70.6211 240.621> 709 20G<70.6211 240.621>
VStem: 70.6211 170<0 729>
LayerCount: 2
Fore
SplineSet
70.62109375 729 m 1
 240.62109375 729 l 1
 240.62109375 719.266601562 240.62109375 9.7333984375 240.62109375 0 c 1
 70.62109375 0 l 1
 70.62109375 9.7333984375 70.62109375 719.266601562 70.62109375 729 c 1
-20.900390625 766 m 1
 -20.900390625 756 101.5 926 101.5 936 c 1
 101.5 926 218.883789062 926 218.883789062 936 c 1
 218.883789062 926 335.6171875 756 335.6171875 766 c 1
 335.6171875 756 233.890625 756 233.890625 766 c 1
 233.890625 756 156.62109375 850.231445312 156.62109375 860.231445312 c 1
 156.62109375 850.231445312 79.3505859375 756 79.3505859375 766 c 1
 79.3505859375 756 -20.900390625 756 -20.900390625 766 c 1
EndSplineSet
EndChar

StartChar: Idieresis
Encoding: 207 207 143
Width: 311
GlyphClass: 1
Flags: W
HStem: 0 21G<62.0996 232.1> 709 20G<62.0996 232.1> 780 142<-9.90039 120.1 176.1 306.1>
VStem: -9.90039 130<779.641 922> 62.0996 170<0 729> 176.1 130<779.641 922>
LayerCount: 2
Fore
SplineSet
62.099609375 729 m 1xe8
 232.099609375 729 l 1
 232.099609375 719.266601562 232.099609375 9.7333984375 232.099609375 0 c 1
 62.099609375 0 l 1
 62.099609375 9.7333984375 62.099609375 719.266601562 62.099609375 729 c 1xe8
-9.900390625 922 m 1xf0
 120.099609375 922 l 1
 120.099609375 912 120.099609375 770 120.099609375 780 c 1
 -9.900390625 780 l 1
 -9.900390625 770 -9.900390625 912 -9.900390625 922 c 1xf0
176.099609375 922 m 1xe4
 306.099609375 922 l 1
 306.099609375 912 306.099609375 770 306.099609375 780 c 1
 176.099609375 780 l 1
 176.099609375 770 176.099609375 912 176.099609375 922 c 1xe4
EndSplineSet
EndChar

StartChar: Eth
Encoding: 208 208 144
Width: 836
GlyphClass: 1
Flags: W
HStem: 0 145<252.163 504.264> 329 100<0 77 252.163 423.87> 584 145<252.163 501.837>
VStem: 77 175.163<145 329 429 584> 586.211 165.789<241.511 487.373>
LayerCount: 2
Fore
SplineSet
0 429 m 1
 77 429 l 1
 77 429 77 719.322265625 77 729 c 1
 396.292682927 729 l 2
 530.18495935 729 609.538617886 703.818359375 661.760742188 643.646484375 c 0
 687.682617188 611.995117188 752 518.048828125 752 364.986328125 c 0
 752 257.959960938 718.66015625 154.797851562 661.8125 86.3896484375 c 0
 610.204268293 24.638671875 527.87703252 0 396.292682927 0 c 2
 77 0 l 1
 77 9.705078125 77 329 77 329 c 1
 0 329 l 1
 0 429 l 1
252.162601626 584 m 1
 252.162601626 574.606445312 252.162601626 429 252.162601626 429 c 1
 423.869918699 429 l 1
 423.869918699 329 l 1
 252.162601626 329 l 1
 252.162601626 329 252.162601626 154.484375 252.162601626 145 c 1
 396.292682927 145 l 2
 469.290650407 145 508.450203252 159.622070312 535.730691057 192.934570312 c 0
 569.283536585 232.723632812 586.211382114 288.754882812 586.211382114 364.021484375 c 0
 586.211382114 440.263671875 569.278455285 496.282226562 535.641260163 536.173828125 c 0
 508.450203252 569.377929688 469.290650407 584 396.292682927 584 c 2
 252.162601626 584 l 1
EndSplineSet
EndChar

StartChar: Ntilde
Encoding: 209 209 145
Width: 836
GlyphClass: 1
Flags: W
HStem: 0 21G<74.7998 244.809 571.625 737.1> 709 20G<74.7998 244.668 567.1 737.1> 781 99<429.249 533.443> 825 99<294.504 372.953>
VStem: 74.7998 170.009<0 479.915 694.084 729> 200.273 0.540039<780 790.05> 539.145 85.4361<883.161 928> 567.1 170<257.014 729>
LayerCount: 2
Fore
SplineSet
567.099609375 257.133789062 m 1xc9
 567.099609375 247.133789062 567.099609375 719 567.099609375 729 c 1
 737.099609375 729 l 1
 737.099609375 719.266601562 737.099609375 9.7333984375 737.099609375 0 c 1
 737.099609375 10 571.625 10 571.625 0 c 1
 571.625 10 244.808523083 489.801757812 244.808523083 479.801757812 c 1
 244.808523083 489.801757812 244.808523083 10 244.808523083 0 c 1
 74.7998046875 0 l 1
 74.7998046875 9.7333984375 74.7998046875 719.266601562 74.7998046875 729 c 1
 244.66796875 729 l 1
 244.66796875 719 567.099609375 247.133789062 567.099609375 257.133789062 c 1xc9
539.144914193 928 m 1xe6
 624.581054688 928 l 1
 622.475585938 883.24609375 617.6640625 781 509.741988807 781 c 0xe6
 490.494374289 781 467.287292143 785.25390625 442.933911324 793.544921875 c 2
 442.933911324 783.544921875 358.632545632 809.502929688 358.632545632 819.502929688 c 2
 346.339767754 823.314453125 337.155843501 825 326.794386278 825 c 0
 298.234786891 825 294.296142129 809.606445312 288.871786006 780 c 1
 200.2734375 780 l 1
 200.2734375 770 200.813476562 780.51953125 200.813476562 790.51953125 c 2
 204.953125 871.259765625 244.500976562 924 317.412644815 924 c 0xd6
 339.259993928 924 347.025881129 922.350585938 385.190026626 910.518554688 c 0
 413.525780222 902.114257812 441.909426406 893.754882812 470.214986849 885.321289062 c 0
 475.700770421 883.317382812 498.894317705 880 505.051638647 880 c 0
 532.109909525 880 535.788268485 905.095703125 539.144914193 928 c 1xe6
EndSplineSet
EndChar

StartChar: Ograve
Encoding: 210 210 146
Width: 904
GlyphClass: 1
Flags: W
HStem: -23 148<334.454 535.265> 593 148<334.389 535.911>
VStem: 44 171.915<245.834 472.06> 654.285 171.915<249.359 470.87>
LayerCount: 2
Fore
SplineSet
148.736328125 639.526367188 m 0
 216.376328165 707.194335938 315.392988205 741 433.957866823 741 c 0
 556.937546193 741 651.633704165 709.038085938 721.479492188 639.510742188 c 0
 788.604492188 570.072265625 826.200195312 467.28125 826.200195312 354.127929688 c 0
 826.200195312 251.413085938 786.571289062 145.948242188 721.455078125 78.46484375 c 0
 652.712562227 9.8671875 555.871869668 -23 435.099590674 -23 c 0
 314.328325644 -23 217.462283977 9.892578125 148.720703125 78.4892578125 c 0
 81.6142578125 147.908203125 44 250.633789062 44 359 c 0
 44 467.385742188 81.7197265625 569.196289062 148.736328125 639.526367188 c 0
654.285220923 355.1640625 m 0
 654.285220923 503.009765625 568.997638095 593 435.099590674 593 c 0
 302.267219778 593 215.914974389 502.861328125 215.914974389 359 c 0
 215.914974389 215.138671875 302.267219778 125 435.099590674 125 c 0
 565.736728767 125 654.285220923 215.331054688 654.285220923 355.1640625 c 0
417.996040127 766 m 1
 417.996040127 756 254.900889434 926 254.900889434 936 c 1
 254.900889434 926 428.878919426 926 428.878919426 936 c 1
 428.878919426 926 519.487787129 756 519.487787129 766 c 1
 519.487787129 756 417.996040127 756 417.996040127 766 c 1
EndSplineSet
EndChar

StartChar: Oacute
Encoding: 211 211 147
Width: 904
GlyphClass: 1
Flags: W
HStem: -23 148<334.454 535.265> 593 148<334.389 535.911>
VStem: 44 171.915<245.834 472.06> 654.285 171.915<249.359 470.87>
LayerCount: 2
Fore
SplineSet
148.736328125 639.526367188 m 0
 216.376328165 707.194335938 315.392988205 741 433.957866823 741 c 0
 556.937546193 741 651.633704165 709.038085938 721.479492188 639.510742188 c 0
 788.604492188 570.072265625 826.200195312 467.28125 826.200195312 354.127929688 c 0
 826.200195312 251.413085938 786.571289062 145.948242188 721.455078125 78.46484375 c 0
 652.712562227 9.8671875 555.871869668 -23 435.099590674 -23 c 0
 314.328325644 -23 217.462283977 9.892578125 148.720703125 78.4892578125 c 0
 81.6142578125 147.908203125 44 250.633789062 44 359 c 0
 44 467.385742188 81.7197265625 569.196289062 148.736328125 639.526367188 c 0
654.285220923 355.1640625 m 0
 654.285220923 503.009765625 568.997638095 593 435.099590674 593 c 0
 302.267219778 593 215.914974389 502.861328125 215.914974389 359 c 0
 215.914974389 215.138671875 302.267219778 125 435.099590674 125 c 0
 565.736728767 125 654.285220923 215.331054688 654.285220923 355.1640625 c 0
617.583767545 936 m 1
 617.583767545 926 454.488616851 756 454.488616851 766 c 1
 352.996869849 766 l 1
 352.996869849 756 443.605737552 926 443.605737552 936 c 1
 617.583767545 936 l 1
EndSplineSet
EndChar

StartChar: Ocircumflex
Encoding: 212 212 148
Width: 904
GlyphClass: 1
Flags: W
HStem: -23 148<334.454 535.265> 593 148<334.389 535.911>
VStem: 44 171.915<245.834 472.06> 654.285 171.915<249.359 470.87>
LayerCount: 2
Fore
SplineSet
148.736328125 639.526367188 m 0
 216.376328165 707.194335938 315.392988205 741 433.957866823 741 c 0
 556.937546193 741 651.633704165 709.038085938 721.479492188 639.510742188 c 0
 788.604492188 570.072265625 826.200195312 467.28125 826.200195312 354.127929688 c 0
 826.200195312 251.413085938 786.571289062 145.948242188 721.455078125 78.46484375 c 0
 652.712562227 9.8671875 555.871869668 -23 435.099590674 -23 c 0
 314.328325644 -23 217.462283977 9.892578125 148.720703125 78.4892578125 c 0
 81.6142578125 147.908203125 44 250.633789062 44 359 c 0
 44 467.385742188 81.7197265625 569.196289062 148.736328125 639.526367188 c 0
654.285220923 355.1640625 m 0
 654.285220923 503.009765625 568.997638095 593 435.099590674 593 c 0
 302.267219778 593 215.914974389 502.861328125 215.914974389 359 c 0
 215.914974389 215.138671875 302.267219778 125 435.099590674 125 c 0
 565.736728767 125 654.285220923 215.331054688 654.285220923 355.1640625 c 0
371.83125753 936 m 1
 504.227623759 936 l 1
 504.227623759 926 637.551767362 756 637.551767362 766 c 1
 637.551767362 756 522.998131687 756 522.998131687 766 c 1
 522.998131687 756 433.957866823 851.072265625 433.957866823 861.072265625 c 1
 433.957866823 851.072265625 344.91760196 756 344.91760196 766 c 1
 232.034979523 766 l 1
 232.034979523 756 371.83125753 926 371.83125753 936 c 1
EndSplineSet
EndChar

StartChar: Otilde
Encoding: 213 213 149
Width: 904
GlyphClass: 1
Flags: W
HStem: -23 148<334.454 535.265> 593 148<334.389 535.911> 781 99<484.151 557.562> 825 99<326.008 403.61>
VStem: 44 171.915<245.834 472.06> 564.244 92.0842<883.704 928> 654.285 171.915<249.359 470.87>
LayerCount: 2
Fore
SplineSet
148.736328125 639.526367188 m 0xca
 216.376328165 707.194335938 315.392988205 741 433.957866823 741 c 0
 556.937546193 741 651.633704165 709.038085938 721.479492188 639.510742188 c 0
 788.604492188 570.072265625 826.200195312 467.28125 826.200195312 354.127929688 c 0
 826.200195312 251.413085938 786.571289062 145.948242188 721.455078125 78.46484375 c 0
 652.712562227 9.8671875 555.871869668 -23 435.099590674 -23 c 0
 314.328325644 -23 217.462283977 9.892578125 148.720703125 78.4892578125 c 0
 81.6142578125 147.908203125 44 250.633789062 44 359 c 0
 44 467.385742188 81.7197265625 569.196289062 148.736328125 639.526367188 c 0xca
654.285220923 355.1640625 m 0
 654.285220923 503.009765625 568.997638095 593 435.099590674 593 c 0
 302.267219778 593 215.914974389 502.861328125 215.914974389 359 c 0
 215.914974389 215.138671875 302.267219778 125 435.099590674 125 c 0
 565.736728767 125 654.285220923 215.331054688 654.285220923 355.1640625 c 0
564.244173253 928 m 1xec
 656.328359076 928 l 1
 653.407127802 884.508789062 646.45234637 781 536.749516114 781 c 0xec
 517.971910436 781 495.367603325 785.270507812 470.596454413 793.528320312 c 2
 470.596454413 783.528320312 389.697309264 809.466796875 389.697309264 819.466796875 c 2
 376.475214224 823.318359375 360.143290542 824.721679688 358.577729596 825 c 0
 329.322830356 825 325.45557035 807.7578125 320.502354532 780 c 1
 230.105405377 780 l 1
 230.105405377 770 230.56371726 780.4296875 230.56371726 790.4296875 c 2
 234.125773999 871.493164062 277.446386612 924 348.298159081 924 c 0xdc
 369.555921544 924 378.079305815 922.415039062 415.421584659 910.526367188 c 0
 415.514869379 910.497070312 496.513383033 885.526367188 496.513383033 885.526367188 c 2
 496.859144875 885.42578125 519.039614889 880 532.180592782 880 c 0
 556.848317331 880 560.560440793 902.201171875 564.244173253 928 c 1xec
EndSplineSet
EndChar

StartChar: Odieresis
Encoding: 214 214 150
Width: 904
GlyphClass: 1
Flags: W
HStem: -23 148<334.454 535.265> 593 148<334.389 535.911> 780 142<255.682 402.082 468.118 614.519>
VStem: 44 171.915<245.834 472.06> 255.682 146.4<779.641 922> 468.118 146.4<779.641 922> 654.285 171.915<249.359 470.87>
LayerCount: 2
Fore
SplineSet
148.736328125 639.526367188 m 0
 216.376328165 707.194335938 315.392988205 741 433.957866823 741 c 0
 556.937546193 741 651.633704165 709.038085938 721.479492188 639.510742188 c 0
 788.604492188 570.072265625 826.200195312 467.28125 826.200195312 354.127929688 c 0
 826.200195312 251.413085938 786.571289062 145.948242188 721.455078125 78.46484375 c 0
 652.712562227 9.8671875 555.871869668 -23 435.099590674 -23 c 0
 314.328325644 -23 217.462283977 9.892578125 148.720703125 78.4892578125 c 0
 81.6142578125 147.908203125 44 250.633789062 44 359 c 0
 44 467.385742188 81.7197265625 569.196289062 148.736328125 639.526367188 c 0
654.285220923 355.1640625 m 0
 654.285220923 503.009765625 568.997638095 593 435.099590674 593 c 0
 302.267219778 593 215.914974389 502.861328125 215.914974389 359 c 0
 215.914974389 215.138671875 302.267219778 125 435.099590674 125 c 0
 565.736728767 125 654.285220923 215.331054688 654.285220923 355.1640625 c 0
255.681641978 922 m 1
 402.081869755 922 l 1
 402.081869755 912 402.081869755 770 402.081869755 780 c 1
 255.681641978 780 l 1
 255.681641978 770 255.681641978 912 255.681641978 922 c 1
468.118325557 922 m 1
 614.518553334 922 l 1
 614.518553334 912 614.518553334 770 614.518553334 780 c 1
 468.118325557 780 l 1
 468.118325557 770 468.118325557 912 468.118325557 922 c 1
EndSplineSet
EndChar

StartChar: multiply
Encoding: 215 215 151
Width: 682
GlyphClass: 1
Flags: W
LayerCount: 2
Fore
SplineSet
481.890625 450.584960938 m 1
 481.890625 443.818359375 579.813476562 359.975585938 579.813476562 359.975585938 c 1
 449.059768624 230.97265625 l 1
 449.059768624 230.97265625 578.786132812 115.751953125 578.786132812 109.068359375 c 1
 578.786132812 116.124023438 480.866210938 18.6376953125 480.866210938 11.365234375 c 1
 480.866210938 18.2421875 333.320349142 133.306640625 333.320349142 133.306640625 c 1
 333.320349142 133.306640625 185.806640625 19.3154296875 185.806640625 12.4189453125 c 1
 185.806640625 19.716796875 87.8857421875 117.200195312 87.8857421875 110.120117188 c 1
 87.8857421875 116.823242188 217.576687985 230.97265625 217.576687985 230.97265625 c 1
 86.900390625 358.90625 l 1
 86.900390625 358.90625 184.765625 443.8515625 184.765625 450.624023438 c 1
 184.765625 443.725585938 333.348980452 328.671875 333.348980452 328.671875 c 1
 333.348980452 328.671875 481.890625 443.686523438 481.890625 450.584960938 c 1
EndSplineSet
EndChar

StartChar: Oslash
Encoding: 216 216 152
Width: 903
GlyphClass: 1
Flags: W
HStem: -23 148<331.227 535.237> 593 148<333.822 537.686>
VStem: 42.2334 172.103<228.275 464.233> 654.092 172.542<253.129 488.09>
LayerCount: 2
Fore
SplineSet
756.436523438 598.272460938 m 1
 800.250976562 536.67578125 826.633789062 446.559570312 826.633789062 357.200195312 c 0
 826.633789062 250.657226562 787.932617188 146.913085938 721.648314324 78.4443359375 c 0
 651.36612616 9.9013671875 554.773652715 -23 435.354848923 -23 c 0
 333.945754658 -23 249.689294746 0.560546875 184.427118323 48.4072265625 c 1
 184.427118323 58.4072265625 99.9208984375 -33.083984375 99.9208984375 -43.083984375 c 1
 99.9208984375 -33.33203125 34.099609375 23.119140625 34.099609375 14.8076171875 c 1
 34.099609375 23.119140625 121.364257812 114.780273438 121.364257812 108.806640625 c 1
 68.3115234375 181.16796875 42.2333984375 264.16796875 42.2333984375 358.75 c 0
 42.2333984375 467.184570312 79.83203125 569.997070312 147.984375 639.474609375 c 0
 217.054664901 708.114257812 313.708863949 741 435.354848923 741 c 0
 541.616992232 741 622.434020597 716.970703125 695.488801418 660.762695312 c 1
 695.488801418 650.762695312 779.771484375 742.96875 779.771484375 752.96875 c 1
 779.771484375 743.220703125 846.881835938 688.026367188 846.881835938 696.352539062 c 1
 846.881835938 688.026367188 756.436523438 592.411132812 756.436523438 598.272460938 c 1
300.316431901 163.780273438 m 1
 333.383140966 139.760742188 381.780061254 125 434.214443111 125 c 0
 567.919182352 125 654.092171641 218.958007812 654.092171641 371 c 0
 654.092171641 411.923828125 647.222415602 453.762695312 635.201101455 488.767578125 c 1
 635.201101455 498.767578125 300.316431901 173.780273438 300.316431901 163.780273438 c 1
579.938472708 544.661132812 m 1
 541.144437206 577.099609375 493.048049772 593 435.354848923 593 c 0
 300.489465968 593 214.336714582 499.045898438 214.336714582 346 c 0
 214.336714582 297.833984375 223.281867533 254.66015625 240.255396447 216.270507812 c 1
 240.255396447 206.270507812 579.938472708 534.661132812 579.938472708 544.661132812 c 1
EndSplineSet
EndChar

StartChar: Ugrave
Encoding: 217 217 153
Width: 835
GlyphClass: 1
Flags: W
HStem: -23 148<301.237 511.767> 709 20G<83.5996 253.6 559.4 729.4>
VStem: 83.5996 170<170.923 729> 559.4 170<170.929 729>
LayerCount: 2
Fore
SplineSet
253.599609375 241.154296875 m 2
 253.599609375 174.9375 285.467005762 125 406.5 125 c 0
 527.529859535 125 559.400390625 174.934570312 559.400390625 241.154296875 c 2
 559.400390625 247.110351562 559.400390625 719.3203125 559.400390625 729 c 1
 729.400390625 729 l 1
 729.400390625 719.258789062 729.400390625 241.03515625 729.400390625 238.056640625 c 2
 729.400390625 156.404296875 706.563476562 96.609375 655.109375 51.6025390625 c 0
 599.608398438 2.6396484375 511.888733673 -23 406.5 -23 c 0
 301.111266327 -23 213.423828125 2.611328125 157.922851562 51.5751953125 c 0
 106.46875 96.5810546875 83.599609375 156.404296875 83.599609375 238.056640625 c 2
 83.599609375 241.03515625 83.599609375 719.258789062 83.599609375 729 c 1
 253.599609375 729 l 1
 253.599609375 719.3203125 253.599609375 247.110351562 253.599609375 241.154296875 c 2
222.947265625 936 m 1
 400.089531221 936 l 1
 400.089531221 926 493.46294615 756 493.46294615 766 c 1
 388.874606786 766 l 1
 388.874606786 756 222.947265625 926 222.947265625 936 c 1
EndSplineSet
EndChar

StartChar: Uacute
Encoding: 218 218 154
Width: 835
GlyphClass: 1
Flags: W
HStem: -23 148<301.237 511.767> 709 20G<83.5996 253.6 559.4 729.4>
VStem: 83.5996 170<170.923 729> 559.4 170<170.929 729>
LayerCount: 2
Fore
SplineSet
253.599609375 241.154296875 m 2
 253.599609375 174.9375 285.467005762 125 406.5 125 c 0
 527.529859535 125 559.400390625 174.934570312 559.400390625 241.154296875 c 2
 559.400390625 247.110351562 559.400390625 719.3203125 559.400390625 729 c 1
 729.400390625 729 l 1
 729.400390625 719.258789062 729.400390625 241.03515625 729.400390625 238.056640625 c 2
 729.400390625 156.404296875 706.563476562 96.609375 655.109375 51.6025390625 c 0
 599.608398438 2.6396484375 511.888733673 -23 406.5 -23 c 0
 301.111266327 -23 213.423828125 2.611328125 157.922851562 51.5751953125 c 0
 106.46875 96.5810546875 83.599609375 156.404296875 83.599609375 238.056640625 c 2
 83.599609375 241.03515625 83.599609375 719.258789062 83.599609375 729 c 1
 253.599609375 729 l 1
 253.599609375 719.3203125 253.599609375 247.110351562 253.599609375 241.154296875 c 2
592.252929688 936 m 1
 592.252929688 926 426.479555588 756 426.479555588 766 c 1
 321.891216223 766 l 1
 321.891216223 756 415.264631153 926 415.264631153 936 c 1
 592.252929688 936 l 1
EndSplineSet
EndChar

StartChar: Ucircumflex
Encoding: 219 219 155
Width: 835
GlyphClass: 1
Flags: W
HStem: -23 148<301.237 511.767> 709 20G<83.5996 253.6 559.4 729.4>
VStem: 83.5996 170<170.923 729> 559.4 170<170.929 729>
LayerCount: 2
Fore
SplineSet
253.599609375 241.154296875 m 2
 253.599609375 174.9375 285.467005762 125 406.5 125 c 0
 527.529859535 125 559.400390625 174.934570312 559.400390625 241.154296875 c 2
 559.400390625 247.110351562 559.400390625 719.3203125 559.400390625 729 c 1
 729.400390625 729 l 1
 729.400390625 719.258789062 729.400390625 241.03515625 729.400390625 238.056640625 c 2
 729.400390625 156.404296875 706.563476562 96.609375 655.109375 51.6025390625 c 0
 599.608398438 2.6396484375 511.888733673 -23 406.5 -23 c 0
 301.111266327 -23 213.423828125 2.611328125 157.922851562 51.5751953125 c 0
 106.46875 96.5810546875 83.599609375 156.404296875 83.599609375 238.056640625 c 2
 83.599609375 241.03515625 83.599609375 719.258789062 83.599609375 729 c 1
 253.599609375 729 l 1
 253.599609375 719.3203125 253.599609375 247.110351562 253.599609375 241.154296875 c 2
203.140625 766 m 1
 203.140625 756 341.246965802 926 341.246965802 936 c 1
 477.792563056 936 l 1
 477.792563056 926 609.271484375 756 609.271484375 766 c 1
 497.079349157 766 l 1
 497.079349157 756 405.323441264 851.072265625 405.323441264 861.072265625 c 1
 405.323441264 851.072265625 313.56648847 756 313.56648847 766 c 1
 203.140625 766 l 1
EndSplineSet
EndChar

StartChar: Udieresis
Encoding: 220 220 156
Width: 835
GlyphClass: 1
Flags: W
HStem: -23 148<301.237 511.767> 709 20G<83.5996 253.6 559.4 729.4> 780 142<224.6 372.475 440.525 588.4>
VStem: 83.5996 170<170.923 729> 224.6 147.875<779.641 922> 440.525 147.875<779.641 922> 559.4 170<170.929 729>
LayerCount: 2
Fore
SplineSet
253.599609375 241.154296875 m 2xf2
 253.599609375 174.9375 285.467005762 125 406.5 125 c 0
 527.529859535 125 559.400390625 174.934570312 559.400390625 241.154296875 c 2
 559.400390625 247.110351562 559.400390625 719.3203125 559.400390625 729 c 1
 729.400390625 729 l 1
 729.400390625 719.258789062 729.400390625 241.03515625 729.400390625 238.056640625 c 2
 729.400390625 156.404296875 706.563476562 96.609375 655.109375 51.6025390625 c 0
 599.608398438 2.6396484375 511.888733673 -23 406.5 -23 c 0
 301.111266327 -23 213.423828125 2.611328125 157.922851562 51.5751953125 c 0
 106.46875 96.5810546875 83.599609375 156.404296875 83.599609375 238.056640625 c 2
 83.599609375 241.03515625 83.599609375 719.258789062 83.599609375 729 c 1
 253.599609375 729 l 1
 253.599609375 719.3203125 253.599609375 247.110351562 253.599609375 241.154296875 c 2xf2
224.599609375 922 m 1xe8
 372.474882663 922 l 1
 372.474882663 912 372.474882663 770 372.474882663 780 c 1
 224.599609375 780 l 1
 224.599609375 770 224.599609375 912 224.599609375 922 c 1xe8
440.525117337 922 m 1xe4
 588.400390625 922 l 1
 588.400390625 912 588.400390625 770 588.400390625 780 c 1
 440.525117337 780 l 1
 440.525117337 770 440.525117337 912 440.525117337 922 c 1xe4
EndSplineSet
EndChar

StartChar: Yacute
Encoding: 221 221 157
Width: 784
GlyphClass: 1
Flags: W
HStem: 0 21G<295.231 476.403> 709 20G<29.7002 224.502 548.847 745.033>
VStem: 295.231 181.172<0 269.908 269.982 270.008>
LayerCount: 2
Fore
SplineSet
548.846679688 729 m 1
 745.033203125 729 l 1
 745.033203125 719.266601562 476.403040444 272.506835938 476.403040444 269.982421875 c 1
 476.403040444 272.506835938 476.403040444 9.7333984375 476.403040444 0 c 1
 295.2314981 0 l 1
 295.2314981 9.7333984375 295.2314981 272.530273438 295.2314981 270.0078125 c 1
 295.2314981 272.530273438 29.7001953125 719.266601562 29.7001953125 729 c 1
 224.501953125 729 l 1
 224.501953125 719 392.305225355 409.659179688 392.305225355 419.659179688 c 1
 392.305225355 409.659179688 548.846679688 719 548.846679688 729 c 1
575.822265625 936 m 1
 575.822265625 926 410.193417392 756 410.193417392 766 c 1
 306.021862019 766 l 1
 306.021862019 756 399.023184373 926 399.023184373 936 c 1
 399.023184373 926 575.822265625 926 575.822265625 936 c 1
EndSplineSet
EndChar

StartChar: Thorn
Encoding: 222 222 158
Width: 772
GlyphClass: 1
Flags: W
HStem: 0 21G<83.5996 253.6> 130 145<253.6 497.152> 474 145<253.6 498.768> 709 20G<83.5996 253.6>
VStem: 83.5996 170<0 130 275 474 619 729> 533.102 173.198<307.673 441.494>
LayerCount: 2
Fore
SplineSet
253.599609375 729 m 1
 253.599609375 719.833007812 253.599609375 619 253.599609375 619 c 1
 444.261274683 619 l 2
 541.442086875 619 598.870117188 601.5078125 641.283203125 560.155273438 c 0
 685.611328125 516.8828125 706.299804688 457.795898438 706.299804688 382 c 0
 706.299804688 314.098632812 689.0859375 256.688476562 656.346679688 213.71484375 c 0
 615.30859375 159.848632812 548.37652295 130 461.816598616 130 c 2
 253.599609375 130 l 1
 253.599609375 130 253.599609375 9.2861328125 253.599609375 0 c 1
 83.599609375 0 l 1
 83.599609375 9.7333984375 83.599609375 719.266601562 83.599609375 729 c 1
 253.599609375 729 l 1
406.809709155 275 m 2
 506.222341647 275 533.101853375 315.64453125 533.101853375 375 c 0
 533.101853375 432.607421875 507.121096098 474 406.809709155 474 c 2
 253.599609375 474 l 1
 253.599609375 275 l 1
 406.809709155 275 l 2
EndSplineSet
EndChar

StartChar: germandbls
Encoding: 223 223 159
Width: 710
GlyphClass: 1
Flags: W
HStem: -17 139<309.452 429.092> 0 21G<73.7002 236.274> 339 115<306.308 405.713> 596 133<255.641 409.431>
VStem: 73.7002 162.574<0 575.007> 431.582 169.918<479.17 573.662> 481.926 162.574<168.58 293.813>
LayerCount: 2
Fore
SplineSet
431.582443733 527.802734375 m 0xbc
 431.582443733 569.734375 395.84356287 596 327.489211365 596 c 0
 306.172066542 596 236.274199504 593.083984375 236.274199504 529.240234375 c 2
 236.274199504 521.732421875 236.274199504 9.67578125 236.274199504 0 c 1
 73.7001953125 0 l 1
 73.7001953125 9.712890625 73.7001953125 507.838867188 73.7001953125 512.845703125 c 2
 73.7001953125 589.994140625 92.3662109375 641.412109375 138.485351562 676.83203125 c 0
 180.25 710.030273438 255.615436565 729 338.02565376 729 c 0
 498.916100118 729 601.5 651.373046875 601.5 537 c 0x7c
 601.5 479.092773438 577.874023438 434.392578125 533.03125 408.416992188 c 1
 554.475585938 401.231445312 570.783203125 390.629882812 590.262695312 373.274414062 c 0
 629.4921875 338.482421875 644.5 298.215820312 644.5 236.8359375 c 0
 644.5 86.162109375 553.627929688 -17 401.248465746 -17 c 0
 381.550712977 -17 374.313340145 -17 306.308228518 -9.958984375 c 1
 306.308228518 0.041015625 306.308228518 129.599609375 306.308228518 119.599609375 c 1
 320.494019759 121.619140625 323.166328469 122 332.007502289 122 c 0
 332.063630126 122 332.118718559 122 332.171728184 122 c 2
 355.442953278 122 l 1
 431.238400877 123.84765625 481.925995808 168.653320312 481.925995808 230.022460938 c 0xba
 481.925995808 268.770507812 465.129220717 297.345703125 434.581125425 315.728515625 c 0
 409.938925928 330.557617188 375.414069404 339 332.171728184 339 c 2
 306.308228518 339 l 1
 306.308228518 454 l 1
 327.407098418 454 l 2
 395.2126444 454.909179688 431.582443733 483.56640625 431.582443733 527.802734375 c 0xbc
EndSplineSet
EndChar

StartChar: agrave
Encoding: 224 224 160
Width: 649
GlyphClass: 1
Flags: W
HStem: -23 133<206.231 320.567> 0 21G<411.779 587.2> 416 133<219.512 384.734>
VStem: 30.7998 162.699<126.107 208.04> 391.729 163.471<150.169 250.455 342.607 400.411>
LayerCount: 2
Fore
SplineSet
126.787109375 510.631835938 m 0xb8
 169.120992063 536.64453125 228.417006808 549 303.768949175 549 c 0
 389.421412308 549 553.5 536.462890625 553.5 379.2421875 c 0
 553.5 379.186523438 555.200195312 89.7314453125 555.200195312 89.7314453125 c 2
 555.200195312 62.3486328125 564.03515625 51.5859375 587.200195312 30.166015625 c 1
 587.200195312 38.75390625 587.200195312 9.6484375 587.200195312 0 c 1
 417.592778888 0 l 1x78
 405.965209955 12.1865234375 396.841623502 21.916015625 394.024903827 42.609375 c 1
 338.280541167 -1.3310546875 277.575124128 -23 211.005884671 -23 c 0
 100.811523438 -23 30.7998046875 43.6533203125 30.7998046875 141.505859375 c 0
 30.7998046875 258.189453125 111.176757812 299.482421875 203.413668019 313.538085938 c 2
 203.413668019 313.538085938 269.169790767 323.102539062 269.349093426 323.126953125 c 0
 350.878637864 333.713867188 348.188055524 333.184570312 369.359321209 342.266601562 c 0
 383.937044354 349.46875 391.729412811 360.565429688 391.729412811 373.916992188 c 0
 391.729412811 384.466796875 391.729412811 416 307.292454912 416 c 0
 214.333408432 416 207.450062757 390.354492188 200.351970874 342 c 1
 42.0537109375 342 l 1
 44.833984375 380.61328125 50.7353515625 462.586914062 126.787109375 510.631835938 c 0xb8
193.498856461 165 m 0
 193.498856461 132.065429688 220.118004094 110 272.065737199 110 c 0xb8
 318.460300167 110 391.729412811 125.990234375 391.729412811 227 c 2
 391.729412811 237 391.729412811 260.010742188 391.729412811 250.010742188 c 1
 345.988470582 234.53125 254.109409884 233.725585938 215.622928136 208.798828125 c 0
 199.913096343 198.624023438 193.498856461 186.010742188 193.498856461 165 c 0
283.752726199 587 m 1
 283.752726199 577 122.348632812 747 122.348632812 757 c 1
 122.348632812 747 295.024817186 747 295.024817186 757 c 1
 295.024817186 747 388.179845641 577 388.179845641 587 c 1
 388.179845641 577 283.752726199 577 283.752726199 587 c 1
EndSplineSet
EndChar

StartChar: aacute
Encoding: 225 225 161
Width: 649
GlyphClass: 1
Flags: W
HStem: -23 133<206.231 320.567> 0 21G<411.779 587.2> 416 133<219.512 384.734>
VStem: 30.7998 162.699<126.107 208.04> 391.729 163.471<150.169 250.455 342.607 400.411>
LayerCount: 2
Fore
SplineSet
126.787109375 510.631835938 m 0xb8
 169.120992063 536.64453125 228.417006808 549 303.768949175 549 c 0
 389.421412308 549 553.5 536.462890625 553.5 379.2421875 c 0
 553.5 379.186523438 555.200195312 89.7314453125 555.200195312 89.7314453125 c 2
 555.200195312 62.3486328125 564.03515625 51.5859375 587.200195312 30.166015625 c 1
 587.200195312 38.75390625 587.200195312 9.6484375 587.200195312 0 c 1
 417.592778888 0 l 1x78
 405.965209955 12.1865234375 396.841623502 21.916015625 394.024903827 42.609375 c 1
 338.280541167 -1.3310546875 277.575124128 -23 211.005884671 -23 c 0
 100.811523438 -23 30.7998046875 43.6533203125 30.7998046875 141.505859375 c 0
 30.7998046875 258.189453125 111.176757812 299.482421875 203.413668019 313.538085938 c 2
 203.413668019 313.538085938 269.169790767 323.102539062 269.349093426 323.126953125 c 0
 350.878637864 333.713867188 348.188055524 333.184570312 369.359321209 342.266601562 c 0
 383.937044354 349.46875 391.729412811 360.565429688 391.729412811 373.916992188 c 0
 391.729412811 384.466796875 391.729412811 416 307.292454912 416 c 0
 214.333408432 416 207.450062757 390.354492188 200.351970874 342 c 1
 42.0537109375 342 l 1
 44.833984375 380.61328125 50.7353515625 462.586914062 126.787109375 510.631835938 c 0xb8
193.498856461 165 m 0
 193.498856461 132.065429688 220.118004094 110 272.065737199 110 c 0xb8
 318.460300167 110 391.729412811 125.990234375 391.729412811 227 c 2
 391.729412811 237 391.729412811 260.010742188 391.729412811 250.010742188 c 1
 345.988470582 234.53125 254.109409884 233.725585938 215.622928136 208.798828125 c 0
 199.913096343 198.624023438 193.498856461 186.010742188 193.498856461 165 c 0
484.729492188 757 m 1
 484.729492188 747 325.007974586 577 325.007974586 587 c 1
 325.007974586 577 220.532902107 577 220.532902107 587 c 1
 220.532902107 577 313.687930562 747 313.687930562 757 c 1
 313.687930562 747 484.729492188 747 484.729492188 757 c 1
EndSplineSet
EndChar

StartChar: acircumflex
Encoding: 226 226 162
Width: 649
GlyphClass: 1
Flags: W
HStem: -23 133<206.231 320.567> 0 21G<411.779 587.2> 416 133<219.512 384.734>
VStem: 30.7998 162.699<126.107 208.04> 391.729 163.471<150.169 250.455 342.607 400.411>
LayerCount: 2
Fore
SplineSet
126.787109375 510.631835938 m 0xb8
 169.120992063 536.64453125 228.417006808 549 303.768949175 549 c 0
 389.421412308 549 553.5 536.462890625 553.5 379.2421875 c 0
 553.5 379.186523438 555.200195312 89.7314453125 555.200195312 89.7314453125 c 2
 555.200195312 62.3486328125 564.03515625 51.5859375 587.200195312 30.166015625 c 1
 587.200195312 38.75390625 587.200195312 9.6484375 587.200195312 0 c 1
 417.592778888 0 l 1x78
 405.965209955 12.1865234375 396.841623502 21.916015625 394.024903827 42.609375 c 1
 338.280541167 -1.3310546875 277.575124128 -23 211.005884671 -23 c 0
 100.811523438 -23 30.7998046875 43.6533203125 30.7998046875 141.505859375 c 0
 30.7998046875 258.189453125 111.176757812 299.482421875 203.413668019 313.538085938 c 2
 203.413668019 313.538085938 269.169790767 323.102539062 269.349093426 323.126953125 c 0
 350.878637864 333.713867188 348.188055524 333.184570312 369.359321209 342.266601562 c 0
 383.937044354 349.46875 391.729412811 360.565429688 391.729412811 373.916992188 c 0
 391.729412811 384.466796875 391.729412811 416 307.292454912 416 c 0
 214.333408432 416 207.450062757 390.354492188 200.351970874 342 c 1
 42.0537109375 342 l 1
 44.833984375 380.61328125 50.7353515625 462.586914062 126.787109375 510.631835938 c 0xb8
193.498856461 165 m 0
 193.498856461 132.065429688 220.118004094 110 272.065737199 110 c 0xb8
 318.460300167 110 391.729412811 125.990234375 391.729412811 227 c 2
 391.729412811 237 391.729412811 260.010742188 391.729412811 250.010742188 c 1
 345.988470582 234.53125 254.109409884 233.725585938 215.622928136 208.798828125 c 0
 199.913096343 198.624023438 193.498856461 186.010742188 193.498856461 165 c 0
105.715820312 587 m 1
 105.715820312 577 239.744348033 747 239.744348033 757 c 1
 376.235369684 757 l 1
 376.235369684 747 501.779296875 577 501.779296875 587 c 1
 501.779296875 577 395.27168278 577 395.27168278 587 c 1
 395.27168278 577 304.846850042 672.072265625 304.846850042 682.072265625 c 1
 304.846850042 672.072265625 212.189073728 577 212.189073728 587 c 1
 212.189073728 577 105.715820312 577 105.715820312 587 c 1
EndSplineSet
EndChar

